<?xml version="1.0" encoding="UTF-8" standalone="no"?>
<svg
   xmlns:dc="http://purl.org/dc/elements/1.1/"
   xmlns:cc="http://creativecommons.org/ns#"
   xmlns:rdf="http://www.w3.org/1999/02/22-rdf-syntax-ns#"
   xmlns:svg="http://www.w3.org/2000/svg"
   xmlns="http://www.w3.org/2000/svg"
   xmlns:sodipodi="http://sodipodi.sourceforge.net/DTD/sodipodi-0.dtd"
   xmlns:inkscape="http://www.inkscape.org/namespaces/inkscape"
   width="96"
   height="96"
   viewBox="0 0 96 96"
   version="1.1"
   id="svg21"
   sodipodi:docname="cog-clock.svg"
   style="fill:none"
   inkscape:version="0.92.4 (5da689c313, 2019-01-14)">
  <metadata
     id="metadata25">
    <rdf:RDF>
      <cc:Work
         rdf:about="">
        <dc:format>image/svg+xml</dc:format>
        <dc:type
           rdf:resource="http://purl.org/dc/dcmitype/StillImage" />
        <dc:title></dc:title>
      </cc:Work>
    </rdf:RDF>
  </metadata>
  <sodipodi:namedview
     pagecolor="#ffffff"
     bordercolor="#666666"
     borderopacity="1"
     objecttolerance="10"
     gridtolerance="10"
     guidetolerance="10"
     inkscape:pageopacity="0"
     inkscape:pageshadow="2"
     inkscape:window-width="2560"
     inkscape:window-height="1403"
     id="namedview23"
     showgrid="false"
     inkscape:zoom="2.1651376"
     inkscape:cx="54.5"
     inkscape:cy="50.805085"
     inkscape:window-x="0"
     inkscape:window-y="0"
     inkscape:window-maximized="1"
     inkscape:current-layer="svg21" />
  <g
     clip-path="url(#clip0)"
     id="g14"
     transform="matrix(0.81779661,0,0,0.81779661,3.4300848,3.4300848)">
    <path
       d="m 75.6997,62.6889 c -0.657,-0.6058 -1.6845,-0.5696 -2.2963,0.081 -0.6117,0.6506 -0.5751,1.6681 0.0819,2.2739 0.3274,0.3029 0.6354,0.6079 0.9327,0.9215 2.5957,2.8156 3.9291,6.4632 3.7546,10.2728 -0.1745,3.8076 -1.8374,7.3207 -4.6809,9.8911 -5.8699,5.3049 -15.0033,4.8954 -20.3627,-0.9172 -5.3595,-5.8063 -4.9416,-14.8526 0.9262,-20.1618 3.7654,-3.4044 8.9331,-4.5776 13.8251,-3.1399 0.8616,0.2538 1.7642,-0.2325 2.0205,-1.0836 0.2564,-0.8511 -0.2348,-1.747 -1.0964,-2.0008 -5.9022,-1.7364 -12.3926,-0.2603 -16.9399,3.848 -7.1926,6.508 -7.7009,17.5936 -1.1352,24.7074 3.4789,3.7755 8.2567,5.691 13.0496,5.6889 4.2543,0 8.5216,-1.5081 11.9014,-4.5648 3.4854,-3.1484 5.521,-7.4551 5.7364,-12.1222 0.2133,-4.6672 -1.4195,-9.136 -4.6119,-12.5979 -0.3576,-0.3819 -0.7217,-0.7402 -1.1051,-1.0964 z"
       id="path2"
       inkscape:connector-curvature="0"
       style="fill:#e23d55" />
    <path
       d="m 34.7069,32.6532 c -0.6182,-0.1259 -1.258,-0.192 -1.9107,-0.192 -0.6548,0 -1.2924,0.0661 -1.9107,0.192 -4.319,0.8788 -7.5781,4.6714 -7.5781,9.2042 0,5.1833 4.2565,9.4026 9.4888,9.4026 5.2345,0 9.4953,-4.2171 9.4953,-9.4026 -0.0021,-4.5328 -3.2635,-8.3254 -7.5846,-9.2042 z m -1.9128,15.388 c -3.4401,0 -6.2383,-2.7752 -6.2383,-6.1838 0,-3.4065 2.7982,-6.1774 6.2383,-6.1774 3.4422,0 6.2447,2.7709 6.2447,6.1774 0,3.4108 -2.8003,6.1838 -6.2447,6.1838 z"
       id="path4"
       inkscape:connector-curvature="0"
       style="fill:#e23d55" />
    <path
       d="m 109,27.9838 c 0,-4.3451 -0.982,-8.5174 -2.921,-12.4017 -0.396,-0.7956 -1.372,-1.122 -2.178,-0.7295 -0.803,0.3925 -1.133,1.3588 -0.736,2.1544 1.714,3.4385 2.584,7.1309 2.584,10.9768 0,13.6517 -11.2181,24.7586 -25.0087,24.7586 -13.7906,0 -25.0114,-11.1069 -25.0114,-24.7586 0,-13.6559 11.2186,-24.76713 25.0114,-24.76713 6.9039,0 13.5687,2.86685 18.2797,7.86463 0.6139,0.6485 1.641,0.6847 2.296,0.0789 0.655,-0.6058 0.692,-1.62323 0.08,-2.27382 C 96.0732,3.24014 88.5424,0 80.7403,0 68.9099,0 58.7576,7.23538 54.5506,17.472 l -1.4928,-1.4804 c -0.8939,-0.8852 -2.0852,-1.3715 -3.3561,-1.3715 -1.2709,0 -2.4621,0.4863 -3.3582,1.3737 l -1.2559,1.2478 c -1.0943,-0.5332 -2.2338,-0.994 -3.4078,-1.3822 v -1.7811 c 0,-2.5874 -2.1282,-4.69491 -4.7412,-4.69491 h -8.289 c -2.6151,0 -4.7412,2.10751 -4.7412,4.69491 v 1.9283 c -1.1072,0.3861 -2.1971,0.8447 -3.2613,1.3801 l -1.4109,-1.3972 c -1.8482,-1.8302 -4.8575,-1.8302 -6.7058,0 l -5.86344,5.8062 c -0.8918,0.8853 -1.38509,2.0627 -1.38509,3.3191 0,1.2564 0.49114,2.436 1.38509,3.3191 l 1.55958,1.5443 C 7.74402,30.9807 7.32612,32.011 6.97285,33.0605 H 4.74119 C 2.1261,33.0626 0,35.168 0,37.7575 v 8.206 c 0,2.5895 2.1261,4.6948 4.74119,4.6948 H 7.1301 c 0.35758,1.0047 0.77332,1.9859 1.24292,2.9373 l -1.69959,1.683 c -0.89396,0.8852 -1.3851,2.0648 -1.3851,3.3233 0,1.2585 0.49114,2.4381 1.3851,3.3233 l 5.86347,5.7999 c 1.8482,1.8301 4.8575,1.8301 6.7057,0 l 1.6996,-1.683 c 0.9651,0.4671 1.9581,0.8809 2.9727,1.2329 v 2.3677 c 0,2.5895 2.1261,4.6949 4.7412,4.6949 h 1.566 l -0.1831,3.944 c -0.0581,1.2714 0.3899,2.4915 1.258,3.4343 0.8703,0.9449 2.0572,1.4953 3.3411,1.5529 l 2.2833,0.1024 c 0.3382,1.1028 0.7453,2.1864 1.2192,3.238 l -1.7168,1.5507 c -0.9478,0.8596 -1.5014,2.035 -1.5596,3.3105 -0.0581,1.2756 0.3899,2.4957 1.2559,3.4321 l 5.7256,6.2115 c 1.7922,1.939 4.8489,2.076 6.8113,0.305 l 1.8267,-1.653 c 0.9715,0.518 1.9904,0.985 3.0416,1.395 l -0.1099,2.47 c -0.1185,2.628 1.9409,4.863 4.5926,4.983 l 8.4893,0.384 c 0.0732,0.004 0.1465,0.004 0.2197,0.004 1.202,0 2.3458,-0.439 3.2441,-1.252 0.9521,-0.862 1.51,-2.037 1.566,-3.306 l 0.1142,-2.468 c 1.0706,-0.307 2.1283,-0.681 3.1558,-1.118 l 1.6716,1.813 c 0.8638,0.941 2.0507,1.489 3.3388,1.547 1.2882,0.057 2.5203,-0.382 3.4681,-1.24 l 6.2728,-5.6715 c 0.95,-0.8575 1.5036,-2.0307 1.5617,-3.3084 0.0582,-1.2756 -0.3877,-2.4957 -1.2558,-3.4385 l -1.5617,-1.6915 c 0.5686,-1.009 1.0749,-2.052 1.5121,-3.1207 l 2.2769,0.1024 c 1.2817,0.0597 2.5117,-0.3797 3.4638,-1.2393 0.9565,-0.8618 1.5144,-2.0371 1.5704,-3.3084 l 0.3877,-8.4065 C 97.622,70.2677 95.5627,68.0322 92.9088,67.9149 L 90.8409,67.8232 C 90.5113,66.6436 90.1042,65.4896 89.626,64.3761 l 1.4949,-1.3523 c 1.9581,-1.7747 2.096,-4.7994 0.308,-6.7448 l -1.65,-1.7875 C 100.941,50.7522 109,40.2831 109,27.9838 Z m -78.5754,41.8978 -0.0581,1.2393 h -1.7147 c -0.8078,0 -1.4907,-0.6762 -1.4907,-1.4761 v -3.5366 c 0,-0.7103 -0.4717,-1.3374 -1.1589,-1.5401 -1.5919,-0.4735 -3.1363,-1.1134 -4.5904,-1.9048 -0.6333,-0.3434 -1.4195,-0.2325 -1.9301,0.273 l -2.5396,2.5149 c -0.5817,0.5759 -1.5295,0.5759 -2.1111,0 L 8.9697,59.6514 C 8.68967,59.3741 8.53457,59.0029 8.53457,58.604 c 0,-0.3988 0.1551,-0.77 0.43513,-1.0473 l 2.5397,-2.5149 c 0.5105,-0.5055 0.6225,-1.2841 0.2757,-1.9112 C 10.9924,51.6972 10.344,50.1677 9.85935,48.585 9.6504,47.9067 9.0214,47.4438 8.30408,47.4438 H 4.74119 c -0.82287,0 -1.49064,-0.6634 -1.49064,-1.4782 v -8.2059 c 0,-0.8149 0.66993,-1.4783 1.49064,-1.4783 h 3.43796 c 0.72809,0 1.36785,-0.4799 1.56388,-1.1732 0.45887,-1.6147 1.09857,-3.191 1.90207,-4.6863 0.336,-0.625 0.2197,-1.3929 -0.2865,-1.8942 L 8.9697,26.1621 C 8.69182,25.8848 8.53673,25.5137 8.53673,25.1169 c 0,-0.3967 0.15294,-0.7679 0.43297,-1.0452 l 5.8635,-5.8062 c 0.5816,-0.5759 1.5294,-0.5759 2.111,0 l 2.2618,2.2397 c 0.5149,0.5098 1.3119,0.6186 1.9473,0.2645 1.5596,-0.8703 3.1903,-1.5592 4.8511,-2.052 0.6871,-0.2048 1.1589,-0.8298 1.1589,-1.5401 v -3.0993 c 0,-0.8149 0.6678,-1.4761 1.4906,-1.4761 h 8.289 c 0.8078,0 1.4928,0.6762 1.4928,1.4761 v 2.9671 c 0,0.7188 0.4804,1.3502 1.1805,1.5486 1.7599,0.497 3.4444,1.1796 5.0018,2.0285 0.6333,0.3456 1.4239,0.2347 1.9344,-0.273 l 2.096,-2.0819 c 0.2778,-0.2773 0.6548,-0.4308 1.0576,-0.4308 0.4028,0 0.7777,0.1535 1.0577,0.4287 l 2.6431,2.6194 c -0.601,2.2675 -0.922,4.6458 -0.922,7.0967 0,5.8105 1.7987,11.2093 4.8705,15.6867 -0.7884,0.8212 -1.2774,1.9091 -1.3334,3.0759 L 55.94,48.5743 c -1.2364,0.3563 -2.4406,0.7914 -3.5973,1.3033 l -1.258,-1.3673 c -0.5256,-0.5716 -1.174,-0.9961 -1.8892,-1.2563 0.5816,-1.73 0.8767,-3.5367 0.8767,-5.3988 0,-9.4304 -7.7483,-17.1052 -17.2738,-17.1052 -9.5233,0 -17.2737,7.6727 -17.2737,17.1052 0,9.4324 7.7483,17.1051 17.2737,17.1051 1.2817,0 2.5462,-0.1387 3.7783,-0.4096 0.1896,0.7615 0.5666,1.4697 1.1137,2.0627 l 1.3657,1.4868 c -0.5837,1.075 -1.0943,2.1864 -1.5272,3.3211 l -2.0701,-0.0938 c -1.2817,-0.0576 -2.5117,0.3861 -3.4638,1.2478 -0.9565,0.8618 -1.5122,2.0371 -1.5704,3.3063 z M 46.8195,41.8573 c 0,1.9048 -0.3813,3.7371 -1.1266,5.4628 -0.5148,0.209 -0.9952,0.5034 -1.4174,0.8831 l -6.2749,5.6718 c -0.3963,0.3584 -0.7195,0.7722 -0.9693,1.2244 -1.3636,0.4266 -2.7853,0.6421 -4.235,0.6421 -7.7333,0 -14.0233,-6.2286 -14.0233,-13.8863 0,-7.6578 6.29,-13.8863 14.0233,-13.8863 7.7332,0 14.0232,6.2328 14.0232,13.8884 z m 45.945,29.2721 c 0.8466,0.0384 1.5316,0.7808 1.4928,1.6212 l -0.3878,8.4064 c -0.0193,0.4117 -0.2003,0.7935 -0.5126,1.0751 -0.3102,0.2794 -0.7066,0.4245 -1.1245,0.4031 l -3.4552,-0.1557 c -0.713,-0.0341 -1.3657,0.401 -1.6048,1.0687 -0.5816,1.6275 -1.3463,3.2017 -2.2683,4.68 -0.3812,0.6122 -0.308,1.4014 0.1831,1.9325 l 2.3696,2.5682 c 0.2822,0.3072 0.4286,0.7061 0.4092,1.1263 -0.0193,0.416 -0.1981,0.7978 -0.504,1.0751 l -6.2728,5.6717 c -0.308,0.277 -0.7108,0.42 -1.1309,0.401 -0.42,-0.019 -0.8056,-0.196 -1.0857,-0.501 L 76.404,97.8249 c -0.4825,-0.5248 -1.2558,-0.672 -1.902,-0.3669 -1.5402,0.7316 -3.1601,1.3054 -4.808,1.7 -0.7022,0.1685 -1.2085,0.7765 -1.2408,1.491 l -0.1701,3.645 c -0.0194,0.412 -0.2004,0.794 -0.5127,1.078 -0.3124,0.281 -0.7109,0.426 -1.1245,0.407 l -8.4893,-0.386 c -0.8487,-0.038 -1.5316,-0.781 -1.495,-1.623 l 0.1638,-3.644 c 0.0323,-0.712 -0.4115,-1.3583 -1.0922,-1.593 -1.6457,-0.5631 -3.2053,-1.2777 -4.6356,-2.1288 -0.6161,-0.3669 -1.4023,-0.2879 -1.9322,0.192 l -2.6948,2.4424 c -0.6398,0.578 -1.6393,0.5311 -2.2231,-0.1003 l -5.7256,-6.2094 c -0.2822,-0.305 -0.4265,-0.7017 -0.4071,-1.1177 0.0194,-0.4181 0.1982,-0.802 0.504,-1.0793 l 2.6,-2.3485 c 0.5364,-0.4842 0.6829,-1.2628 0.3598,-1.907 -0.7798,-1.5486 -1.3959,-3.1868 -1.8332,-4.8655 -0.1788,-0.6848 -0.7862,-1.1732 -1.4992,-1.2052 L 34.7888,80.05 C 34.3731,80.0308 33.9875,79.8516 33.7032,79.5423 33.4167,79.233 33.2723,78.8341 33.2896,78.4224 l 0.3877,-8.4 c 0.0194,-0.4117 0.2004,-0.7935 0.5127,-1.0751 0.3102,-0.2815 0.713,-0.4266 1.1244,-0.4095 l 3.2743,0.1514 c 0.7302,0.0341 1.3915,-0.4202 1.6199,-1.1071 0.5579,-1.6936 1.3118,-3.3361 2.2402,-4.8826 0.3662,-0.6079 0.2865,-1.3822 -0.1938,-1.9048 l -2.1584,-2.3485 c -0.2801,-0.305 -0.4244,-0.7018 -0.405,-1.1199 0.0194,-0.4159 0.1982,-0.7977 0.504,-1.075 l 6.275,-5.6719 c 0.308,-0.2773 0.7087,-0.4202 1.1309,-0.401 0.42,0.0192 0.8056,0.1962 1.0856,0.4991 l 2.068,2.2462 c 0.4911,0.5332 1.2795,0.6783 1.9301,0.3541 1.6349,-0.8127 3.3905,-1.4484 5.2172,-1.8921 0.7022,-0.1706 1.2042,-0.7785 1.2365,-1.491 l 0.1335,-3.0012 c 0.0086,-0.2027 0.0625,-0.3989 0.1465,-0.5781 5.1849,5.9044 12.8256,9.6436 21.33,9.6436 1.762,0 3.4875,-0.1621 5.1634,-0.4692 0.112,-0.0171 0.224,-0.0363 0.3403,-0.0576 l 2.7831,3.0161 c 0.5838,0.6336 0.5385,1.6233 -0.1012,2.2014 l -2.3631,2.1373 c -0.5299,0.4778 -0.6785,1.2436 -0.3705,1.8835 0.7755,1.5998 1.3765,3.3063 1.7858,5.0703 0.1637,0.7039 0.7819,1.2137 1.51,1.2457 z"
       id="path6"
       inkscape:connector-curvature="0"
       style="fill:#e23d55" />
    <path
       d="m 57.6869,68.1324 c -0.0259,0.0214 -0.0539,0.0406 -0.0797,0.0619 -0.0345,0.0277 -0.0647,0.0576 -0.0991,0.0853 -0.0883,0.0747 -0.1788,0.1493 -0.265,0.2283 -0.1206,0.1087 -0.2369,0.2175 -0.3511,0.3306 -0.0323,0.032 -0.0625,0.0661 -0.0948,0.0981 -0.0797,0.0811 -0.1594,0.1643 -0.2369,0.2474 -0.0927,0.1003 -0.181,0.2048 -0.2693,0.3093 -0.0129,0.0171 -0.028,0.032 -0.0409,0.0491 -0.0926,0.1109 -0.181,0.2261 -0.2671,0.3392 -0.0086,0.0106 -0.0173,0.0213 -0.0259,0.032 -0.0732,0.0981 -0.1421,0.1983 -0.2111,0.2986 -0.0194,0.0298 -0.0409,0.0576 -0.0603,0.0853 -0.0646,0.0939 -0.1228,0.1898 -0.1831,0.288 -0.0237,0.0362 -0.0474,0.0725 -0.0689,0.1088 -0.3878,0.6441 -0.6958,1.3331 -0.9198,2.052 -0.0086,0.0256 -0.0173,0.0533 -0.0259,0.0789 -0.1335,0.4458 -0.2369,0.9023 -0.3059,1.3673 0,0.0043 -0.0021,0.0085 -0.0021,0.0107 -0.0108,0.0704 -0.0173,0.1386 -0.0259,0.209 -0.0301,0.2453 -0.0538,0.4927 -0.0646,0.7402 -0.1185,2.5597 0.7776,5.0106 2.5225,6.9005 1.9107,2.0712 4.5322,3.1228 7.1624,3.1228 2.3329,0 4.6722,-0.8277 6.5248,-2.5021 0.1228,-0.1109 0.2434,-0.2261 0.3597,-0.3413 1.8547,-1.8579 2.7939,-4.3088 2.7874,-6.7661 -0.0043,-1.6894 -0.4545,-3.3831 -1.3592,-4.8869 -0.3296,-0.5482 -0.7173,-1.0708 -1.1675,-1.5592 -1.7449,-1.8921 -4.1295,-2.997 -6.7122,-3.1122 -2.3846,-0.1045 -4.6788,0.6463 -6.5205,2.1245 z m 10.8373,3.1591 c 2.3932,2.5981 2.208,6.6403 -0.4093,9.008 -2.6194,2.3698 -6.7014,2.1842 -9.0968,-0.4138 -1.0146,-1.0986 -1.5962,-2.4851 -1.6737,-3.9505 -0.0108,-0.2112 -0.0108,-0.4223 -0.0022,-0.6335 0.0776,-1.7001 0.8207,-3.27 2.0917,-4.4155 1.1955,-1.0814 2.7249,-1.668 4.334,-1.668 0.0991,0 0.1982,0.0021 0.2973,0.0064 1.7168,0.0768 3.3001,0.8127 4.459,2.0669 z"
       id="path8"
       inkscape:connector-curvature="0"
       style="fill:#e23d55" />
    <path
       d="m 80.7403,7.71973 c -11.2789,0 -20.4576,9.09117 -20.4576,20.26207 0,11.1687 9.1765,20.2556 20.4576,20.2556 11.281,0 20.4557,-9.0869 20.4557,-20.2556 C 101.198,16.8109 92.0213,7.71973 80.7403,7.71973 Z m 16.438,21.87247 h 0.6914 C 97.0986,37.7065 90.5608,44.1803 82.3666,44.944 v -0.6847 c 0,-0.8874 -0.7281,-1.6084 -1.6242,-1.6084 -0.8982,0 -1.6242,0.721 -1.6242,1.6084 V 44.944 C 70.924,44.1803 64.3863,37.7065 63.6151,29.5922 h 0.6915 c 0.8961,0 1.6242,-0.7209 1.6242,-1.6083 0,-0.8895 -0.7281,-1.6083 -1.6242,-1.6083 H 63.6151 C 64.3863,18.2592 70.924,11.7811 79.1182,11.0175 v 0.6911 c 0,0.8873 0.7281,1.6083 1.6242,1.6083 0.8961,0 1.6242,-0.721 1.6242,-1.6083 v -0.6911 c 8.1942,0.7636 14.732,7.2417 15.5031,15.3581 h -0.6914 c -0.8983,0 -1.6242,0.721 -1.6242,1.6083 -0.0022,0.8874 0.7259,1.6083 1.6242,1.6083 z"
       id="path10"
       inkscape:connector-curvature="0"
       style="fill:#e23d55" />
    <path
       d="m 80.7403,18.4021 c -0.8982,0 -1.6242,0.721 -1.6242,1.6083 v 9.072 h -3.7653 c -0.8983,0 -1.6242,0.721 -1.6242,1.6083 0,0.8874 0.728,1.6084 1.6242,1.6084 h 5.3895 c 0.8961,0 1.6242,-0.721 1.6242,-1.6084 V 20.0104 c 0,-0.8873 -0.7259,-1.6083 -1.6242,-1.6083 z"
       id="path12"
       inkscape:connector-curvature="0"
       style="fill:#e23d55" />
  </g>
  <defs
     id="defs19">
    <clipPath
       id="clip0">
      <rect
         width="109"
         height="109"
         id="rect16"
         x="0"
         y="0"
         style="fill:#ffffff" />
    </clipPath>
  </defs>
</svg>
