<?xml version="1.0" encoding="UTF-8" standalone="no"?>
<svg
   xmlns:dc="http://purl.org/dc/elements/1.1/"
   xmlns:cc="http://creativecommons.org/ns#"
   xmlns:rdf="http://www.w3.org/1999/02/22-rdf-syntax-ns#"
   xmlns:svg="http://www.w3.org/2000/svg"
   xmlns="http://www.w3.org/2000/svg"
   xmlns:sodipodi="http://sodipodi.sourceforge.net/DTD/sodipodi-0.dtd"
   xmlns:inkscape="http://www.inkscape.org/namespaces/inkscape"
   width="96"
   height="96"
   viewBox="0 0 96 96"
   version="1.1"
   id="svg21"
   sodipodi:docname="euro-stocks.svg"
   style="fill:none"
   inkscape:version="0.92.4 (5da689c313, 2019-01-14)">
  <metadata
     id="metadata25">
    <rdf:RDF>
      <cc:Work
         rdf:about="">
        <dc:format>image/svg+xml</dc:format>
        <dc:type
           rdf:resource="http://purl.org/dc/dcmitype/StillImage" />
        <dc:title></dc:title>
      </cc:Work>
    </rdf:RDF>
  </metadata>
  <sodipodi:namedview
     pagecolor="#ffffff"
     bordercolor="#666666"
     borderopacity="1"
     objecttolerance="10"
     gridtolerance="10"
     guidetolerance="10"
     inkscape:pageopacity="0"
     inkscape:pageshadow="2"
     inkscape:window-width="2560"
     inkscape:window-height="1403"
     id="namedview23"
     showgrid="false"
     inkscape:zoom="3.0649351"
     inkscape:cx="44.5"
     inkscape:cy="35.889831"
     inkscape:window-x="0"
     inkscape:window-y="0"
     inkscape:window-maximized="1"
     inkscape:current-layer="svg21" />
  <g
     clip-path="url(#clip0)"
     id="g14"
     transform="translate(3.5,9.50005)">
    <path
       d="M 31.5205,0 C 14.131,0 0,13.9786 0,31.1648 c 0,12.4376 7.4728,23.6645 19.0188,28.6018 0.235,0.1101 0.4857,0.1572 0.7363,0.1572 0.7207,0 1.41,-0.4088 1.7077,-1.1006 0.4073,-0.9278 -0.0314,-2.0127 -0.9713,-2.4058 C 10.2927,52.0462 3.7129,42.1401 3.7129,31.1648 c 0,-15.1579 12.4703,-27.50113 27.8076,-27.50113 15.3373,0 27.8076,12.34323 27.8076,27.50113 0,9.167 -4.5902,17.6894 -12.2823,22.8154 -0.846,0.5661 -1.0653,1.6982 -0.5014,2.5473 0.564,0.8333 1.7233,1.0535 2.5693,0.5031 C 57.8398,51.2128 63.041,41.5583 63.041,31.1648 63.041,13.9786 48.8944,0 31.5205,0 Z"
       id="path2"
       inkscape:connector-curvature="0"
       style="fill:#e23d55" />
    <path
       d="m 79.1772,39.0424 c -0.7206,-0.7076 -1.8956,-0.7076 -2.6162,0 l -26.5073,26.196 -13.52,-13.3653 c -0.7207,-0.7076 -1.8956,-0.7076 -2.6163,0 L 11.6713,73.8709 c -0.7206,0.7075 -0.7206,1.8711 0,2.5944 0.3604,0.3617 0.8304,0.5346 1.316,0.5346 0.47,0 0.9557,-0.1729 1.316,-0.5346 l 20.9301,-20.7084 13.52,13.3811 c 0.7206,0.7075 1.8956,0.7075 2.6162,0 L 79.1772,41.6368 c 0.7207,-0.7233 0.7207,-1.8868 0,-2.5944 z"
       id="path4"
       inkscape:connector-curvature="0"
       style="fill:#e23d55" />
    <path
       d="m 85.2873,45.0802 -12.204,-12.076 h 12.204 z M 87.1359,29.3406 H 68.6027 c -0.752,0 -1.4256,0.456 -1.7076,1.1321 -0.2977,0.6918 -0.1254,1.478 0.4073,1.9969 l 18.5332,18.3341 c 0.3603,0.3459 0.8303,0.5346 1.3159,0.5346 0.235,0 0.47,-0.0471 0.705,-0.1415 0.6893,-0.283 1.1437,-0.9591 1.1437,-1.6982 V 31.1645 c 0,-1.0063 -0.8303,-1.8239 -1.8643,-1.8239 z"
       id="path6"
       inkscape:connector-curvature="0"
       style="fill:#e23d55" />
    <path
       d="m 39.0873,36.6839 c -0.987,-0.0943 -1.9113,0.6604 -2.0053,1.6667 -0.1096,1.3208 -1.9896,1.9812 -5.5615,1.9812 -3.0079,0 -5.5615,-1.6824 -5.5615,-3.6636 V 25.6614 c 0,-1.9812 2.5536,-3.6636 5.5615,-3.6636 3.5876,0 5.4519,0.6604 5.5615,1.9812 0.094,1.0063 1.0183,1.7768 2.0053,1.6667 1.0183,-0.0786 1.7703,-0.9749 1.692,-1.9812 -0.2977,-3.5536 -3.4153,-5.3461 -9.2588,-5.3461 -5.1072,0 -9.2744,3.2863 -9.2744,7.3273 v 11.0067 c 0,4.0411 4.1516,7.3274 9.2744,7.3274 5.8435,0 8.9611,-1.8083 9.2588,-5.3461 0.0783,-0.9906 -0.6737,-1.8712 -1.692,-1.9498 z"
       id="path8"
       inkscape:connector-curvature="0"
       style="fill:#e23d55" />
    <path
       d="M 31.5205,25.6614 H 20.3974 c -1.0183,0 -1.8486,0.8176 -1.8486,1.8397 0,1.0063 0.8303,1.8397 1.8486,1.8397 h 11.1231 c 1.0183,0 1.8486,-0.8177 1.8486,-1.8397 0,-1.0064 -0.8303,-1.8397 -1.8486,-1.8397 z"
       id="path10"
       inkscape:connector-curvature="0"
       style="fill:#e23d55" />
    <path
       d="M 31.5205,33.0044 H 20.3974 c -1.0183,0 -1.8486,0.8176 -1.8486,1.8397 0,1.0063 0.8303,1.8397 1.8486,1.8397 h 11.1231 c 1.0183,0 1.8486,-0.8176 1.8486,-1.8397 0,-1.0221 -0.8303,-1.8397 -1.8486,-1.8397 z"
       id="path12"
       inkscape:connector-curvature="0"
       style="fill:#e23d55" />
  </g>
  <defs
     id="defs19">
    <clipPath
       id="clip0">
      <rect
         width="89"
         height="77"
         id="rect16"
         x="0"
         y="0"
         style="fill:#ffffff" />
    </clipPath>
  </defs>
</svg>
