<?xml version="1.0" encoding="UTF-8" standalone="no"?>
<svg
   xmlns:dc="http://purl.org/dc/elements/1.1/"
   xmlns:cc="http://creativecommons.org/ns#"
   xmlns:rdf="http://www.w3.org/1999/02/22-rdf-syntax-ns#"
   xmlns:svg="http://www.w3.org/2000/svg"
   xmlns="http://www.w3.org/2000/svg"
   xmlns:sodipodi="http://sodipodi.sourceforge.net/DTD/sodipodi-0.dtd"
   xmlns:inkscape="http://www.inkscape.org/namespaces/inkscape"
   width="72"
   height="72"
   viewBox="0 0 72 72"
   version="1.1"
   id="svg43"
   sodipodi:docname="hand-clock.svg"
   style="fill:none"
   inkscape:version="0.92.4 (5da689c313, 2019-01-14)">
  <metadata
     id="metadata47">
    <rdf:RDF>
      <cc:Work
         rdf:about="">
        <dc:format>image/svg+xml</dc:format>
        <dc:type
           rdf:resource="http://purl.org/dc/dcmitype/StillImage" />
        <dc:title></dc:title>
      </cc:Work>
    </rdf:RDF>
  </metadata>
  <sodipodi:namedview
     pagecolor="#ffffff"
     bordercolor="#666666"
     borderopacity="1"
     objecttolerance="10"
     gridtolerance="10"
     guidetolerance="10"
     inkscape:pageopacity="0"
     inkscape:pageshadow="2"
     inkscape:window-width="2560"
     inkscape:window-height="1403"
     id="namedview45"
     showgrid="false"
     inkscape:zoom="3.3239437"
     inkscape:cx="35.5"
     inkscape:cy="33.09322"
     inkscape:window-x="0"
     inkscape:window-y="0"
     inkscape:window-maximized="1"
     inkscape:current-layer="svg43" />
  <g
     clip-path="url(#clip0)"
     id="g36"
     transform="translate(0,1)">
    <path
       d="m 35.5,39.3967 c 10.858,0 19.6914,-8.8365 19.6914,-19.6984 C 55.1914,8.8365 46.358,0 35.5,0 24.642,0 15.8086,8.8365 15.8086,19.6983 c 0,10.8619 8.8334,19.6984 19.6914,19.6984 z m 0,-36.62229 c 9.3285,0 16.918,7.59219 16.918,16.92389 0,9.3318 -7.5895,16.9239 -16.918,16.9239 -9.3285,0 -16.918,-7.5921 -16.918,-16.9239 0,-9.3317 7.5895,-16.92389 16.918,-16.92389 z"
       id="path2"
       inkscape:connector-curvature="0"
       style="fill:#e33e56" />
    <path
       d="m 47.9139,21.1008 h 1.1774 c 0.7654,0 1.3867,-0.6214 1.3867,-1.3872 0,-0.7657 -0.6213,-1.3872 -1.3867,-1.3872 h -1.1774 c -0.7654,0 -1.3867,0.6215 -1.3867,1.3872 0,0.7658 0.6213,1.3872 1.3867,1.3872 z"
       id="path4"
       inkscape:connector-curvature="0"
       style="fill:#e33e56" />
    <path
       d="m 24.4729,19.6831 c 0,-0.7657 -0.6213,-1.3872 -1.3868,-1.3872 h -1.1773 c -0.7655,0 -1.3867,0.6215 -1.3867,1.3872 0,0.7657 0.6212,1.3872 1.3867,1.3872 h 1.1773 c 0.7655,0 1.3868,-0.6215 1.3868,-1.3872 z"
       id="path6"
       inkscape:connector-curvature="0"
       style="fill:#e33e56" />
    <path
       d="m 35.5153,8.66724 c 0.7654,0 1.3867,-0.62147 1.3867,-1.38721 V 6.10229 c 0,-0.76573 -0.6213,-1.3872 -1.3867,-1.3872 -0.7655,0 -1.3868,0.62147 -1.3868,1.3872 v 1.17774 c 0,0.76574 0.6213,1.38721 1.3868,1.38721 z"
       id="path8"
       inkscape:connector-curvature="0"
       style="fill:#e33e56" />
    <path
       d="m 35.4847,30.7294 c -0.7654,0 -1.3867,0.6214 -1.3867,1.3872 v 1.1777 c 0,0.7658 0.6213,1.3872 1.3867,1.3872 0.7655,0 1.3868,-0.6214 1.3868,-1.3872 v -1.1777 c 0,-0.7658 -0.6213,-1.3872 -1.3868,-1.3872 z"
       id="path10"
       inkscape:connector-curvature="0"
       style="fill:#e33e56" />
    <path
       d="m 34.5057,20.6652 0.0152,0.0153 c 0.2704,0.2691 0.6241,0.4037 0.9791,0.4037 0.355,0 0.71,-0.136 0.9804,-0.4065 l 9.5864,-9.5897 c 0.5408,-0.541 0.5408,-1.42053 0,-1.96154 -0.5423,-0.54101 -1.42,-0.54101 -1.9609,0 L 35.5,17.7369 30.5008,12.736 c -0.5408,-0.541 -1.42,-0.541 -1.9608,0 -0.5408,0.541 -0.5408,1.4205 0,1.9615 z"
       id="path12"
       inkscape:connector-curvature="0"
       style="fill:#e33e56" />
    <path
       d="M 65.6376,39.1207 C 63.631,37.506 60.7453,37.6627 58.9245,39.4841 L 49.1551,49.257 C 48.911,47.326 47.5104,45.7154 45.5829,45.2327 L 32.4687,41.9464 c -2.7291,-0.6839 -5.6079,-0.351 -8.1095,0.9364 l -8.0402,4.1394 -0.7572,-1.3123 c -0.294,-0.5091 -0.7682,-0.8726 -1.3354,-1.0252 -0.5672,-0.1512 -1.1593,-0.0735 -1.6682,0.2192 L 4.60673,49.497 C 3.55699,50.1032 3.19644,51.4515 3.80244,52.5016 L 13.8451,69.9014 c 0.2939,0.5091 0.7682,0.8725 1.3354,1.0251 0.1899,0.0513 0.3813,0.0763 0.5727,0.0763 0.3813,0 0.7571,-0.0999 1.0955,-0.2955 l 7.9514,-4.593 c 1.0498,-0.6062 1.4117,-1.9546 0.8043,-3.0047 L 17.7085,49.429 25.6294,45.352 c 1.9012,-0.9794 4.0922,-1.2318 6.1667,-0.7116 l 13.1142,3.2862 c 0.8903,0.2234 1.5115,1.0196 1.5115,1.9366 0,1.1014 -0.8958,1.9962 -1.9954,1.9962 h -1.4991 -8.8084 c -0.7655,0 -1.3867,0.6214 -1.3867,1.3872 0,0.7657 0.6212,1.3872 1.3867,1.3872 h 8.8084 1.4991 1.1939 c 1.3465,0 2.6112,-0.5244 3.5625,-1.476 l 11.7039,-11.708 c 0.8168,-0.8171 2.1134,-0.8878 3.0133,-0.1637 0.5062,0.4078 0.8057,0.9905 0.8404,1.6397 0.0347,0.6492 -0.1983,1.2609 -0.6587,1.7201 L 51.7468,56.9851 c -1.682,1.6827 -3.9188,2.6093 -6.297,2.6093 H 34.1341 c -0.7654,0 -1.3867,0.6215 -1.3867,1.3872 0,0.7658 0.6213,1.3872 1.3867,1.3872 h 11.3157 c 3.1187,0 6.0516,-1.2151 8.2579,-3.4222 L 66.0425,46.6074 c 1.0096,-1.0099 1.5434,-2.4068 1.4672,-3.8328 -0.0777,-1.4275 -0.7599,-2.7592 -1.8721,-3.6539 z M 20.6968,65.2778 17.2494,59.3045 c -0.3827,-0.6631 -1.2314,-0.8906 -1.8942,-0.5077 -0.6629,0.3829 -0.8903,1.2318 -0.5075,1.8949 l 3.4473,5.9733 -2.3366,1.3498 -9.4685,-16.4051 6.9572,-4.0174 9.4671,16.4037 z"
       id="path14"
       inkscape:connector-curvature="0"
       style="fill:#e33e56" />
    <path
       d="m 64.0664,4.69015 c 0.7655,0 1.3867,-0.62147 1.3867,-1.38721 V 1.38721 C 65.4531,0.621468 64.8319,0 64.0664,0 63.3009,0 62.6797,0.621468 62.6797,1.38721 v 1.91573 c 0,0.76574 0.6212,1.38721 1.3867,1.38721 z"
       id="path16"
       inkscape:connector-curvature="0"
       style="fill:#e33e56" />
    <path
       d="m 64.0664,13.8722 c 0.7655,0 1.3867,-0.6215 1.3867,-1.3873 v -1.9157 c 0,-0.76572 -0.6212,-1.38719 -1.3867,-1.38719 -0.7655,0 -1.3867,0.62147 -1.3867,1.38719 v 1.9157 c 0,0.7658 0.6212,1.3873 1.3867,1.3873 z"
       id="path18"
       inkscape:connector-curvature="0"
       style="fill:#e33e56" />
    <path
       d="m 69.6133,5.54883 h -1.9151 c -0.7654,0 -1.3867,0.62147 -1.3867,1.3872 0,0.76574 0.6213,1.38721 1.3867,1.38721 h 1.9151 C 70.3788,8.32324 71,7.70177 71,6.93603 71,6.1703 70.3788,5.54883 69.6133,5.54883 Z"
       id="path20"
       inkscape:connector-curvature="0"
       style="fill:#e33e56" />
    <path
       d="m 58.5195,8.32324 h 1.9151 c 0.7655,0 1.3867,-0.62147 1.3867,-1.38721 0,-0.76573 -0.6212,-1.3872 -1.3867,-1.3872 h -1.9151 c -0.7654,0 -1.3867,0.62147 -1.3867,1.3872 0,0.76574 0.6213,1.38721 1.3867,1.38721 z"
       id="path22"
       inkscape:connector-curvature="0"
       style="fill:#e33e56" />
    <path
       d="m 6.93359,33.2666 c 0.76547,0 1.38672,-0.6215 1.38672,-1.3872 v -1.9158 c 0,-0.7657 -0.62125,-1.3872 -1.38672,-1.3872 -0.76547,0 -1.38671,0.6215 -1.38671,1.3872 v 1.9158 c 0,0.7657 0.62124,1.3872 1.38671,1.3872 z"
       id="path24"
       inkscape:connector-curvature="0"
       style="fill:#e33e56" />
    <path
       d="m 6.93359,42.4486 c 0.76547,0 1.38672,-0.6215 1.38672,-1.3872 v -1.9158 c 0,-0.7657 -0.62125,-1.3872 -1.38672,-1.3872 -0.76547,0 -1.38671,0.6215 -1.38671,1.3872 v 1.9158 c 0,0.7657 0.62124,1.3872 1.38671,1.3872 z"
       id="path26"
       inkscape:connector-curvature="0"
       style="fill:#e33e56" />
    <path
       d="m 10.5654,36.8997 h 1.9151 c 0.7655,0 1.3867,-0.6215 1.3867,-1.3873 0,-0.7657 -0.6212,-1.3872 -1.3867,-1.3872 h -1.9151 c -0.76544,0 -1.38669,0.6215 -1.38669,1.3872 0,0.7658 0.62125,1.3873 1.38669,1.3873 z"
       id="path28"
       inkscape:connector-curvature="0"
       style="fill:#e33e56" />
    <path
       d="m 4.6885,35.5124 c 0,-0.7657 -0.62125,-1.3872 -1.38672,-1.3872 H 1.38672 C 0.62125,34.1252 0,34.7467 0,35.5124 c 0,0.7658 0.62125,1.3873 1.38672,1.3873 h 1.91506 c 0.76547,0 1.38672,-0.6215 1.38672,-1.3873 z"
       id="path30"
       inkscape:connector-curvature="0"
       style="fill:#e33e56" />
    <path
       d="m 28.5872,59.5916 c -0.3661,0 -0.7225,0.1484 -0.9805,0.4064 -0.2593,0.258 -0.4063,0.6159 -0.4063,0.9808 0,0.3648 0.147,0.7227 0.4063,0.9807 0.258,0.258 0.6158,0.4065 0.9805,0.4065 0.3647,0 0.7224,-0.1485 0.9804,-0.4065 0.2579,-0.258 0.4063,-0.6159 0.4063,-0.9807 0,-0.3649 -0.1484,-0.7228 -0.4063,-0.9808 -0.258,-0.258 -0.6157,-0.4064 -0.9804,-0.4064 z"
       id="path32"
       inkscape:connector-curvature="0"
       style="fill:#e33e56" />
    <path
       d="m 12.2946,54.212 c -0.2579,0.258 -0.4063,0.6159 -0.4063,0.9807 0,0.3649 0.1484,0.7228 0.4063,0.9808 0.2579,0.258 0.6157,0.4065 0.9804,0.4065 0.3661,0 0.7225,-0.1485 0.9804,-0.4065 0.2594,-0.258 0.4063,-0.6159 0.4063,-0.9808 0,-0.3648 -0.1469,-0.7227 -0.4063,-0.9807 -0.2579,-0.258 -0.6143,-0.4065 -0.9804,-0.4065 -0.3647,0 -0.7225,0.1485 -0.9804,0.4065 z"
       id="path34"
       inkscape:connector-curvature="0"
       style="fill:#e33e56" />
  </g>
  <defs
     id="defs41">
    <clipPath
       id="clip0">
      <rect
         width="71"
         height="71"
         id="rect38"
         x="0"
         y="0"
         style="fill:#ffffff" />
    </clipPath>
  </defs>
</svg>
