<?xml version="1.0" encoding="UTF-8" standalone="no"?>
<svg
   xmlns:dc="http://purl.org/dc/elements/1.1/"
   xmlns:cc="http://creativecommons.org/ns#"
   xmlns:rdf="http://www.w3.org/1999/02/22-rdf-syntax-ns#"
   xmlns:svg="http://www.w3.org/2000/svg"
   xmlns="http://www.w3.org/2000/svg"
   xmlns:sodipodi="http://sodipodi.sourceforge.net/DTD/sodipodi-0.dtd"
   xmlns:inkscape="http://www.inkscape.org/namespaces/inkscape"
   width="72"
   height="72"
   viewBox="0 0 72 72"
   version="1.1"
   id="svg17"
   sodipodi:docname="magn-cloud-bars.svg"
   style="fill:none"
   inkscape:version="0.92.4 (5da689c313, 2019-01-14)">
  <metadata
     id="metadata21">
    <rdf:RDF>
      <cc:Work
         rdf:about="">
        <dc:format>image/svg+xml</dc:format>
        <dc:type
           rdf:resource="http://purl.org/dc/dcmitype/StillImage" />
        <dc:title></dc:title>
      </cc:Work>
    </rdf:RDF>
  </metadata>
  <sodipodi:namedview
     pagecolor="#ffffff"
     bordercolor="#666666"
     borderopacity="1"
     objecttolerance="10"
     gridtolerance="10"
     guidetolerance="10"
     inkscape:pageopacity="0"
     inkscape:pageshadow="2"
     inkscape:window-width="2560"
     inkscape:window-height="1403"
     id="namedview19"
     showgrid="false"
     inkscape:zoom="3.4705882"
     inkscape:cx="34"
     inkscape:cy="31.694915"
     inkscape:window-x="0"
     inkscape:window-y="0"
     inkscape:window-maximized="1"
     inkscape:current-layer="svg17" />
  <g
     clip-path="url(#clip0)"
     id="g10"
     transform="translate(1.9990846,2)">
    <path
       d="M 61.4208,65.8064 H 59.2273 V 48.2581 H 52.6468 V 65.8064 H 50.4533 V 39.4839 H 43.8728 V 65.8064 H 41.6793 V 43.871 h -0.8281 c 0.5456,-1.7686 0.8281,-3.6057 0.8281,-5.4839 0,-1.6219 -0.229,-3.1889 -0.6211,-4.6901 0.5443,0.181 1.1146,0.303 1.7178,0.303 1.8837,0 3.5466,-0.9556 4.5351,-2.406 l 5.3535,2.2305 c -0.0027,0.059 -0.0178,0.1152 -0.0178,0.1755 0,1.8138 1.4765,3.2903 3.2902,3.2903 1.8138,0 3.2903,-1.4765 3.2903,-3.2903 0,-1.0789 -0.5292,-2.029 -1.3339,-2.6295 l 1.2475,-4.0512 c 0.3866,0.0603 0.7801,0.1014 1.1831,0.1014 4.2321,0 7.6773,-3.4438 7.6773,-7.6774 0,-4.2335 -3.4452,-7.6774 -7.6773,-7.6774 -1.4778,0 -2.8556,0.4277 -4.0292,1.1543 C 55.05,10.577 52.3561,8.77419 49.3565,8.77419 c -0.6073,0 -1.2023,0.06855 -1.7781,0.20565 C 45.8085,3.63718 40.8348,0 35.0987,0 28.1865,0 22.5012,5.35637 21.9775,12.1372 c -0.3757,-0.048 -0.754,-0.0727 -1.1365,-0.0727 -4.8381,0 -8.7741,3.9361 -8.7741,8.7742 0,0.776 0.1029,1.5382 0.3017,2.2786 -4.81753,3.3753 -7.97892,8.9565 -7.97892,15.2698 0,4.6394 1.71368,8.8784 4.52684,12.144 L 0.907494,60.9423 C -0.564896,62.8616 -0.202968,65.62 1.70949,67.0869 2.47448,67.6765 3.42317,68 4.38831,68 5.75925,68 7.02737,67.3762 7.86776,66.2877 L 16.044,55.6586 c 2.162,0.8787 4.5187,1.3737 6.9918,1.3737 1.1078,0 2.2086,-0.1029 3.2903,-0.2962 V 68 H 68.0027 V 32.9032 H 61.4222 Z M 54.8403,50.4516 h 2.1935 v 15.3548 h -2.1935 z m -8.774,-8.7742 h 2.1935 v 24.129 H 46.0663 Z M 31.8085,38.3871 c 0,1.2092 -0.9844,2.1935 -2.1935,2.1935 -1.2092,0 -2.1935,-0.9843 -2.1935,-2.1935 0,-1.2092 0.9843,-2.1935 2.1935,-2.1935 1.2091,0 2.1935,0.9843 2.1935,2.1935 z m 0.5292,-3.4137 C 31.5864,34.3729 30.6487,34 29.615,34 c -2.4197,0 -4.387,1.9673 -4.387,4.3871 0,2.4198 1.9673,4.3871 4.387,4.3871 2.4197,0 4.387,-1.9673 4.387,-4.3871 0,-0.5909 -0.1207,-1.1544 -0.3332,-1.6698 l 1.1571,-0.8679 c 0.1755,0.8185 0.2728,1.6658 0.2728,2.5363 0,6.652 -5.4124,12.0645 -12.0642,12.0645 -6.6518,0 -12.0643,-5.4125 -12.0643,-12.0645 0,-6.6519 5.4125,-12.0645 12.0643,-12.0645 4.9655,0 9.2374,3.0175 11.0854,7.3141 z m 7.148,11.0911 V 65.8064 H 37.2922 V 46.0645 Z M 36.1914,43.871 c 0.706,-1.6891 1.0995,-3.5412 1.0995,-5.4839 0,-1.3751 -0.2057,-2.7008 -0.5717,-3.9594 l 1.8535,-1.3901 c 0.5813,1.6808 0.9117,3.4754 0.9117,5.3495 0,1.8892 -0.3332,3.7263 -0.9556,5.4839 z M 42.776,31.8065 c -1.8137,0 -3.2903,-1.4766 -3.2903,-3.2904 0,-1.8138 1.4766,-3.2903 3.2903,-3.2903 1.8138,0 3.2903,1.4765 3.2903,3.2903 0,1.8138 -1.4765,3.2904 -3.2903,3.2904 z m 13.161,3.2903 c -0.6059,0 -1.0967,-0.4922 -1.0967,-1.0968 0,-0.6046 0.4908,-1.0968 1.0967,-1.0968 0.606,0 1.0968,0.4922 1.0968,1.0968 0,0.6046 -0.4922,1.0968 -1.0968,1.0968 z m 9.8708,-15.3549 c 0,3.0244 -2.4595,5.4839 -5.4838,5.4839 -3.0243,0 -5.4837,-2.4595 -5.4837,-5.4839 0,-3.0243 2.4594,-5.4838 5.4837,-5.4838 3.0243,0 5.4838,2.4595 5.4838,5.4838 z m -51.5474,1.0968 c 0,-3.6289 2.9517,-6.5806 6.5806,-6.5806 0.6457,0 1.2832,0.0904 1.8932,0.2728 l 1.5615,0.4634 -0.159,-1.6219 c -0.0069,-0.074 -0.0055,-0.1398 -0.0055,-0.2111 0,-6.04735 4.9203,-10.96775 10.9675,-10.96775 5.1136,0 9.5007,3.46855 10.6687,8.43285 l 0.2975,1.264 1.1968,-0.5045 c 0.6567,-0.2783 1.3627,-0.4195 2.0962,-0.4195 2.3511,0 4.4391,1.5505 5.1808,3.7441 -1.1736,1.349 -1.8906,3.1066 -1.8906,5.0301 0,3.0586 1.8028,5.6977 4.3967,6.9302 l -1.2476,4.0512 c -0.9076,0.0398 -1.7164,0.4442 -2.2895,1.0762 l -5.3549,-2.2305 c 0.0672,-0.3428 0.107,-0.6924 0.107,-1.0529 0,-3.0244 -2.4595,-5.4839 -5.4838,-5.4839 -2.4128,0 -4.4446,1.5766 -5.1753,3.7482 -3.4191,-4.2815 -8.6739,-7.0372 -14.5662,-7.0372 -3.134,0 -6.0843,0.7856 -8.6781,2.1566 -0.0576,-0.3496 -0.096,-0.7006 -0.096,-1.0598 z M 6.12803,64.9496 C 5.41514,65.8777 3.9784,66.0697 3.04753,65.3485 2.09061,64.6151 1.91239,63.2359 2.64859,62.2776 L 10.4657,52.1173 c 1.0789,0.9885 2.2634,1.8618 3.5507,2.5761 z M 23.0345,54.8387 c -9.0715,0 -16.45131,-7.3799 -16.45131,-16.4516 0,-9.0717 7.37981,-16.4516 16.45131,-16.4516 6.3968,0 11.9381,3.6769 14.6594,9.0223 l -1.7863,1.3395 c -2.2895,-4.819 -7.192,-8.1683 -12.8731,-8.1683 -7.861,0 -14.25781,6.397 -14.25781,14.2581 0,7.8611 6.39681,14.2581 14.25781,14.2581 5.0807,0 9.539,-2.6803 12.0642,-6.6945 v 3.6029 c -1.131,1.2229 -2.4279,2.2621 -3.8688,3.0916 h -4.9052 v 1.8604 c -1.0789,0.2179 -2.1811,0.3331 -3.2902,0.3331 z m 7.6772,10.9677 H 28.5182 V 54.8387 h 2.1935 z m 2.1935,-11.6175 c 0.7705,-0.4826 1.5026,-1.0173 2.1935,-1.6041 V 65.8064 H 32.9052 Z M 63.6143,35.0968 h 2.1935 v 30.7096 h -2.1935 z"
       id="path2"
       inkscape:connector-curvature="0"
       style="fill:#e44960" />
    <path
       d="m 29.6136,15.3549 h 2.1936 v 2.1935 h -2.1936 z"
       id="path4"
       inkscape:connector-curvature="0"
       style="fill:#e44960" />
    <path
       d="m 34.0006,15.3549 h 2.1935 v 2.1935 h -2.1935 z"
       id="path6"
       inkscape:connector-curvature="0"
       style="fill:#e44960" />
    <path
       d="m 38.3877,15.3549 h 2.1935 v 2.1935 h -2.1935 z"
       id="path8"
       inkscape:connector-curvature="0"
       style="fill:#e44960" />
  </g>
  <defs
     id="defs15">
    <clipPath
       id="clip0">
      <rect
         width="68"
         height="68"
         id="rect12"
         x="0"
         y="0"
         style="fill:#ffffff" />
    </clipPath>
  </defs>
</svg>
