<?xml version="1.0" encoding="UTF-8" standalone="no"?>
<svg
   xmlns:dc="http://purl.org/dc/elements/1.1/"
   xmlns:cc="http://creativecommons.org/ns#"
   xmlns:rdf="http://www.w3.org/1999/02/22-rdf-syntax-ns#"
   xmlns:svg="http://www.w3.org/2000/svg"
   xmlns="http://www.w3.org/2000/svg"
   xmlns:sodipodi="http://sodipodi.sourceforge.net/DTD/sodipodi-0.dtd"
   xmlns:inkscape="http://www.inkscape.org/namespaces/inkscape"
   width="96"
   height="96"
   viewBox="0 0 96 96"
   version="1.1"
   id="svg27"
   sodipodi:docname="rocket.svg"
   style="fill:none"
   inkscape:version="0.92.4 (5da689c313, 2019-01-14)">
  <metadata
     id="metadata31">
    <rdf:RDF>
      <cc:Work
         rdf:about="">
        <dc:format>image/svg+xml</dc:format>
        <dc:type
           rdf:resource="http://purl.org/dc/dcmitype/StillImage" />
        <dc:title></dc:title>
      </cc:Work>
    </rdf:RDF>
  </metadata>
  <sodipodi:namedview
     pagecolor="#ffffff"
     bordercolor="#666666"
     borderopacity="1"
     objecttolerance="10"
     gridtolerance="10"
     guidetolerance="10"
     inkscape:pageopacity="0"
     inkscape:pageshadow="2"
     inkscape:window-width="2560"
     inkscape:window-height="1403"
     id="namedview29"
     showgrid="false"
     inkscape:zoom="2.5934066"
     inkscape:cx="45"
     inkscape:cy="42.415254"
     inkscape:window-x="0"
     inkscape:window-y="0"
     inkscape:window-maximized="1"
     inkscape:current-layer="svg27" />
  <g
     clip-path="url(#clip0)"
     id="g20"
     transform="translate(3,2.4997559)">
    <path
       d="m 47.2253,43.2517 c -0.6873,-0.695 -1.8,-0.695 -2.4873,0 -0.6855,0.6931 -0.6855,1.8182 0,2.5131 0.6873,0.6932 1.8,0.6932 2.4873,0 0.6856,-0.6949 0.6856,-1.82 0,-2.5131 z"
       id="path2"
       inkscape:connector-curvature="0"
       style="fill:#e23d55" />
    <path
       d="m 69.5971,20.6296 c -3.4347,-3.4729 -8.9947,-3.4729 -12.4295,0 -3.426,3.464 -3.426,9.1018 0,12.5676 3.4278,3.4623 9.0036,3.464 12.4295,0 3.4348,-3.4729 3.4348,-9.0947 0,-12.5676 z M 67.1116,30.684 c -2.0549,2.0777 -5.4018,2.0777 -7.4584,0 -2.0567,-2.0795 -2.0567,-5.4635 0,-7.5412 2.0601,-2.0831 5.3965,-2.0831 7.4584,0 2.0601,2.083 2.0601,5.4582 0,7.5412 z"
       id="path4"
       inkscape:connector-curvature="0"
       style="fill:#e23d55" />
    <path
       d="M 89.485,0.520845 C 89.1405,0.172485 88.6694,-0.0176903 88.179,0.00186044 87.7817,0.0160792 78.3176,0.399986 67.0694,4.42034 58.0553,7.63911 50.5424,12.246 44.7382,18.1148 c -1.3008,1.3152 -2.5665,2.7104 -3.7776,4.159 -5.7392,-3.4161 -10.3377,-2.3444 -13.2451,-0.7714 -6.6938,3.6222 -10.8369,13.458 -10.8369,20.4928 0,0.718 0.4289,1.3667 1.0863,1.6422 0.218,0.0907 0.4465,0.1351 0.6715,0.1351 0.457,0 0.907,-0.1813 1.2428,-0.5207 3.5297,-3.569 7.8838,-3.3468 9.3076,-3.1566 l 0.6152,0.6221 c -1.2111,2.9148 -2.1867,5.8136 -2.9039,8.6325 -0.2584,1.0202 -0.1705,2.0991 0.2127,3.0873 -1.6928,0.7891 -3.3258,1.9462 -4.7461,3.384 -4.5246,4.5749 -5.4439,15.726 -5.4808,16.197 -0.0405,0.5189 0.1459,1.029 0.5097,1.397 0.3305,0.3341 0.7787,0.5207 1.2428,0.5207 0.0457,0 0.0932,-0.0018 0.1389,-0.0053 0.4675,-0.0373 11.4943,-0.9669 16.0207,-5.5418 1.422,-1.4361 2.5664,-3.0872 3.3468,-4.7988 1.0336,0.4106 2.0989,0.4621 3.0551,0.2133 2.7862,-0.7234 5.6531,-1.7098 8.536,-2.9344 l 0.6152,0.6221 c 0.1863,1.4378 0.4078,5.8403 -3.1219,9.411 -0.5027,0.5083 -0.6521,1.2726 -0.3814,1.9373 0.2724,0.6647 0.9123,1.0966 1.6242,1.0966 6.9574,0 16.6851,-4.1892 20.2658,-10.9573 1.5557,-2.9397 2.6156,-7.5893 -0.7629,-13.3923 1.4326,-1.2246 2.8108,-2.5043 4.1133,-3.8195 C 77.8905,39.8979 82.4467,32.3015 85.6301,23.1873 89.6063,11.8123 89.986,2.24487 90.0001,1.84319 90.0159,1.34731 89.8296,0.869204 89.485,0.520845 Z M 20.8073,38.1703 c 1.0916,-5.3427 4.2627,-11.2061 8.5658,-13.5344 2.8758,-1.5552 6.0188,-1.4042 9.3604,0.4461 -2.8477,3.7857 -5.3227,7.8647 -7.3846,12.173 -0.0264,-0.016 -0.3428,-0.4177 -0.9299,-0.5528 -0.2408,-0.0551 -4.892,-1.0664 -9.6117,1.4681 z m 11.5014,27.7035 c -2.417,2.4438 -8.0877,3.7324 -11.6702,4.2585 0.5204,-3.624 1.7948,-9.3559 4.2118,-11.7998 1.3535,-1.3685 2.9232,-2.4065 4.5,-2.9913 l 5.915,5.9808 c -0.5766,1.5961 -1.6031,3.1832 -2.9566,4.5518 z m 8.0138,-5.5151 c -0.508,0.1315 -1.0986,-0.0622 -1.5363,-0.503 -2.2746,-2.2999 -3.1641,-3.1992 -3.4436,-3.48 C 34.8311,55.8585 33.576,54.5894 30.8022,51.7848 30.3645,51.3404 30.1729,50.745 30.303,50.2314 30.8655,48.015 31.602,45.74 32.4985,43.4437 l 14.5371,14.6986 c -2.2728,0.9029 -4.5211,1.6476 -6.7131,2.2164 z m 25.3125,0.9402 c -2.3027,4.3509 -8.1017,7.5573 -13.3857,8.661 1.684,-3.2063 2.0566,-7.2871 1.4414,-9.7612 -0.1424,-0.5741 -0.5133,-0.8638 -0.5344,-0.8975 4.2592,-2.0866 8.2934,-4.5891 12.0393,-7.4684 1.8281,3.3805 1.9793,6.5601 0.4394,9.4661 z m 3.9639,-18.0471 c -1.5838,1.6013 -3.2889,3.1476 -5.0695,4.5979 -4.2785,3.4836 -8.9877,6.434 -14.0133,8.7837 L 33.9891,39.9228 c 2.3239,-5.0814 5.2418,-9.8429 8.6871,-14.169 1.4344,-1.8005 2.9655,-3.5263 4.5475,-5.1259 5.2066,-5.2662 11.9285,-9.4554 19.9811,-12.47336 L 81.9335,23.0469 c -2.983,8.1438 -7.1262,14.9386 -12.3346,20.2049 z M 83.1991,19.3003 70.912,6.87663 C 77.6057,4.77403 83.4294,3.98667 86.3368,3.70407 86.0573,6.6438 85.2786,12.5321 83.1991,19.3003 Z"
       id="path6"
       inkscape:connector-curvature="0"
       style="fill:#e23d55" />
    <path
       d="m 42.2525,73.4132 c -0.6873,-0.6932 -1.8,-0.6932 -2.4855,0 l -4.9711,5.0281 c -0.6855,0.6949 -0.6855,1.82 0,2.5132 0.6873,0.6931 1.8,0.6931 2.4855,0 l 4.9711,-5.0282 c 0.6873,-0.6931 0.6856,-1.82 0,-2.5131 z"
       id="path8"
       inkscape:connector-curvature="0"
       style="fill:#e23d55" />
    <path
       d="m 17.3936,48.278 c -0.6856,-0.6949 -1.8,-0.6949 -2.4856,0 l -4.97284,5.0264 c -0.68731,0.6931 -0.68731,1.82 0,2.5131 0.68554,0.6932 1.79824,0.695 2.48554,0 l 4.9729,-5.0263 c 0.6873,-0.6932 0.6873,-1.8182 0,-2.5132 z"
       id="path10"
       inkscape:connector-curvature="0"
       style="fill:#e23d55" />
    <path
       d="m 29.823,75.9283 c -0.6855,-0.6931 -1.8,-0.6931 -2.4855,0 L 15.43,87.9663 c -0.6873,0.6931 -0.6873,1.82 0,2.5132 0.6856,0.6949 1.8,0.6949 2.4856,0 L 29.823,78.4415 c 0.6873,-0.6932 0.6873,-1.8182 0,-2.5132 z"
       id="path12"
       inkscape:connector-curvature="0"
       style="fill:#e23d55" />
    <path
       d="m 15.7605,75.9283 c -0.6855,-0.6931 -1.8,-0.6931 -2.4855,0 L 1.36753,87.9663 c -0.687305,0.6931 -0.687305,1.82 0,2.5132 0.68555,0.6949 1.8,0.6949 2.48555,0 L 15.7605,78.4415 c 0.6873,-0.6932 0.6873,-1.8182 0,-2.5132 z"
       id="path14"
       inkscape:connector-curvature="0"
       style="fill:#e23d55" />
    <path
       d="m 14.9062,60.8456 c -0.6855,-0.6932 -1.8,-0.6932 -2.4855,0 L 0.51499,72.8853 c -0.687304,0.6949 -0.687304,1.82 0,2.5131 0.6873,0.6932 1.8,0.6932 2.48555,0 L 14.9062,63.3587 c 0.6873,-0.6931 0.6873,-1.82 0,-2.5131 z"
       id="path16"
       inkscape:connector-curvature="0"
       style="fill:#e23d55" />
    <path
       d="m 54.682,35.7103 c -0.6873,-0.6932 -1.8,-0.6932 -2.4855,0 l -2.4856,2.5132 c -0.6855,0.6931 -0.6855,1.82 0,2.5131 0.6873,0.6932 1.8,0.6932 2.4856,0 l 2.4855,-2.5131 c 0.6873,-0.6932 0.6873,-1.8183 0,-2.5132 z"
       id="path18"
       inkscape:connector-curvature="0"
       style="fill:#e23d55" />
  </g>
  <defs
     id="defs25">
    <clipPath
       id="clip0">
      <rect
         width="90"
         height="91"
         id="rect22"
         x="0"
         y="0"
         style="fill:#ffffff" />
    </clipPath>
  </defs>
</svg>
