<?xml version="1.0" encoding="UTF-8" standalone="no"?>
<svg
   xmlns:dc="http://purl.org/dc/elements/1.1/"
   xmlns:cc="http://creativecommons.org/ns#"
   xmlns:rdf="http://www.w3.org/1999/02/22-rdf-syntax-ns#"
   xmlns:svg="http://www.w3.org/2000/svg"
   xmlns="http://www.w3.org/2000/svg"
   xmlns:sodipodi="http://sodipodi.sourceforge.net/DTD/sodipodi-0.dtd"
   xmlns:inkscape="http://www.inkscape.org/namespaces/inkscape"
   aria-hidden="true"
   focusable="false"
   data-prefix="fad"
   data-icon="sliders-h"
   class="svg-inline--fa fa-sliders-h fa-w-16"
   role="img"
   viewBox="0 0 512 512"
   version="1.1"
   id="svg8"
   sodipodi:docname="sliders-h-duotone.svg"
   inkscape:version="0.92.4 (5da689c313, 2019-01-14)">
  <metadata
     id="metadata14">
    <rdf:RDF>
      <cc:Work
         rdf:about="">
        <dc:format>image/svg+xml</dc:format>
        <dc:type
           rdf:resource="http://purl.org/dc/dcmitype/StillImage" />
      </cc:Work>
    </rdf:RDF>
  </metadata>
  <defs
     id="defs12" />
  <sodipodi:namedview
     pagecolor="#ffffff"
     bordercolor="#666666"
     borderopacity="1"
     objecttolerance="10"
     gridtolerance="10"
     guidetolerance="10"
     inkscape:pageopacity="0"
     inkscape:pageshadow="2"
     inkscape:window-width="1920"
     inkscape:window-height="1019"
     id="namedview10"
     showgrid="false"
     inkscape:zoom="0.4609375"
     inkscape:cx="256"
     inkscape:cy="238.64407"
     inkscape:window-x="0"
     inkscape:window-y="24"
     inkscape:window-maximized="1"
     inkscape:current-layer="svg8" />
  <g
     class="fa-group"
     id="g6"
     style="fill:#ffffff;fill-opacity:1">
    <path
       class="fa-secondary"
       d="M 496,64 H 288 v 64 h 208 a 16,16 0 0 0 16,-16 V 80 A 16,16 0 0 0 496,64 Z M 16,128 H 192 V 64 H 16 A 16,16 0 0 0 0,80 v 32 a 16,16 0 0 0 16,16 z m 0,160 H 320 V 224 H 16 A 16,16 0 0 0 0,240 v 32 a 16,16 0 0 0 16,16 z m 480,-64 h -80 v 64 h 80 a 16,16 0 0 0 16,-16 v -32 a 16,16 0 0 0 -16,-16 z m 0,160 H 160 v 64 h 336 a 16,16 0 0 0 16,-16 V 400 A 16,16 0 0 0 496,384 Z M 0,400 v 32 a 16,16 0 0 0 16,16 H 64 V 384 H 16 A 16,16 0 0 0 0,400 Z"
       id="path2"
       inkscape:connector-curvature="0"
       style="opacity:0.4;fill:#ffffff;fill-opacity:1" />
    <path
       class="fa-primary"
       d="m 272,32 h -32 a 16,16 0 0 0 -16,16 v 96 a 16,16 0 0 0 16,16 h 32 a 16,16 0 0 0 16,-16 V 48 A 16,16 0 0 0 272,32 Z m 128,160 h -32 a 16,16 0 0 0 -16,16 v 96 a 16,16 0 0 0 16,16 h 32 a 16,16 0 0 0 16,-16 V 208 A 16,16 0 0 0 400,192 Z M 144,352 h -32 a 16,16 0 0 0 -16,16 v 96 a 16,16 0 0 0 16,16 h 32 a 16,16 0 0 0 16,-16 v -96 a 16,16 0 0 0 -16,-16 z"
       id="path4"
       inkscape:connector-curvature="0"
       style="fill:#ffffff;fill-opacity:1" />
  </g>
</svg>
