<?xml version="1.0" encoding="UTF-8" standalone="no"?>
<svg
   xmlns:dc="http://purl.org/dc/elements/1.1/"
   xmlns:cc="http://creativecommons.org/ns#"
   xmlns:rdf="http://www.w3.org/1999/02/22-rdf-syntax-ns#"
   xmlns:svg="http://www.w3.org/2000/svg"
   xmlns="http://www.w3.org/2000/svg"
   xmlns:sodipodi="http://sodipodi.sourceforge.net/DTD/sodipodi-0.dtd"
   xmlns:inkscape="http://www.inkscape.org/namespaces/inkscape"
   width="72"
   height="72"
   viewBox="0 0 72 72"
   version="1.1"
   id="svg20"
   sodipodi:docname="speed-clock.svg"
   style="fill:none"
   inkscape:version="0.92.4 (5da689c313, 2019-01-14)">
  <metadata
     id="metadata26">
    <rdf:RDF>
      <cc:Work
         rdf:about="">
        <dc:format>image/svg+xml</dc:format>
        <dc:type
           rdf:resource="http://purl.org/dc/dcmitype/StillImage" />
        <dc:title></dc:title>
      </cc:Work>
    </rdf:RDF>
  </metadata>
  <defs
     id="defs24" />
  <sodipodi:namedview
     pagecolor="#ffffff"
     bordercolor="#666666"
     borderopacity="1"
     objecttolerance="10"
     gridtolerance="10"
     guidetolerance="10"
     inkscape:pageopacity="0"
     inkscape:pageshadow="2"
     inkscape:window-width="2560"
     inkscape:window-height="1403"
     id="namedview22"
     showgrid="false"
     inkscape:zoom="3.5757576"
     inkscape:cx="34"
     inkscape:cy="30.762712"
     inkscape:window-x="0"
     inkscape:window-y="0"
     inkscape:window-maximized="1"
     inkscape:current-layer="svg20" />
  <g
     id="g842"
     transform="translate(2.0000191,-3)">
    <path
       style="fill:#e23d55"
       inkscape:connector-curvature="0"
       id="path2"
       d="M 67.8685,42.1759 C 67.2576,35.9664 64.515,30.1128 60.1428,25.692 56.4068,21.9145 51.8341,19.4879 47.0236,18.4082 v -3.41223 c 1.9656,-0.49418 3.4252,-2.2923 3.4252,-4.43017 C 50.4488,8.0479 48.4234,6 45.9332,6 h -9.5625 c -2.4902,0 -4.5156,2.0479 -4.5156,4.5658 0,2.13787 1.4609,3.93599 3.4252,4.43017 v 3.42163 c -4.7972,1.0837 -9.354,3.5076 -13.0794,7.2744 -0.8154,0.8246 -1.5672,1.6894 -2.2551,2.5878 -0.0332,-0.0027 -0.0664,-0.0054 -0.101,-0.0054 H 10.382 c -0.73317,0 -1.32817,0.6016 -1.32817,1.3429 0,0.7412 0.595,1.3429 1.32817,1.3429 h 7.7575 c -0.9735,1.649 -1.7584,3.38 -2.3561,5.162 H 1.32812 C 0.595,36.1222 0,36.7238 0,37.4651 0,38.2064 0.595,38.808 1.32812,38.808 H 15.033 c -0.3825,1.6987 -0.6029,3.4283 -0.6587,5.162 H 8.5 c -0.73313,0 -1.32812,0.6016 -1.32812,1.3429 0,0.7413 0.59499,1.3429 1.32812,1.3429 h 5.9155 c 0.1115,1.7377 0.3891,3.4673 0.8287,5.162 H 6.64062 c -0.73312,0 -1.32812,0.6016 -1.32812,1.3429 0,0.7413 0.595,1.3429 1.32812,1.3429 h 9.45228 c 1.3029,3.4848 3.3389,6.7506 6.1094,9.5519 4.3761,4.4248 10.1707,7.1992 16.3186,7.8129 0.8779,0.0873 1.7558,0.1316 2.6324,0.1316 5.1823,0 10.2996,-1.5161 14.6412,-4.3751 0.615,-0.4042 0.7889,-1.2368 0.3878,-1.8586 -0.3997,-0.6217 -1.2232,-0.7976 -1.8381,-0.3921 -9.504,6.2578 -22.2315,4.9042 -30.264,-3.2175 -9.4243,-9.5291 -9.4243,-25.0354 0,-34.5645 9.4244,-9.5291 24.7603,-9.5291 34.1846,0 8.0219,8.111 9.3673,20.9691 3.1995,30.5748 -0.3998,0.6217 -0.2245,1.4543 0.3905,1.8572 0.6149,0.4042 1.4383,0.2269 1.8368,-0.3948 3.295,-5.1325 4.7799,-11.3313 4.1769,-17.4535 z M 34.5113,10.5658 c 0,-1.0367 0.8341,-1.88003 1.8594,-1.88003 h 9.5625 c 1.0253,0 1.8594,0.84333 1.8594,1.88003 0,1.03671 -0.8341,1.88004 -1.8594,1.88004 H 45.6955 36.6098 36.372 c -1.0266,0 -1.8607,-0.84333 -1.8607,-1.88004 z m 3.4266,7.3912 v -2.8254 h 6.4294 v 2.8201 c -2.1356,-0.2565 -4.2951,-0.2552 -6.4294,0.0053 z" />
    <path
       style="fill:#e23d55"
       inkscape:connector-curvature="0"
       id="path4"
       d="m 59.2052,61.7618 c -0.3506,0 -0.692,0.1437 -0.939,0.3935 -0.2483,0.2498 -0.3891,0.5962 -0.3891,0.9494 0,0.3532 0.1408,0.6997 0.3891,0.9494 0.247,0.2512 0.5884,0.3935 0.939,0.3935 0.3493,0 0.6906,-0.1423 0.939,-0.3935 0.247,-0.2497 0.3891,-0.5962 0.3891,-0.9494 0,-0.3532 -0.1421,-0.6996 -0.3891,-0.9494 -0.2484,-0.2498 -0.5897,-0.3935 -0.939,-0.3935 z" />
    <path
       style="fill:#e23d55"
       inkscape:connector-curvature="0"
       id="path6"
       d="m 41.1733,24.0416 c -11.3608,0 -20.6032,9.3451 -20.6032,20.8322 0,11.487 9.2424,20.8321 20.6032,20.8321 11.3608,0 20.6032,-9.3451 20.6032,-20.8321 0,-11.4871 -9.2424,-20.8322 -20.6032,-20.8322 z m 0,38.9785 c -9.8959,0 -17.947,-8.1405 -17.947,-18.1463 0,-10.0059 8.0511,-18.1464 17.947,-18.1464 9.8958,0 17.9469,8.1405 17.9469,18.1464 0,10.0058 -8.0511,18.1463 -17.9469,18.1463 z" />
    <path
       style="fill:#e23d55"
       inkscape:connector-curvature="0"
       id="path8"
       d="m 49.5736,34.4798 -6.5782,6.6513 c -0.5498,-0.2753 -1.1688,-0.431 -1.8235,-0.431 -0.6548,0 -1.2724,0.1557 -1.8235,0.431 L 36.4039,38.154 c -0.5193,-0.5251 -1.36,-0.5251 -1.878,0 -0.5192,0.525 -0.5192,1.3751 0,1.8988 l 2.9445,2.9772 c -0.2723,0.5559 -0.4263,1.1817 -0.4263,1.8437 0,2.3004 1.8514,4.1724 4.1265,4.1724 2.2764,0 4.1264,-1.872 4.1264,-4.1724 0,-0.662 -0.154,-1.2864 -0.4263,-1.8437 l 6.3856,-6.4566 0.1926,-0.1947 c 0.5193,-0.5251 0.5193,-1.3751 0,-1.8989 -0.5193,-0.5237 -1.356,-0.5237 -1.8753,0 z m -8.4004,11.8805 c -0.8115,0 -1.4702,-0.6674 -1.4702,-1.4866 0,-0.8191 0.6601,-1.4865 1.4702,-1.4865 0.8102,0 1.4702,0.6674 1.4702,1.4865 0,0.8192 -0.66,1.4866 -1.4702,1.4866 z" />
    <path
       style="fill:#e23d55"
       inkscape:connector-curvature="0"
       id="path10"
       d="m 55.3735,43.547 h -1.2312 c -0.7331,0 -1.3281,0.6016 -1.3281,1.3429 0,0.7412 0.595,1.3429 1.3281,1.3429 h 1.2312 c 0.7331,0 1.3281,-0.6017 1.3281,-1.3429 0,-0.7413 -0.595,-1.3429 -1.3281,-1.3429 z" />
    <path
       style="fill:#e23d55"
       inkscape:connector-curvature="0"
       id="path12"
       d="m 28.2027,43.5148 h -1.2298 c -0.7331,0 -1.3281,0.6016 -1.3281,1.3429 0,0.7412 0.595,1.3428 1.3281,1.3428 h 1.2298 c 0.7332,0 1.3282,-0.6016 1.3282,-1.3428 0,-0.7413 -0.595,-1.3429 -1.3282,-1.3429 z" />
    <path
       style="fill:#e23d55"
       inkscape:connector-curvature="0"
       id="path14"
       d="m 41.1891,33.102 c 0.7331,0 1.3281,-0.6016 1.3281,-1.3429 v -1.2435 c 0,-0.7413 -0.595,-1.3429 -1.3281,-1.3429 -0.7331,0 -1.3281,0.6016 -1.3281,1.3429 v 1.2435 c 0,0.7426 0.595,1.3429 1.3281,1.3429 z" />
    <path
       style="fill:#e23d55"
       inkscape:connector-curvature="0"
       id="path16"
       d="m 41.1559,56.6455 c -0.7331,0 -1.3281,0.6016 -1.3281,1.3429 v 1.2435 c 0,0.7413 0.595,1.3429 1.3281,1.3429 0.7331,0 1.3281,-0.6016 1.3281,-1.3429 v -1.2435 c 0,-0.7426 -0.5937,-1.3429 -1.3281,-1.3429 z" />
    <path
       style="fill:#e23d55"
       inkscape:connector-curvature="0"
       id="path18"
       d="m 1.32812,51.8165 c -0.349292,0 -0.691948,0.1437 -0.938979,0.3935 C 0.142109,52.4598 0,52.8062 0,53.1594 c 0,0.3545 0.142109,0.6997 0.389141,0.9494 0.247031,0.2498 0.589687,0.3935 0.938979,0.3935 0.3493,0 0.69196,-0.1437 0.93899,-0.3935 0.24703,-0.2497 0.38914,-0.5962 0.38914,-0.9494 0,-0.3532 -0.14211,-0.6996 -0.38914,-0.9494 C 2.02008,51.9602 1.67742,51.8165 1.32812,51.8165 Z" />
  </g>
</svg>
