<?xml version="1.0" encoding="UTF-8" standalone="no"?>
<svg
   xmlns:dc="http://purl.org/dc/elements/1.1/"
   xmlns:cc="http://creativecommons.org/ns#"
   xmlns:rdf="http://www.w3.org/1999/02/22-rdf-syntax-ns#"
   xmlns:svg="http://www.w3.org/2000/svg"
   xmlns="http://www.w3.org/2000/svg"
   xmlns:sodipodi="http://sodipodi.sourceforge.net/DTD/sodipodi-0.dtd"
   xmlns:inkscape="http://www.inkscape.org/namespaces/inkscape"
   aria-hidden="true"
   focusable="false"
   data-prefix="fad"
   data-icon="yin-yang"
   class="svg-inline--fa fa-yin-yang fa-w-16"
   role="img"
   viewBox="0 0 496 512"
   version="1.1"
   id="svg8"
   sodipodi:docname="yin-yang-duotone.svg"
   inkscape:version="0.92.4 (5da689c313, 2019-01-14)">
  <metadata
     id="metadata14">
    <rdf:RDF>
      <cc:Work
         rdf:about="">
        <dc:format>image/svg+xml</dc:format>
        <dc:type
           rdf:resource="http://purl.org/dc/dcmitype/StillImage" />
      </cc:Work>
    </rdf:RDF>
  </metadata>
  <defs
     id="defs12" />
  <sodipodi:namedview
     pagecolor="#ffffff"
     bordercolor="#666666"
     borderopacity="1"
     objecttolerance="10"
     gridtolerance="10"
     guidetolerance="10"
     inkscape:pageopacity="0"
     inkscape:pageshadow="2"
     inkscape:window-width="1920"
     inkscape:window-height="1019"
     id="namedview10"
     showgrid="false"
     inkscape:zoom="0.4609375"
     inkscape:cx="248"
     inkscape:cy="238.64407"
     inkscape:window-x="0"
     inkscape:window-y="24"
     inkscape:window-maximized="1"
     inkscape:current-layer="svg8" />
  <g
     class="fa-group"
     id="g6"
     style="fill:#ffffff;fill-opacity:1">
    <path
       class="fa-secondary"
       d="M 248,8 C 111,8 0,119 0,256 0,393 111,504 248,504 a 124,124 0 0 1 0,-248 124,124 0 0 0 0,-248 z m 0,152 a 32,32 0 1 1 32,-32 32,32 0 0 1 -32,32 z m 0,192 a 32,32 0 1 0 32,32 32,32 0 0 0 -32,-32 z"
       id="path2"
       inkscape:connector-curvature="0"
       style="opacity:0.4;fill:#ffffff;fill-opacity:1" />
    <path
       class="fa-primary"
       d="m 248,160 a 32,32 0 1 0 -32,-32 32,32 0 0 0 32,32 z M 248,8 a 124,124 0 0 1 0,248 124,124 0 0 0 0,248 C 385,504 496,393 496,256 496,119 385,8 248,8 Z m 0,408 a 32,32 0 1 1 32,-32 32,32 0 0 1 -32,32 z"
       id="path4"
       inkscape:connector-curvature="0"
       style="fill:#ffffff;fill-opacity:1" />
  </g>
</svg>
