<?xml version="1.0" encoding="UTF-8" standalone="no"?>
<!-- Generator: Adobe Illustrator 23.0.4, SVG Export Plug-In . SVG Version: 6.00 Build 0)  -->

<svg
   xmlns:dc="http://purl.org/dc/elements/1.1/"
   xmlns:cc="http://creativecommons.org/ns#"
   xmlns:rdf="http://www.w3.org/1999/02/22-rdf-syntax-ns#"
   xmlns:svg="http://www.w3.org/2000/svg"
   xmlns="http://www.w3.org/2000/svg"
   xmlns:sodipodi="http://sodipodi.sourceforge.net/DTD/sodipodi-0.dtd"
   xmlns:inkscape="http://www.inkscape.org/namespaces/inkscape"
   version="1.1"
   id="Calque_1"
   x="0px"
   y="0px"
   viewBox="0 0 127.99999 128"
   xml:space="preserve"
   sodipodi:docname="kuartz-logo.svg"
   width="128"
   height="128"
   inkscape:version="0.92.4 (5da689c313, 2019-01-14)"><metadata
   id="metadata29"><rdf:RDF><cc:Work
       rdf:about=""><dc:format>image/svg+xml</dc:format><dc:type
         rdf:resource="http://purl.org/dc/dcmitype/StillImage" /><dc:title></dc:title></cc:Work></rdf:RDF></metadata><defs
   id="defs27" /><sodipodi:namedview
   pagecolor="#ffffff"
   bordercolor="#666666"
   borderopacity="1"
   objecttolerance="10"
   gridtolerance="10"
   guidetolerance="10"
   inkscape:pageopacity="0"
   inkscape:pageshadow="2"
   inkscape:window-width="1920"
   inkscape:window-height="1019"
   id="namedview25"
   showgrid="false"
   fit-margin-top="24"
   fit-margin-left="24"
   fit-margin-bottom="24"
   fit-margin-right="24"
   inkscape:zoom="1.5857387"
   inkscape:cx="176.33947"
   inkscape:cy="41.937454"
   inkscape:window-x="0"
   inkscape:window-y="24"
   inkscape:window-maximized="1"
   inkscape:current-layer="g22" />
<style
   type="text/css"
   id="style2">
	.st0{fill:#22234C;}
	.st1{fill:#E23D55;}
</style>
<g
   id="g22"
   transform="translate(-89.276905,-367.82)">
	
	
	<g
   id="g33"
   transform="translate(-15.641547,-5.7449149)"><path
     style="fill:#22234c"
     inkscape:connector-curvature="0"
     id="path18"
     d="m 196.19,433.38 25.19,-27.11 c 0.45,-0.48 0.57,-1.19 0.31,-1.8 -0.27,-0.61 -0.87,-1 -1.54,-1 h -12.52 c -0.47,0 -0.93,0.2 -1.25,0.55 l -33.13,36.74 c -0.27,0.31 -0.49,0.94 0.05,1.57 0,0 5.87,5.87 6.37,6.35 0.74,0.68 1.26,0.63 2.04,-0.11 l 5.75,-5.91 21.38,28.35 c 0.32,0.42 0.82,0.67 1.34,0.67 h 12.62 c 0.02,-0.01 0.05,-0.01 0.08,0 0.93,0 1.68,-0.75 1.68,-1.67 0,-0.56 -0.28,-1.07 -0.69,-1.37 z"
     class="st0" /><path
     style="fill:#e23d55"
     inkscape:connector-curvature="0"
     id="path20"
     d="m 171.58,456.5 c -0.48,-0.53 -6.09,-6.68 -6.5,-7.13 -0.41,-0.44 -1.08,-0.54 -1.64,-0.01 -0.56,0.53 -7.42,7.06 -7.42,7.06 l -28.65,-27.24 11.31,-13.48 h 34.68 c 0,0 2.45,3.04 2.95,3.54 0.71,0.71 1.4,0.54 2.01,-0.09 0.41,-0.43 5.9,-6.37 6.21,-6.82 0.66,-0.96 0.74,-1.2 0.02,-2.1 -0.47,-0.59 -4.31,-5.09 -4.31,-5.09 -1.08,-0.89 -1.63,-1.49 -2.86,-1.73 -1.05,-0.11 -1.2,-0.11 -1.33,-0.09 h -40.06 c -0.13,-0.01 -0.28,-0.02 -1.33,0.09 -1.23,0.24 -1.79,0.84 -2.86,1.73 l -16.62,19.61 c -1.07,1.37 -1.89,2.84 -1.9,4.47 -0.06,1.67 0.76,3.22 1.79,4.61 0,0 34.42,33.29 38.3,36.88 l -0.01,0.03 c 0.15,0.16 0.46,0.41 0.88,0.63 0.48,0.28 0.95,0.41 1.4,0.43 0.07,0 0.13,0.02 0.2,0.02 0.07,0 0.12,-0.01 0.19,-0.02 0.06,0 0.12,0.02 0.19,0.02 0.07,0 0.13,-0.01 0.2,-0.02 0.45,-0.02 0.92,-0.15 1.4,-0.43 0.41,-0.22 0.73,-0.47 0.88,-0.63 l -0.01,-0.03 c 1.39,-1.29 6.75,-6.49 13.02,-12.54 0.61,-0.7 0.35,-1.13 -0.13,-1.67 z"
     class="st1" /></g>
</g>
</svg>