<svg width="471" height="315" viewBox="0 0 471 315" fill="none" xmlns="http://www.w3.org/2000/svg">
<g clip-path="url(#clip0)">
<path d="M456.786 8.25732H16.3977V302.208H456.786V8.25732Z" fill="white"/>
<path d="M452.437 33.5709V297.825H42.5586V315H471.001V33.5709H452.437Z" fill="#DDDEE3"/>
<path d="M456.786 8.25732H16.3977V302.208H456.786V8.25732Z" fill="#F9F9FF"/>
<path d="M456.786 16.4979H16.3977V7.96976C16.3977 3.57032 19.9682 0 24.3678 0H456.786V16.4979Z" fill="#3E406B"/>
<path d="M316.284 95.4172H234.231V156.942H316.284V95.4172Z" fill="#E0DDF0"/>
<path d="M234.856 234.134H315.641V173.879H234.856V234.134ZM316.927 235.404H233.604V172.61H316.927V235.404Z" fill="#E6E8E8"/>
<path d="M414.16 235.404H412.248V234.135H412.891V233.492H414.16V235.404Z" fill="#E6E8E8"/>
<path d="M335.305 235.404H337.877V234.135H335.305V235.404ZM340.432 235.404H343.004V234.135H340.432V235.404ZM345.56 235.404H348.132V234.135H345.56V235.404ZM350.687 235.404H353.259V234.135H350.687V235.404ZM355.814 235.404H358.386V234.135H355.814V235.404ZM360.958 235.404H363.53V234.135H360.958V235.404ZM366.086 235.404H368.658V234.135H366.086V235.404ZM371.213 235.404H373.785V234.135H371.213V235.404ZM376.34 235.404H378.912V234.135H376.34V235.404ZM381.467 235.404H384.04V234.135H381.467V235.404ZM386.595 235.404H389.167V234.135H386.595V235.404ZM391.739 235.404H394.311V234.135H391.739V235.404ZM396.866 235.404H399.438V234.135H396.866V235.404ZM401.994 235.404H404.566V234.135H401.994V235.404ZM407.121 235.404H409.693V234.135H407.121V235.404Z" fill="#E6E8E8"/>
<path d="M332.732 235.404H330.82V233.492H332.089V234.135H332.732V235.404Z" fill="#E6E8E8"/>
<path d="M330.82 230.937H332.089V228.365H330.82V230.937ZM330.82 225.81H332.089V223.238H330.82V225.81ZM330.82 220.683H332.089V218.111H330.82V220.683ZM330.82 215.556H332.089V212.984H330.82V215.556ZM330.82 210.412H332.089V207.84H330.82V210.412ZM330.82 205.285H332.089V202.713H330.82V205.285ZM330.82 200.158H332.089V197.586H330.82V200.158ZM330.82 195.031H332.089V192.459H330.82V195.031ZM330.82 189.903H332.089V187.331H330.82V189.903ZM330.82 184.776H332.089V182.204H330.82V184.776ZM330.82 179.649H332.089V177.077H330.82V179.649Z" fill="#E6E8E8"/>
<path d="M332.089 174.505H330.82V172.61H332.732V173.879H332.089V174.505Z" fill="#E6E8E8"/>
<path d="M335.305 173.879H337.877V172.61H335.305V173.879ZM340.432 173.879H343.004V172.61H340.432V173.879ZM345.56 173.879H348.132V172.61H345.56V173.879ZM350.687 173.879H353.259V172.61H350.687V173.879ZM355.814 173.879H358.386V172.61H355.814V173.879ZM360.958 173.879H363.53V172.61H360.958V173.879ZM366.086 173.879H368.658V172.61H366.086V173.879ZM371.213 173.879H373.785V172.61H371.213V173.879ZM376.34 173.879H378.912V172.61H376.34V173.879ZM381.467 173.879H384.04V172.61H381.467V173.879ZM386.595 173.879H389.167V172.61H386.595V173.879ZM391.739 173.879H394.311V172.61H391.739V173.879ZM396.866 173.879H399.438V172.61H396.866V173.879ZM401.994 173.879H404.566V172.61H401.994V173.879ZM407.121 173.879H409.693V172.61H407.121V173.879Z" fill="#E6E8E8"/>
<path d="M414.16 174.505H412.891V173.879H412.248V172.61H414.16V174.505Z" fill="#E6E8E8"/>
<path d="M412.891 230.937H414.16V228.365H412.891V230.937ZM412.891 225.81H414.16V223.238H412.891V225.81ZM412.891 220.683H414.16V218.111H412.891V220.683ZM412.891 215.556H414.16V212.984H412.891V215.556ZM412.891 210.412H414.16V207.84H412.891V210.412ZM412.891 205.285H414.16V202.713H412.891V205.285ZM412.891 200.158H414.16V197.586H412.891V200.158ZM412.891 195.031H414.16V192.459H412.891V195.031ZM412.891 189.903H414.16V187.331H412.891V189.903ZM412.891 184.776H414.16V182.204H412.891V184.776ZM412.891 179.649H414.16V177.077H412.891V179.649Z" fill="#E6E8E8"/>
<path d="M145.611 37.9705H63.5576V76.8547H145.611V37.9705Z" fill="#E0DDF0"/>
<g clip-path="url(#clip1)">
<path d="M99.2317 55.7677H97.7425C97.5991 55.7677 97.4785 55.8899 97.4785 56.0354V60.4816C97.4785 61.5233 96.8243 62.2217 95.8516 62.2217C95.3323 62.2217 94.6379 62.0704 94.6379 60.7522V56.0354C94.6379 55.8899 94.5202 55.7677 94.3768 55.7677H92.8876C92.7441 55.7677 92.6265 55.8899 92.6265 56.0354V61.0345C92.6265 62.8997 93.7484 64.1014 95.4843 64.1014C96.2677 64.1014 96.9506 63.8512 97.4958 63.3681V63.7028C97.4958 63.8483 97.6134 63.9676 97.7569 63.9676H99.2317C99.3781 63.9676 99.4957 63.8483 99.4957 63.7028V56.0354C99.4928 55.8899 99.3752 55.7677 99.2317 55.7677Z" fill="#22234C"/>
<path d="M105.378 55.6193C103.8 55.6193 101.958 56.3467 101.958 58.3981C101.958 58.5436 102.075 58.6629 102.219 58.6629H103.593C103.737 58.6629 103.854 58.5436 103.854 58.3981C103.854 58.1217 103.854 57.2866 105.453 57.2866C106.709 57.2866 106.87 57.8976 106.87 58.4301V58.7211C105.559 58.692 104.425 58.8637 103.57 59.2507C102.44 59.7774 101.869 60.595 101.869 61.6833C101.869 63.1499 102.948 64.1334 104.552 64.1334C105.447 64.1334 106.225 63.8569 106.87 63.3128V63.6998C106.87 63.8453 106.991 63.9646 107.134 63.9646H108.491C108.638 63.9646 108.752 63.8453 108.752 63.6998V58.5203C108.755 56.7017 107.493 55.6193 105.378 55.6193ZM106.87 60.2342V61.3458C106.428 62.0209 105.748 62.4166 104.996 62.4224C104.681 62.4224 103.941 62.338 103.941 61.564C103.941 61.0577 104.334 60.7522 104.667 60.5892C105.128 60.3535 105.783 60.2255 106.514 60.2255C106.632 60.2226 106.753 60.2255 106.87 60.2342Z" fill="#22234C"/>
<path d="M115.653 55.7794C115.343 55.6921 115.073 55.6514 114.832 55.6514C114.25 55.6514 113.719 55.8696 113.309 56.2653V56.0355C113.309 55.89 113.194 55.7678 113.048 55.7678H111.587C111.444 55.7678 111.323 55.89 111.323 56.0355V63.7028C111.323 63.8483 111.441 63.9676 111.587 63.9676H113.079C113.223 63.9676 113.34 63.8483 113.34 63.7028V59.3294C113.34 58.4535 113.759 57.5718 114.7 57.5718C114.878 57.5718 115.068 57.6068 115.3 57.6795C115.326 57.6853 115.355 57.6911 115.378 57.6911H115.584C115.728 57.6911 115.845 57.5718 115.845 57.4264V56.0355C115.845 55.9162 115.768 55.8085 115.653 55.7794Z" fill="#22234C"/>
<path d="M121.535 55.7677H120.04V54.2692C120.04 54.1237 119.922 54.0044 119.776 54.0044H118.298C118.155 54.0044 118.037 54.1237 118.037 54.2692V55.7707H117.194C117.047 55.7707 116.933 55.8929 116.933 56.0384V57.1703C116.933 57.3158 117.05 57.4351 117.194 57.4351H118.037V61.6892C118.037 63.179 118.78 63.9618 120.189 63.9618H121.532C121.676 63.9618 121.796 63.8425 121.796 63.697V62.4836C121.796 62.3352 121.676 62.2188 121.532 62.2188H120.749C120.215 62.2188 120.037 62.0908 120.037 61.3459V57.438H121.532C121.676 57.438 121.796 57.3187 121.796 57.1732V56.0354C121.799 55.89 121.679 55.7677 121.535 55.7677Z" fill="#22234C"/>
<path d="M130.054 57.2168V56.0354C130.054 55.8899 129.936 55.7677 129.793 55.7677H123.813C123.667 55.7677 123.549 55.8899 123.549 56.0354V57.2779C123.549 57.4234 123.667 57.5427 123.813 57.5427H127.466L123.489 62.437C123.452 62.4865 123.429 62.5447 123.429 62.6087V63.7028C123.429 63.8483 123.546 63.9676 123.69 63.9676H129.756C129.902 63.9676 130.02 63.8483 130.02 63.7028V62.4428C130.02 62.2973 129.902 62.178 129.756 62.178H126.123L129.994 57.3856C130.031 57.339 130.054 57.2779 130.054 57.2168Z" fill="#22234C"/>
<path d="M87.2751 57.8774L91.2262 53.5651C91.298 53.4894 91.3152 53.3759 91.275 53.2799C91.232 53.1839 91.1373 53.1199 91.034 53.1199H89.0714C88.9968 53.1199 88.925 53.1519 88.8762 53.2072L83.6798 59.0501C83.6368 59.0995 83.6024 59.1985 83.6884 59.3003C83.6884 59.3003 84.6095 60.2344 84.687 60.31C84.8018 60.4177 84.885 60.409 85.0055 60.2926L85.9065 59.3527L89.2579 63.86C89.3095 63.9269 89.387 63.9677 89.4673 63.9677H91.4472C91.45 63.9648 91.4558 63.9648 91.4587 63.9677C91.605 63.9677 91.7226 63.8484 91.7226 63.7029C91.7226 63.6156 91.6796 63.5341 91.6136 63.4846L87.2751 57.8774Z" fill="#22234C"/>
<path d="M83.4149 61.5522C83.3403 61.4678 82.4594 60.4901 82.3963 60.4173C82.3303 60.3475 82.227 60.33 82.1381 60.4173C82.052 60.5017 80.9731 61.5405 80.9731 61.5405L76.4826 57.2078L78.2558 55.0662H83.6933C83.6933 55.0662 84.0778 55.5492 84.1552 55.6278C84.2671 55.7413 84.3733 55.7151 84.4709 55.6132C84.534 55.5463 85.3977 54.6006 85.4464 54.5279C85.5497 54.3766 85.5612 54.3358 85.4493 54.1933C85.3776 54.103 84.775 53.3872 84.775 53.3872C84.6057 53.2447 84.5196 53.1515 84.3274 53.1137C84.161 53.0933 84.1351 53.0963 84.1151 53.0963H77.834C77.814 53.0963 77.791 53.0933 77.6246 53.1108C77.4323 53.1515 77.3462 53.2447 77.177 53.3872L74.5716 56.5066C74.4052 56.7219 74.276 56.9576 74.2732 57.2165C74.2617 57.4813 74.3908 57.7287 74.5544 57.9498C74.5544 57.9498 79.9516 63.2428 80.5599 63.816V63.8218C80.5829 63.848 80.6317 63.8858 80.6977 63.9208C80.7723 63.9673 80.8469 63.9877 80.9186 63.9906C80.9301 63.9906 80.9387 63.9935 80.9502 63.9935C80.9616 63.9935 80.9702 63.9906 80.9789 63.9906C80.9875 63.9906 80.9989 63.9935 81.0075 63.9935C81.019 63.9935 81.0276 63.9906 81.0391 63.9906C81.1108 63.9877 81.1826 63.9673 81.26 63.9208C81.3232 63.8858 81.3748 63.8451 81.3978 63.8218V63.816C81.6158 63.6094 82.4566 62.783 83.4408 61.8228C83.5326 61.7064 83.4924 61.6366 83.4149 61.5522Z" fill="#E23D55"/>
</g>
<path d="M157.118 76.2285H409.658V38.6133H157.118V76.2285ZM410.927 77.4976H155.849V37.3442H410.927V77.4976Z" fill="#E6E8E8"/>
<path d="M413.517 95.4172H331.463V156.942H413.517V95.4172Z" fill="#E0DDF0"/>
<path d="M64.2017 285.338H412.891V253.763H64.2017V285.338ZM414.16 286.607H62.9326V252.511H414.16V286.607Z" fill="#E6E8E8"/>
<path d="M381.163 224.795L331.548 220.598C326.235 220.159 322.292 215.471 322.732 210.158L326.928 160.546C327.368 155.233 332.056 151.29 337.369 151.73L386.984 155.91C392.297 156.367 396.24 161.037 395.8 166.35L391.603 215.962C391.163 221.309 386.476 225.252 381.163 224.795Z" fill="#6676B8"/>
<path d="M373.548 202.95L340.754 199.955C340.906 198.196 341.769 196.588 343.123 195.471L343.833 194.879C345.001 193.915 345.712 192.527 345.864 191.021L346.558 183.39C347.184 176.537 353.377 171.528 360.264 172.391C361.28 172.526 362.244 172.78 363.158 173.136C362.701 174.066 362.414 175.098 362.312 176.198C361.872 181.072 365.459 185.403 370.35 185.86L370.841 185.894V185.911L370.164 193.255C370.028 194.761 370.502 196.25 371.467 197.417L372.059 198.128C372.617 198.805 373.04 199.583 373.294 200.395C373.531 201.207 373.616 202.07 373.548 202.95Z" fill="white"/>
<path d="M363.463 203.813C362.972 207.332 359.757 209.853 356.169 209.397C352.819 208.974 350.416 205.979 350.501 202.628L363.463 203.813Z" fill="white"/>
<path d="M377.761 177.602C377.423 181.257 374.191 183.948 370.536 183.626C366.88 183.288 364.19 180.056 364.511 176.401C364.85 172.746 368.082 170.056 371.737 170.377C375.392 170.716 378.1 173.948 377.761 177.602Z" fill="#E33C54"/>
<path d="M372.735 173.93L372.126 180.597L370.282 180.428L370.688 176.062L369.774 176.536C369.486 176.654 369.114 176.756 368.691 176.841L368.826 175.352C369.469 175.199 369.977 175.013 370.332 174.759C370.705 174.505 370.992 174.184 371.229 173.795L372.735 173.93Z" fill="white"/>
<path d="M220.085 95.0959H216.616V95.722H214.078V95.0959H211.539V95.722H209.018V95.0959H206.48V95.722H203.958V95.0959H201.437V95.722H198.916V95.0959H196.377V95.722H193.856V95.0959H191.335V95.722H188.847L213.367 202.628L74.1517 234.457H74.947V234.778H77.4853V234.457H80.0235V234.778H82.5618V234.457H85.0831V234.778H87.6045V234.457H90.1258V234.778H92.6641V234.457H95.2023V234.778H97.7237V234.457H100.262V234.778H102.8V234.457H105.322V234.778H107.86V234.457H110.398V234.778H112.936V234.457H115.475V234.778H118.013V234.457H120.551V234.778H123.089V234.457H125.628V234.778H128.149V234.457H130.687V234.778H133.209V234.457H135.747V234.778H138.268V234.457H140.806V234.778H143.328V234.457H145.849V234.778H148.387V234.457H150.909V234.778H153.447V234.457H155.968V234.778H158.507V234.457H161.028V234.778H163.566V234.457H166.088V234.778H168.609V234.457H171.147V234.778H173.668V234.457H176.207V234.778H178.745V234.457H181.266V234.778H183.805V234.457H186.343V234.778H188.864V234.457H191.402V234.778H193.924V234.457H196.445V234.778H198.983V234.457H201.505V234.778H204.026V234.457H206.547V234.778H209.086V234.457H211.607V234.778H214.145V234.457H216.684V234.778H220.153V95.0959H220.085ZM188.78 95.0959H188.695L188.78 95.502V95.0959ZM97.7067 95.0959H95.1854V95.722H92.6471V95.0959H90.1089V95.722H87.5875V95.0959H85.0662V95.722H82.5449V95.0959H80.0066V95.722H77.4683V95.0959H74.9301V95.722H72.3918V95.0959H69.8535V95.722H67.3153V95.0959H63.2202V103.133L97.6729 95.2482V95.0959H97.7067ZM63.2541 99.157H63.8802V101.644H63.2541V99.157Z" fill="#F5F4F4"/>
<path d="M145.899 91.4912H138.064V99.3256H145.899V91.4912Z" fill="#B5BFCE"/>
<path d="M67.4839 161.172H59.6492V169.006H67.4839V161.172Z" fill="#B5BFCE"/>
<path d="M220.084 233.525V234.456H219.153V235.082H220.71V233.525H220.084Z" fill="#B5BFCE"/>
<path d="M67.3484 235.083H69.8867V234.457H67.3484V235.083ZM72.408 235.083H74.9463V234.457H72.408V235.083ZM77.4676 235.083H80.0059V234.457H77.4676V235.083ZM82.5272 235.083H85.0655V234.457H82.5272V235.083ZM87.5868 235.083H90.1251V234.457H87.5868V235.083ZM92.6464 235.083H95.1847V234.457H92.6464V235.083ZM97.706 235.083H100.244V234.457H97.706V235.083ZM102.766 235.083H105.304V234.457H102.766V235.083ZM107.825 235.083H110.363V234.457H107.825V235.083ZM112.885 235.083H115.423V234.457H112.885V235.083ZM117.944 235.083H120.483V234.457H117.944V235.083ZM123.004 235.083H125.542V234.457H123.004V235.083ZM128.064 235.083H130.585V234.457H128.064V235.083ZM133.123 235.083H135.645V234.457H133.123V235.083ZM138.183 235.083H140.721V234.457H138.183V235.083ZM143.242 235.083H145.764V234.457H143.242V235.083ZM148.302 235.083H150.823V234.457H148.302V235.083ZM153.362 235.083H155.883V234.457H153.362V235.083ZM158.421 235.083H160.943V234.457H158.421V235.083ZM163.481 235.083H166.019V234.457H163.481V235.083ZM168.54 235.083H171.062V234.457H168.54V235.083ZM173.6 235.083H176.121V234.457H173.6V235.083ZM178.66 235.083H181.181V234.457H178.66V235.083ZM183.719 235.083H186.241V234.457H183.719V235.083ZM188.779 235.083H191.3V234.457H188.779V235.083ZM193.855 235.083H196.394V234.457H193.855V235.083ZM198.915 235.083H201.436V234.457H198.915V235.083ZM203.958 235.083H206.496V234.457H203.958V235.083ZM209.017 235.083H211.539V234.457H209.017V235.083ZM214.094 235.083H216.632V234.457H214.094V235.083Z" fill="#B5BFCE"/>
<path d="M63.2532 233.525V235.082H64.81V234.456H63.8793V233.525H63.2532Z" fill="#B5BFCE"/>
<path d="M63.2532 231.039H63.8793V228.551H63.2532V231.039ZM63.2532 226.064H63.8793V223.576H63.2532V226.064ZM63.2532 221.072H63.8793V218.585H63.2532V221.072ZM63.2532 216.097H63.8793V213.61H63.2532V216.097ZM63.2532 211.123H63.8793V208.635H63.2532V211.123ZM63.2532 206.148H63.8793V203.66H63.2532V206.148ZM63.2532 201.173H63.8793V198.686H63.2532V201.173ZM63.2532 196.198H63.8793V193.711H63.2532V196.198ZM63.2532 191.224H63.8793V188.736H63.2532V191.224ZM63.2532 186.249H63.8793V183.761H63.2532V186.249ZM63.2532 181.257H63.8793V178.77H63.2532V181.257ZM63.2532 176.282H63.8793V173.795H63.2532V176.282ZM63.2532 171.308H63.8793V168.82H63.2532V171.308ZM63.2532 166.333H63.8793V163.846H63.2532V166.333ZM63.2532 161.358H63.8793V158.871H63.2532V161.358ZM63.2532 156.383H63.8793V153.896H63.2532V156.383ZM63.2532 151.409H63.8793V148.921H63.2532V151.409ZM63.2532 146.434H63.8793V143.947H63.2532V146.434ZM63.2532 141.459H63.8793V138.972H63.2532V141.459ZM63.2532 136.484H63.8793V133.997H63.2532V136.484ZM63.2532 131.493H63.8793V129.005H63.2532V131.493ZM63.2532 126.518H63.8793V124.031H63.2532V126.518ZM63.2532 121.543H63.8793V119.056H63.2532V121.543ZM63.2532 116.568H63.8793V114.081H63.2532V116.568ZM63.2532 111.594H63.8793V109.106H63.2532V111.594ZM63.2532 106.619H63.8793V104.132H63.2532V106.619ZM63.2532 101.644H63.8793V99.1569H63.2532V101.644Z" fill="#B5BFCE"/>
<path d="M63.2532 95.0959V96.6696H63.8793V95.722H64.81V95.0959H63.2532Z" fill="#B5BFCE"/>
<path d="M67.3484 95.722H69.8867V95.0959H67.3484V95.722ZM72.408 95.722H74.9463V95.0959H72.408V95.722ZM77.4676 95.722H80.0059V95.0959H77.4676V95.722ZM82.5272 95.722H85.0655V95.0959H82.5272V95.722ZM87.5868 95.722H90.1251V95.0959H87.5868V95.722ZM92.6464 95.722H95.1847V95.0959H92.6464V95.722ZM97.706 95.722H100.244V95.0959H97.706V95.722ZM102.766 95.722H105.304V95.0959H102.766V95.722ZM107.825 95.722H110.363V95.0959H107.825V95.722ZM112.885 95.722H115.423V95.0959H112.885V95.722ZM117.944 95.722H120.483V95.0959H117.944V95.722ZM123.004 95.722H125.542V95.0959H123.004V95.722ZM128.064 95.722H130.585V95.0959H128.064V95.722ZM133.123 95.722H135.645V95.0959H133.123V95.722ZM138.183 95.722H140.721V95.0959H138.183V95.722ZM143.242 95.722H145.764V95.0959H143.242V95.722ZM148.302 95.722H150.823V95.0959H148.302V95.722ZM153.362 95.722H155.883V95.0959H153.362V95.722ZM158.421 95.722H160.943V95.0959H158.421V95.722ZM163.481 95.722H166.019V95.0959H163.481V95.722ZM168.54 95.722H171.062V95.0959H168.54V95.722ZM173.6 95.722H176.121V95.0959H173.6V95.722ZM178.66 95.722H181.181V95.0959H178.66V95.722ZM183.719 95.722H186.241V95.0959H183.719V95.722ZM188.779 95.722H191.3V95.0959H188.779V95.722ZM193.855 95.722H196.394V95.0959H193.855V95.722ZM198.915 95.722H201.436V95.0959H198.915V95.722ZM203.958 95.722H206.496V95.0959H203.958V95.722ZM209.017 95.722H211.539V95.0959H209.017V95.722ZM214.094 95.722H216.632V95.0959H214.094V95.722Z" fill="#B5BFCE"/>
<path d="M219.153 95.0959V95.722H220.084V96.6696H220.71V95.0959H219.153Z" fill="#B5BFCE"/>
<path d="M220.084 231.039H220.71V228.551H220.084V231.039ZM220.084 226.064H220.71V223.576H220.084V226.064ZM220.084 221.072H220.71V218.585H220.084V221.072ZM220.084 216.097H220.71V213.61H220.084V216.097ZM220.084 211.123H220.71V208.635H220.084V211.123ZM220.084 206.148H220.71V203.66H220.084V206.148ZM220.084 201.173H220.71V198.686H220.084V201.173ZM220.084 196.198H220.71V193.711H220.084V196.198ZM220.084 191.224H220.71V188.736H220.084V191.224ZM220.084 186.249H220.71V183.761H220.084V186.249ZM220.084 181.257H220.71V178.77H220.084V181.257ZM220.084 176.282H220.71V173.795H220.084V176.282ZM220.084 171.308H220.71V168.82H220.084V171.308ZM220.084 166.333H220.71V163.846H220.084V166.333ZM220.084 161.358H220.71V158.871H220.084V161.358ZM220.084 156.383H220.71V153.896H220.084V156.383ZM220.084 151.409H220.71V148.921H220.084V151.409ZM220.084 146.434H220.71V143.947H220.084V146.434ZM220.084 141.459H220.71V138.972H220.084V141.459ZM220.084 136.484H220.71V133.997H220.084V136.484ZM220.084 131.493H220.71V129.005H220.084V131.493ZM220.084 126.518H220.71V124.031H220.084V126.518ZM220.084 121.543H220.71V119.056H220.084V121.543ZM220.084 116.568H220.71V114.081H220.084V116.568ZM220.084 111.594H220.71V109.106H220.084V111.594ZM220.084 106.619H220.71V104.132H220.084V106.619ZM220.084 101.644H220.71V99.1569H220.084V101.644Z" fill="#B5BFCE"/>
<path d="M67.4839 91.4912H59.6492V99.3256H67.4839V91.4912Z" fill="#B5BFCE"/>
<path d="M222.842 92.9635H217.952V97.8537H222.842V92.9635Z" fill="#B5BFCE"/>
<path d="M222.842 162.644H217.952V167.534H222.842V162.644Z" fill="#B5BFCE"/>
<path d="M222.842 232.324H217.952V237.214H222.842V232.324Z" fill="#B5BFCE"/>
<path d="M144.427 232.324H139.537V237.214H144.427V232.324Z" fill="#B5BFCE"/>
<path d="M66.012 232.324H61.1216V237.214H66.012V232.324Z" fill="#B5BFCE"/>
<path d="M185.411 80.8141L181.333 81.7447L184.362 95.0954H186.257H188.694L185.411 80.8141ZM72.408 234.778H69.8697V235.099H67.3314V234.778H65.9946V236.334L72.391 234.879V234.778H72.408Z" fill="#EBEDF0"/>
<path d="M188.695 95.0959H186.258V95.722H184.515L208.07 199.786L65.7751 232.325H66.012V234.778H67.3489V234.457H69.8702V234.778H72.4085V234.457H74.1345L213.35 202.628L188.83 95.722H188.779V95.502L188.695 95.0959Z" fill="#E3E3E8"/>
<path d="M67.3484 234.456V234.761V235.082H69.8867V234.761V234.456H67.3484ZM72.408 234.456V234.761V234.845L74.1509 234.439H72.408V234.456Z" fill="#A9B2C4"/>
<path d="M188.779 95.722H188.83L188.779 95.502V95.722ZM184.363 95.0959L184.498 95.722H186.241V95.0959H184.363Z" fill="#A9B2C4"/>
<path d="M61.1049 233.391L32.3379 239.973L33.2178 243.814L62.0863 237.215H61.1049V233.391Z" fill="#EBEDF0"/>
<path d="M66.012 232.324H65.7751L61.1216 233.39V237.214H62.0861L66.012 236.317V234.778V232.324Z" fill="#A9B2C4"/>
<path d="M208.07 199.786L27.9378 240.971L0 117.601L180.132 76.4152L208.07 199.786Z" fill="#E0DDF0"/>
<path d="M11.1013 122.017L172.552 84.7065C173.77 84.4188 174.989 85.1803 175.276 86.4155L199.813 192.56C200.1 193.779 199.339 194.997 198.121 195.285L36.6701 232.595C35.4517 232.883 34.2334 232.122 33.9457 230.903L9.40917 124.741C9.1215 123.523 9.88298 122.305 11.1013 122.017Z" fill="white"/>
<path d="M174.778 84.1887L8.90381 122.527L15.0392 149.07L180.914 110.731L174.778 84.1887Z" fill="#E33C54"/>
<path d="M95.7611 130.41L74.9812 135.216L95.7611 130.41Z" fill="#B3B3B3"/>
<path d="M92.8661 121.797C92.7815 121.797 92.6968 121.814 92.6122 121.831L59.4456 129.496C58.8364 129.632 58.4642 130.241 58.5995 130.85L60.3932 138.6L75.0136 135.216L95.7766 130.41L93.9829 122.677C93.8475 122.153 93.3737 121.797 92.8661 121.797ZM67.0435 134.708L66.2651 131.392L87.2819 126.535L88.0434 129.852L67.0435 134.708Z" fill="#9F2B3B"/>
<path d="M131.296 112.914C131.211 112.914 131.127 112.931 131.042 112.948L97.8753 120.613C97.2661 120.748 96.8769 121.357 97.0292 121.984L98.8229 129.716L134.206 121.544L132.413 113.811C132.277 113.269 131.803 112.914 131.296 112.914ZM105.473 125.842L104.712 122.525L125.728 117.669L126.507 120.985L105.473 125.842Z" fill="#9F2B3B"/>
<path d="M20.1537 139.733C20.0184 139.124 20.3906 138.515 20.9998 138.38L54.1664 130.715C54.7756 130.579 55.3848 130.951 55.5202 131.561L57.3139 139.293L21.9305 147.466L20.1537 139.733Z" fill="white"/>
<path d="M48.849 135.42L27.8447 140.273L28.6104 143.586L49.6146 138.734L48.849 135.42Z" fill="#CCD6E0"/>
<path d="M87.2801 126.537L66.2759 131.391L67.0418 134.705L88.0461 129.85L87.2801 126.537Z" fill="#B57F8E"/>
<path d="M125.716 117.663L104.712 122.518L105.478 125.832L126.482 120.977L125.716 117.663Z" fill="#B57F8E"/>
<path d="M170.859 87.4306C172.077 87.1429 173.296 87.9044 173.583 89.1396C173.871 90.3579 173.11 91.5762 171.874 91.8639C170.656 92.1516 169.438 91.3901 169.15 90.1549C168.879 88.9366 169.641 87.7183 170.859 87.4306Z" fill="white"/>
<path d="M180.887 110.735L15.0295 149.069L16.5615 155.697L182.419 117.362L180.887 110.735Z" fill="white"/>
<path d="M181.759 124.506L20.3193 161.819L21.8513 168.447L183.291 131.134L181.759 124.506Z" fill="#F8FBFD"/>
<path d="M184.685 137.217L23.2458 174.53L24.7778 181.157L186.217 143.844L184.685 137.217Z" fill="#F8FBFD"/>
<path d="M41.9552 144.593L25.3694 148.427L26.1354 151.74L42.7211 147.907L41.9552 144.593Z" fill="#A1ADBF"/>
<path d="M58.8198 140.698L61.0366 140.19C61.6458 140.055 62.255 140.427 62.3904 141.036L62.6442 142.136C62.7796 142.745 62.4073 143.355 61.7981 143.49L59.5813 143.998C58.9721 144.133 58.363 143.761 58.2276 143.152L57.9738 142.052C57.8215 141.442 58.2107 140.833 58.8198 140.698Z" fill="#A1ADBF"/>
<path d="M64.8956 139.293L67.1123 138.786C67.7215 138.65 68.3307 139.023 68.483 139.632L68.7368 140.732C68.8891 141.341 68.4999 141.95 67.8907 142.085L65.674 142.593C65.0648 142.728 64.4556 142.356 64.3033 141.747L64.0495 140.647C63.9141 140.038 64.2864 139.429 64.8956 139.293Z" fill="#A1ADBF"/>
<path d="M70.9871 137.889L73.2038 137.381C73.813 137.246 74.4222 137.618 74.5576 138.227L74.8114 139.327C74.9468 139.936 74.5745 140.545 73.9653 140.681L71.7486 141.188C71.1394 141.324 70.5302 140.952 70.3948 140.342L70.141 139.243C69.9887 138.633 70.3779 138.024 70.9871 137.889Z" fill="#A1ADBF"/>
<path d="M180.217 117.877L18.7776 155.191L20.3095 161.818L181.749 124.505L180.217 117.877Z" fill="#A1ADBF"/>
<path d="M183.292 131.132L21.853 168.446L23.2592 174.529L184.699 137.216L183.292 131.132Z" fill="#E3E8F0"/>
<path d="M187.766 150.477L26.3262 187.791L27.8581 194.418L189.298 157.105L187.766 150.477Z" fill="#F8FBFD"/>
<path d="M190.677 163.223L29.238 200.52L30.7693 207.147L192.209 169.85L190.677 163.223Z" fill="#F8FBFD"/>
<path d="M186.224 143.849L24.7847 181.162L26.3166 187.789L187.756 150.476L186.224 143.849Z" fill="#E3E8F0"/>
<path d="M189.286 157.125L27.8464 194.438L29.2526 200.522L190.692 163.209L189.286 157.125Z" fill="#E3E8F0"/>
<path d="M193.776 176.467L32.3364 213.78L33.8684 220.408L195.308 183.094L193.776 176.467Z" fill="#F8FBFD"/>
<path d="M196.701 189.197L35.2615 226.51L36.7934 233.138L198.233 195.825L196.701 189.197Z" fill="#F8FBFD"/>
<path d="M192.234 169.838L30.7944 207.151L32.3264 213.778L193.766 176.465L192.234 169.838Z" fill="#E3E8F0"/>
<path d="M195.295 183.115L33.8552 220.428L35.2614 226.511L196.701 189.198L195.295 183.115Z" fill="#E3E8F0"/>
<path d="M27.8871 194.607L27.8533 194.438L27.7179 193.846L27.8871 194.607ZM25.755 185.369L24.7904 181.172L23.6736 176.35L25.755 185.369ZM20.3062 161.815L22.9459 173.236L21.846 168.465L20.3062 161.815Z" fill="#E8EDF3"/>
<path d="M51.3078 154.662L20.3125 161.826L21.8444 168.454L52.8397 161.29L51.3078 154.662Z" fill="#E1E9EE"/>
<path d="M54.2514 167.365L23.2507 174.539L23.6738 176.35L24.7906 181.172L55.7913 174.015L54.2514 167.365Z" fill="#E1E9EE"/>
<path d="M51.3068 154.657L20.3062 161.815L51.3068 154.657Z" fill="#92A1B5"/>
<path d="M52.8468 161.29L21.8462 168.448L22.9461 173.236L23.2507 174.539L54.2513 167.365L52.8468 161.29Z" fill="#CCD6E3"/>
<path d="M57.3136 180.648L26.313 187.805L27.7175 193.846L27.8529 194.438L58.8535 187.281L57.3136 180.648Z" fill="#E1E9EE"/>
<path d="M60.2597 193.357L29.2644 200.521L30.7963 207.149L61.7916 199.985L60.2597 193.357Z" fill="#E1E9EE"/>
<path d="M55.7914 174.015L24.7908 181.172L25.7553 185.369L26.3137 187.805L57.3144 180.648L55.7914 174.015Z" fill="#CCD6E3"/>
<path d="M58.8539 187.281L27.8533 194.439L27.8871 194.608L29.2578 200.513L60.2584 193.356L58.8539 187.281Z" fill="#CCD6E3"/>
<path d="M63.322 206.624L32.3267 213.788L33.8586 220.415L64.8539 213.251L63.322 206.624Z" fill="#E1E9EE"/>
<path d="M61.7965 199.99L30.8013 207.154L32.3332 213.781L63.3285 206.617L61.7965 199.99Z" fill="#CCD6E3"/>
<path d="M64.8554 213.25L33.8601 220.414L35.2663 226.497L66.2616 219.333L64.8554 213.25Z" fill="#CCD6E3"/>
<path d="M81.1064 147.771L80.6326 147.889L80.0742 148.007L81.6141 154.64L82.6463 154.404L81.1064 147.771Z" fill="#E1E9EE"/>
<path d="M84.0544 160.479L83.0156 160.719L84.5455 167.347L85.5843 167.107L84.0544 160.479Z" fill="#E1E9EE"/>
<path d="M82.6616 154.395L81.6228 154.635L83.0271 160.719L84.0659 160.479L82.6616 154.395Z" fill="#CCD6E3"/>
<path d="M87.1367 173.759L86.0979 173.999L87.6278 180.627L88.6666 180.387L87.1367 173.759Z" fill="#E1E9EE"/>
<path d="M90.0632 186.47L89.0244 186.709L90.5543 193.338L91.5931 193.098L90.0632 186.47Z" fill="#E1E9EE"/>
<path d="M85.593 167.111L84.5542 167.351L86.0841 173.979L87.1229 173.739L85.593 167.111Z" fill="#CCD6E3"/>
<path d="M88.6716 180.385L87.6328 180.624L89.0371 186.708L90.0759 186.469L88.6716 180.385Z" fill="#CCD6E3"/>
<path d="M93.1433 199.733L92.1045 199.973L93.6344 206.601L94.6732 206.361L93.1433 199.733Z" fill="#E1E9EE"/>
<path d="M91.6032 193.102L90.5645 193.341L92.0944 199.97L93.1331 199.73L91.6032 193.102Z" fill="#CCD6E3"/>
<path d="M94.6638 206.378L93.625 206.618L95.0293 212.702L96.0681 212.462L94.6638 206.378Z" fill="#CCD6E3"/>
<path d="M103.623 143.654L82.3052 148.581L83.3074 152.917L104.625 147.99L103.623 143.654Z" fill="#DEF1FB"/>
<path d="M105.44 142.152L104.407 142.389L105.93 149.022L106.963 148.785L105.44 142.152Z" fill="#E1E9EE"/>
<path d="M108.388 154.859L107.349 155.098L108.879 161.727L109.918 161.487L108.388 154.859Z" fill="#E1E9EE"/>
<path d="M104.407 142.389L105.44 142.152L104.407 142.389Z" fill="#92A1B5"/>
<path d="M106.977 148.781L105.938 149.021L107.342 155.105L108.381 154.865L106.977 148.781Z" fill="#CCD6E3"/>
<path d="M111.44 168.128L110.401 168.368L111.933 174.996L112.971 174.756L111.44 168.128Z" fill="#E1E9EE"/>
<path d="M114.385 180.852L113.346 181.092L114.878 187.719L115.917 187.479L114.385 180.852Z" fill="#E1E9EE"/>
<path d="M109.916 161.493L108.877 161.733L110.409 168.36L111.448 168.12L109.916 161.493Z" fill="#CCD6E3"/>
<path d="M112.977 174.77L111.938 175.01L113.344 181.094L114.383 180.854L112.977 174.77Z" fill="#CCD6E3"/>
<path d="M117.437 194.113L116.415 194.35L117.949 200.976L118.971 200.74L117.437 194.113Z" fill="#E1E9EE"/>
<path d="M115.93 187.474L114.891 187.714L116.426 194.341L117.464 194.1L115.93 187.474Z" fill="#CCD6E3"/>
<path d="M118.977 200.75L117.945 200.987L119.349 207.079L120.348 206.842H120.382L118.977 200.75Z" fill="#CCD6E3"/>
<path d="M141.382 133.845L141.263 133.879L140.35 134.082L141.873 140.715L142.922 140.478L141.382 133.845Z" fill="#E1E9EE"/>
<path d="M144.327 146.553L143.288 146.793L144.818 153.421L145.857 153.182L144.327 146.553Z" fill="#E1E9EE"/>
<path d="M142.919 140.472L141.88 140.712L143.284 146.796L144.323 146.556L142.919 140.472Z" fill="#CCD6E3"/>
<path d="M147.392 159.817L146.354 160.056L147.883 166.684L148.922 166.445L147.392 159.817Z" fill="#E1E9EE"/>
<path d="M150.339 172.54L149.3 172.779L150.83 179.407L151.868 179.168L150.339 172.54Z" fill="#E1E9EE"/>
<path d="M145.87 153.181L144.831 153.421L146.361 160.049L147.4 159.809L145.87 153.181Z" fill="#CCD6E3"/>
<path d="M148.931 166.458L147.892 166.698L149.296 172.782L150.335 172.542L148.931 166.458Z" fill="#CCD6E3"/>
<path d="M153.402 185.806L152.364 186.046L153.893 192.674L154.932 192.434L153.402 185.806Z" fill="#E1E9EE"/>
<path d="M151.862 179.175L150.823 179.415L152.353 186.043L153.392 185.803L151.862 179.175Z" fill="#CCD6E3"/>
<path d="M154.941 192.448L153.902 192.688L155.306 198.772L156.345 198.532L154.941 192.448Z" fill="#CCD6E3"/>
<path d="M165.697 128.227L164.665 128.463L166.205 135.096L167.237 134.86L165.697 128.227Z" fill="#E1E9EE"/>
<path d="M168.633 140.944L167.595 141.184L169.127 147.811L170.165 147.571L168.633 140.944Z" fill="#E1E9EE"/>
<path d="M164.665 128.464L165.697 128.227L164.665 128.464Z" fill="#92A1B5"/>
<path d="M167.242 134.859L166.203 135.099L167.61 141.182L168.648 140.942L167.242 134.859Z" fill="#CCD6E3"/>
<path d="M171.714 154.202L170.675 154.442L172.207 161.07L173.246 160.829L171.714 154.202Z" fill="#E1E9EE"/>
<path d="M174.644 166.929L173.605 167.169L175.137 173.796L176.176 173.556L174.644 166.929Z" fill="#E1E9EE"/>
<path d="M170.172 147.575L169.133 147.815L170.665 154.443L171.704 154.202L170.172 147.575Z" fill="#CCD6E3"/>
<path d="M173.252 160.844L172.214 161.084L173.62 167.167L174.658 166.927L173.252 160.844Z" fill="#CCD6E3"/>
<path d="M177.727 180.179L176.688 180.419L178.223 187.046L179.262 186.806L177.727 180.179Z" fill="#E1E9EE"/>
<path d="M179.625 193.152L180.657 192.915L179.625 193.152Z" fill="#E1E9EE"/>
<path d="M176.187 173.548L175.148 173.788L176.683 180.415L177.722 180.174L176.187 173.548Z" fill="#CCD6E3"/>
<path d="M179.244 186.808L178.222 187.045L179.631 193.128L180.653 192.891L179.244 186.808Z" fill="#CCD6E3"/>
<path d="M139.601 135.333L106.66 142.946L107.662 147.282L140.603 139.668L139.601 135.333Z" fill="#DEF1FB"/>
<path d="M164.063 129.695L142.581 134.66L143.583 138.996L165.065 134.031L164.063 129.695Z" fill="#DEF1FB"/>
<path d="M180.82 125.819L166.806 129.055L167.808 133.391L181.822 130.155L180.82 125.819Z" fill="#DEF1FB"/>
<path d="M239.696 100.476H309.059C309.702 100.476 310.209 101.17 310.209 102.033V150.41C310.209 151.273 309.702 151.967 309.059 151.967H239.696C239.07 151.967 238.546 151.273 238.546 150.41V102.033C238.546 101.17 239.053 100.476 239.696 100.476Z" fill="#F8FBFD"/>
<path d="M255.857 107.16C258.142 107.16 260.359 107.888 262.203 109.225C264.048 110.561 265.418 112.457 266.129 114.622C266.84 116.788 266.84 119.123 266.129 121.289C265.418 123.455 264.048 125.35 262.203 126.687L258.396 121.442C259.123 120.9 259.682 120.156 259.969 119.276C260.24 118.413 260.24 117.482 259.969 116.602C259.682 115.739 259.14 114.978 258.396 114.436C257.651 113.895 256.771 113.607 255.857 113.607V107.16Z" fill="#A41A33"/>
<path d="M262.202 126.687C260.815 127.685 259.224 128.345 257.549 128.616C255.873 128.887 254.147 128.751 252.523 128.227C250.898 127.702 249.426 126.805 248.225 125.587C247.023 124.386 246.11 122.914 245.585 121.289C245.06 119.665 244.925 117.956 245.196 116.264C245.467 114.589 246.127 112.981 247.125 111.61C248.123 110.223 249.443 109.106 250.949 108.345C252.455 107.583 254.147 107.16 255.856 107.16V113.641C255.18 113.641 254.503 113.81 253.894 114.115C253.284 114.419 252.76 114.876 252.371 115.418C251.965 115.976 251.711 116.602 251.592 117.279C251.474 117.956 251.541 118.633 251.745 119.293C251.948 119.936 252.32 120.528 252.794 121.002C253.267 121.492 253.86 121.848 254.503 122.051C255.146 122.254 255.84 122.321 256.516 122.203C257.193 122.101 257.836 121.831 258.378 121.425L262.202 126.687Z" fill="#E33C54"/>
<path d="M273.979 113.895C275.062 113.895 275.959 114.792 275.959 115.875C275.959 116.975 275.079 117.854 273.979 117.854C272.879 117.854 271.999 116.975 271.999 115.875C271.982 114.775 272.879 113.895 273.979 113.895Z" fill="#A41A33"/>
<path d="M273.979 120.037C275.062 120.037 275.959 120.934 275.959 122.017C275.959 123.117 275.079 123.996 273.979 123.996C272.879 123.996 271.999 123.117 271.999 122.017C271.982 120.917 272.879 120.037 273.979 120.037Z" fill="#E33C54"/>
<path d="M289.412 114.69H277.533V117.059H289.412V114.69Z" fill="#A1ADBF"/>
<path d="M289.43 105.976H271.797V108.345H289.43V105.976Z" fill="#4B5569"/>
<path d="M289.412 120.815H277.533V123.184H289.412V120.815Z" fill="#A1ADBF"/>
<path d="M264.707 132.473C264.707 132.05 265.045 131.695 265.485 131.695H268.988C269.411 131.695 269.766 132.05 269.766 132.473V145.705H264.707V132.473Z" fill="#E33C54"/>
<path d="M275.215 139.09C275.215 138.667 275.553 138.311 275.993 138.311H279.496C279.919 138.311 280.274 138.667 280.274 139.09V145.706H275.215V139.09Z" fill="#E33C54"/>
<path d="M285.723 135.587C285.723 135.164 286.062 134.809 286.502 134.809H290.005C290.428 134.809 290.783 135.164 290.783 135.587V145.706H285.723V135.587Z" fill="#E33C54"/>
<path d="M296.232 128.582C296.232 128.159 296.57 127.803 297.01 127.803H300.513C300.953 127.803 301.291 128.159 301.291 128.582V145.706H296.232V128.582Z" fill="#E33C54"/>
<path d="M304.388 145.706H262.372V146.484H304.388V145.706Z" fill="#A1ADBF"/>
<path d="M338.35 100.476H407.712C408.355 100.476 408.863 101.17 408.863 102.033V150.41C408.863 151.273 408.355 151.967 407.712 151.967H338.35C337.707 151.967 337.199 151.273 337.199 150.41V102.033C337.199 101.17 337.707 100.476 338.35 100.476Z" fill="#F8FBFD"/>
<path d="M397.051 132.626C397.051 124.809 390.875 120.951 383.328 119.969C382.126 114.978 377.185 112.49 372.718 112.49C366.321 112.49 361.143 117.668 361.143 124.047V124.098C360.771 124.064 360.382 124.047 359.992 124.047C353.613 124.047 348.418 129.225 348.418 135.621V135.655C348.418 137.669 349.704 140.071 353.714 140.071H388.929C395.63 140.071 397 135.604 397.017 132.677V132.626H397.051Z" fill="#C2C2E2"/>
<path d="M400.927 158.346C400.25 158.752 399.37 158.532 398.964 157.855L398.811 156.772L399.471 155.892L412.873 147.855C413.55 147.449 414.43 147.669 414.836 148.345C415.242 149.022 415.022 149.902 414.345 150.308L400.927 158.346Z" fill="#4B6FB5"/>
<path d="M400.03 164.404C400.199 163.744 400.791 163.287 401.502 163.321L412.23 163.913C413.026 163.947 413.618 164.624 413.584 165.419C413.533 166.214 412.873 166.807 412.078 166.773L401.35 166.181C400.554 166.13 399.945 165.47 399.996 164.675L400.03 164.404Z" fill="#4B6FB5"/>
<path d="M392.652 152.102L392.736 151.849L397.271 142.102C397.61 141.391 398.456 141.07 399.167 141.408C399.877 141.747 400.199 142.593 399.86 143.303L395.325 153.05C395.004 153.761 394.141 154.082 393.43 153.744C392.821 153.456 392.499 152.762 392.652 152.102Z" fill="#4B6FB5"/>
<path d="M305.319 183.219H243.876V226.875H305.319V183.219Z" fill="#F5F4F4"/>
<path d="M305.319 186.181V191.46H243.876V186.181C243.876 184.539 245.45 183.219 247.379 183.219H301.817C303.746 183.219 305.319 184.539 305.319 186.181Z" fill="#E33C54"/>
<path d="M248.902 199.717C247.26 199.717 245.94 198.398 245.94 196.756C245.94 195.115 247.277 193.795 248.902 193.795C250.543 193.795 251.863 195.132 251.863 196.756C251.863 198.381 250.543 199.717 248.902 199.717Z" fill="#E0DDF0"/>
<path d="M257.346 199.717C255.705 199.717 254.385 198.398 254.385 196.756C254.385 195.115 255.705 193.795 257.346 193.795C258.988 193.795 260.307 195.132 260.307 196.756C260.307 198.381 258.988 199.717 257.346 199.717Z" fill="#E0DDF0"/>
<path d="M265.79 199.717C264.149 199.717 262.829 198.398 262.829 196.756C262.829 195.115 264.149 193.795 265.79 193.795C267.432 193.795 268.752 195.132 268.752 196.756C268.752 198.381 267.432 199.717 265.79 199.717Z" fill="#E0DDF0"/>
<path d="M274.234 199.717C272.593 199.717 271.273 198.398 271.273 196.756C271.273 195.115 272.593 193.795 274.234 193.795C275.876 193.795 277.196 195.132 277.196 196.756C277.196 198.381 275.876 199.717 274.234 199.717Z" fill="#E0DDF0"/>
<path d="M291.122 199.717C289.48 199.717 288.16 198.398 288.16 196.756C288.16 195.115 289.497 193.795 291.122 193.795C292.763 193.795 294.083 195.132 294.083 196.756C294.083 198.381 292.763 199.717 291.122 199.717Z" fill="#E0DDF0"/>
<path d="M282.644 199.717C281.003 199.717 279.683 198.398 279.683 196.756C279.683 195.115 281.02 193.795 282.644 193.795C284.286 193.795 285.606 195.132 285.606 196.756C285.606 198.381 284.286 199.717 282.644 199.717Z" fill="#E0DDF0"/>
<path d="M299.617 199.717C297.976 199.717 296.656 198.398 296.656 196.756C296.656 195.115 297.993 193.795 299.617 193.795C301.259 193.795 302.579 195.132 302.579 196.756C302.579 198.381 301.242 199.717 299.617 199.717Z" fill="#E0DDF0"/>
<path d="M248.902 207.67C247.26 207.67 245.94 206.351 245.94 204.709C245.94 203.068 247.277 201.748 248.902 201.748C250.543 201.748 251.863 203.085 251.863 204.709C251.863 206.334 250.543 207.67 248.902 207.67Z" fill="#E0DDF0"/>
<path d="M257.346 207.67C255.705 207.67 254.385 206.351 254.385 204.709C254.385 203.068 255.722 201.748 257.346 201.748C258.988 201.748 260.307 203.085 260.307 204.709C260.307 206.334 258.988 207.67 257.346 207.67Z" fill="#E0DDF0"/>
<path d="M274.234 207.67C272.593 207.67 271.273 206.351 271.273 204.709C271.273 203.068 272.593 201.748 274.234 201.748C275.876 201.748 277.196 203.085 277.196 204.709C277.196 206.334 275.876 207.67 274.234 207.67Z" fill="#E0DDF0"/>
<path d="M282.678 207.67C281.036 207.67 279.717 206.351 279.717 204.709C279.717 203.068 281.053 201.748 282.678 201.748C284.319 201.748 285.639 203.085 285.639 204.709C285.639 206.334 284.319 207.67 282.678 207.67Z" fill="#E0DDF0"/>
<path d="M291.122 207.67C289.48 207.67 288.16 206.351 288.16 204.709C288.16 203.068 289.497 201.748 291.122 201.748C292.763 201.748 294.083 203.085 294.083 204.709C294.083 206.334 292.763 207.67 291.122 207.67Z" fill="#E0DDF0"/>
<path d="M265.79 207.67C264.149 207.67 262.829 206.351 262.829 204.709C262.829 203.068 264.149 201.748 265.79 201.748C267.432 201.748 268.752 203.085 268.752 204.709C268.752 206.334 267.432 207.67 265.79 207.67Z" fill="#E0DDF0"/>
<path d="M299.566 207.67C297.925 207.67 296.605 206.351 296.605 204.709C296.605 203.068 297.925 201.748 299.566 201.748C301.207 201.748 302.527 203.085 302.527 204.709C302.527 206.334 301.207 207.67 299.566 207.67Z" fill="#E0DDF0"/>
<path d="M299.566 215.623C297.925 215.623 296.605 214.303 296.605 212.662C296.605 211.02 297.925 209.7 299.566 209.7C301.207 209.7 302.527 211.037 302.527 212.662C302.527 214.286 301.207 215.623 299.566 215.623Z" fill="#E0DDF0"/>
<path d="M299.566 223.644C297.925 223.644 296.605 222.324 296.605 220.683C296.605 219.041 297.925 217.722 299.566 217.722C301.207 217.722 302.527 219.058 302.527 220.683C302.527 222.324 301.207 223.644 299.566 223.644Z" fill="#E0DDF0"/>
<path d="M248.902 215.623C247.26 215.623 245.94 214.303 245.94 212.662C245.94 211.02 247.277 209.7 248.902 209.7C250.543 209.7 251.863 211.037 251.863 212.662C251.863 214.286 250.543 215.623 248.902 215.623Z" fill="#E0DDF0"/>
<path d="M257.346 215.623C255.705 215.623 254.385 214.303 254.385 212.662C254.385 211.02 255.722 209.7 257.346 209.7C258.988 209.7 260.307 211.037 260.307 212.662C260.307 214.286 258.988 215.623 257.346 215.623Z" fill="#E0DDF0"/>
<path d="M265.79 215.623C264.149 215.623 262.829 214.303 262.829 212.662C262.829 211.02 264.149 209.7 265.79 209.7C267.432 209.7 268.752 211.037 268.752 212.662C268.752 214.286 267.432 215.623 265.79 215.623Z" fill="#E0DDF0"/>
<path d="M274.234 215.623C272.593 215.623 271.273 214.303 271.273 212.662C271.273 211.02 272.593 209.7 274.234 209.7C275.876 209.7 277.196 211.037 277.196 212.662C277.196 214.286 275.876 215.623 274.234 215.623Z" fill="#E0DDF0"/>
<path d="M282.678 215.623C281.036 215.623 279.717 214.303 279.717 212.662C279.717 211.02 281.053 209.7 282.678 209.7C284.319 209.7 285.639 211.037 285.639 212.662C285.639 214.286 284.319 215.623 282.678 215.623Z" fill="#E0DDF0"/>
<path d="M291.122 215.623C289.48 215.623 288.16 214.303 288.16 212.662C288.16 211.02 289.497 209.7 291.122 209.7C292.763 209.7 294.083 211.037 294.083 212.662C294.083 214.286 292.763 215.623 291.122 215.623Z" fill="#E0DDF0"/>
<path d="M248.902 223.576C247.26 223.576 245.94 222.256 245.94 220.615C245.94 218.974 247.277 217.654 248.902 217.654C250.543 217.654 251.863 218.991 251.863 220.615C251.863 222.239 250.543 223.576 248.902 223.576Z" fill="#E0DDF0"/>
<path d="M257.346 223.576C255.705 223.576 254.385 222.256 254.385 220.615C254.385 218.974 255.705 217.654 257.346 217.654C258.988 217.654 260.307 218.991 260.307 220.615C260.307 222.239 258.988 223.576 257.346 223.576Z" fill="#E0DDF0"/>
<path d="M265.79 223.576C264.149 223.576 262.829 222.256 262.829 220.615C262.829 218.974 264.149 217.654 265.79 217.654C267.432 217.654 268.752 218.991 268.752 220.615C268.752 222.239 267.432 223.576 265.79 223.576Z" fill="#E0DDF0"/>
<path d="M274.234 223.576C272.593 223.576 271.273 222.256 271.273 220.615C271.273 218.974 272.593 217.654 274.234 217.654C275.876 217.654 277.196 218.991 277.196 220.615C277.196 222.239 275.876 223.576 274.234 223.576Z" fill="#E0DDF0"/>
<path d="M282.678 223.576C281.036 223.576 279.717 222.256 279.717 220.615C279.717 218.974 281.053 217.654 282.678 217.654C284.319 217.654 285.639 218.991 285.639 220.615C285.639 222.239 284.319 223.576 282.678 223.576Z" fill="#E0DDF0"/>
<path d="M291.122 223.576C289.48 223.576 288.16 222.256 288.16 220.615C288.16 218.974 289.497 217.654 291.122 217.654C292.763 217.654 294.083 218.991 294.083 220.615C294.083 222.239 292.763 223.576 291.122 223.576Z" fill="#E0DDF0"/>
<path d="M257.261 187.805C257.261 188.397 256.771 188.888 256.178 188.888C255.586 188.888 255.095 188.397 255.095 187.805C255.095 187.213 255.569 186.722 256.178 186.722C256.788 186.739 257.261 187.213 257.261 187.805Z" fill="#BEE4FA"/>
<path d="M266.449 187.805C266.449 188.397 265.959 188.888 265.366 188.888C264.774 188.888 264.283 188.397 264.283 187.805C264.283 187.213 264.774 186.722 265.366 186.722C265.959 186.739 266.449 187.213 266.449 187.805Z" fill="#BEE4FA"/>
<path d="M275.622 187.805C275.622 188.397 275.132 188.888 274.539 188.888C273.947 188.888 273.456 188.397 273.456 187.805C273.456 187.213 273.947 186.722 274.539 186.722C275.148 186.739 275.622 187.213 275.622 187.805Z" fill="#BEE4FA"/>
<path d="M284.794 187.805C284.794 188.397 284.303 188.888 283.711 188.888C283.119 188.888 282.628 188.397 282.628 187.805C282.628 187.213 283.119 186.722 283.711 186.722C284.32 186.739 284.794 187.213 284.794 187.805Z" fill="#BEE4FA"/>
<path d="M293.982 187.805C293.982 188.397 293.491 188.888 292.899 188.888C292.307 188.888 291.816 188.397 291.816 187.805C291.816 187.213 292.307 186.722 292.899 186.722C293.491 186.739 293.982 187.213 293.982 187.805Z" fill="#BEE4FA"/>
<path d="M248.09 187.805C248.09 188.397 247.599 188.888 247.007 188.888C246.415 188.888 245.924 188.397 245.924 187.805C245.924 187.213 246.415 186.722 247.007 186.722C247.616 186.739 248.09 187.213 248.09 187.805Z" fill="#BEE4FA"/>
<path d="M257.278 187.805C257.278 188.397 256.787 188.888 256.195 188.888C255.603 188.888 255.112 188.397 255.112 187.805C255.112 187.213 255.603 186.722 256.195 186.722C256.787 186.739 257.278 187.213 257.278 187.805Z" fill="#BEE4FA"/>
<path d="M293.982 187.805C293.982 188.397 293.491 188.888 292.899 188.888C292.307 188.888 291.816 188.397 291.816 187.805C291.816 187.213 292.307 186.722 292.899 186.722C293.491 186.739 293.982 187.213 293.982 187.805Z" fill="#BEE4FA"/>
<path d="M303.153 187.805C303.153 188.397 302.663 188.888 302.07 188.888C301.478 188.888 300.987 188.397 300.987 187.805C300.987 187.213 301.478 186.722 302.07 186.722C302.679 186.739 303.153 187.213 303.153 187.805Z" fill="#BEE4FA"/>
<path d="M246.483 182.746V187.805L247.007 188.33L247.532 187.805V182.746L247.007 182.221L246.483 182.746Z" fill="#20254C"/>
<path d="M255.654 182.746V187.805L256.178 188.33L256.72 187.805V182.746L256.178 182.221L255.654 182.746Z" fill="#20254C"/>
<path d="M264.842 182.746V187.805L265.367 188.33L265.891 187.805V182.746L265.367 182.221L264.842 182.746Z" fill="#20254C"/>
<path d="M283.203 182.746V187.805L283.727 188.33L284.252 187.805V182.746L283.727 182.221L283.203 182.746Z" fill="#20254C"/>
<path d="M292.375 182.746V187.805L292.899 188.33L293.441 187.805V182.746L292.899 182.221L292.375 182.746Z" fill="#20254C"/>
<path d="M248.597 198.736L248.343 198.652L246.922 197.451L246.871 196.909L247.412 196.875L248.529 197.806L250.34 195.268L250.881 195.183L250.966 195.725L248.901 198.584L248.648 198.736H248.597Z" fill="#E33C54"/>
<path d="M282.526 198.736L282.289 198.652L280.868 197.451L280.817 196.909L281.341 196.875L282.458 197.806L284.286 195.268L284.811 195.183L284.895 195.725L282.848 198.584L282.577 198.736H282.526Z" fill="#E33C54"/>
<path d="M257.041 222.24L256.787 222.155L255.366 220.954L255.315 220.429L255.84 220.378L256.957 221.309L258.784 218.771L259.309 218.686L259.393 219.228L257.346 222.087L257.075 222.24H257.041Z" fill="#E33C54"/>
<path d="M274.013 182.746V187.805L274.538 188.33L275.08 187.805V182.746L274.538 182.221L274.013 182.746Z" fill="#20254C"/>
<path d="M301.546 182.746V187.805L302.087 188.33L302.612 187.805V182.746L302.087 182.221L301.546 182.746Z" fill="#20254C"/>
</g>
<defs>
<clipPath id="clip0">
<rect width="471" height="315" fill="white"/>
</clipPath>
<clipPath id="clip1">
<rect x="74.2742" y="53.0966" width="55.7802" height="11.0369" fill="white"/>
</clipPath>
</defs>
</svg>
