<svg width="493" height="302" viewBox="0 0 493 302" fill="none" xmlns="http://www.w3.org/2000/svg">
<g clip-path="url(#clip0)">
<path d="M298.218 61.6299H300.451C301.17 59.2078 302.135 56.9183 303.308 54.7233L301.718 53.1338C297.499 48.9141 297.499 42.0642 301.718 37.8446C305.938 33.6249 312.787 33.6249 317.006 37.8446L318.595 39.434C320.79 38.2609 323.079 37.3147 325.501 36.5768V34.3439C325.501 28.3645 330.344 23.5204 336.304 23.5204C342.283 23.5204 347.108 28.3645 347.108 34.3439V36.5768C349.529 37.3147 351.819 38.2609 354.013 39.434L355.603 37.8446C359.822 33.6249 366.671 33.6249 370.89 37.8446C375.109 42.0642 375.109 48.9141 370.89 53.1338L369.32 54.7233C370.493 56.8993 371.439 59.2078 372.177 61.6299H374.409C380.369 61.6299 385.213 66.474 385.213 72.4345C385.213 78.414 380.369 83.2392 374.409 83.2392H372.177C371.439 85.6612 370.493 87.9508 369.32 90.1458L370.89 91.7353C375.109 95.955 375.109 102.805 370.89 107.025C366.671 111.244 359.822 111.244 355.603 107.025L354.013 105.435C351.819 106.608 349.529 107.554 347.108 108.292V110.525C347.108 116.505 342.264 121.33 336.304 121.33C330.344 121.33 325.501 116.486 325.501 110.525V108.292C323.079 107.554 320.79 106.608 318.595 105.435L317.006 107.025C312.787 111.244 305.938 111.244 301.718 107.025C297.499 102.805 297.499 95.955 301.718 91.7353L303.308 90.1458C302.135 87.9697 301.189 85.6612 300.451 83.2392H298.218C292.258 83.2392 287.415 78.3951 287.415 72.4345C287.415 66.474 292.258 61.6299 298.218 61.6299ZM336.323 94.1006C348.3 94.1006 357.987 84.3934 357.987 72.4345C357.987 60.4756 348.281 50.7685 336.323 50.7685C324.366 50.7685 314.66 60.4756 314.66 72.4345C314.641 84.4124 324.347 94.1006 336.323 94.1006Z" fill="#6A7EEF"/>
<path opacity="0.15" d="M79.6724 281.659C79.6724 282.737 61.8308 283.626 39.8267 283.626C17.8227 283.626 0 282.756 0 281.659C0 280.58 17.8416 279.691 39.8456 279.691C61.8497 279.691 79.6724 280.58 79.6724 281.659Z" fill="#22234C"/>
<path opacity="0.15" d="M493 274.922C493 276.001 475.159 276.89 453.155 276.89C431.151 276.89 413.309 276.001 413.309 274.922C413.309 273.844 431.151 272.954 453.155 272.954C475.159 272.954 493 273.825 493 274.922Z" fill="#22234C"/>
<path opacity="0.15" d="M449.976 274.922C449.976 276.001 405.287 276.89 350.173 276.89C295.058 276.89 250.369 276.001 250.369 274.922C250.369 273.844 295.058 272.954 350.173 272.954C405.287 272.954 449.976 273.825 449.976 274.922Z" fill="#22234C"/>
<path opacity="0.15" d="M264.445 300.032C264.445 301.111 248.798 302 229.519 302C210.239 302 194.592 301.111 194.592 300.032C194.592 298.954 210.239 298.064 229.519 298.064C248.798 298.064 264.445 298.935 264.445 300.032Z" fill="#22234C"/>
<path opacity="0.15" d="M341.62 256.208C341.62 257.854 291.444 259.198 229.556 259.198C167.669 259.198 117.493 257.854 117.493 256.208C117.493 254.562 167.669 253.218 229.556 253.218C291.444 253.218 341.62 254.543 341.62 256.208Z" fill="#22234C"/>
<path d="M276.554 251.95C274.227 251.818 270.405 251.534 268.57 251.08C261.002 249.207 254.456 240.483 254.456 232.687V194.692H202.274V232.687C202.274 240.483 195.728 249.207 188.16 251.08C186.344 251.534 182.503 251.818 180.176 251.95C179.097 252.007 178.246 252.896 178.246 253.994V255.886H228.365H278.484V253.994C278.465 252.915 277.633 252.007 276.554 251.95Z" fill="#22234C"/>
<path d="M202.275 194.692V222.791L254.456 231.912V194.692H202.275Z" fill="#081933"/>
<path d="M336.607 220.785H120.104C116.945 220.785 114.391 218.231 114.391 215.071V79.6818C114.391 76.5218 116.945 73.9673 120.104 73.9673H336.607C339.766 73.9673 342.321 76.5218 342.321 79.6818V215.09C342.321 218.231 339.766 220.785 336.607 220.785Z" fill="#22234C"/>
<path d="M334.488 80.5144H121.297V193.878H334.488V80.5144Z" fill="#565DB2"/>
<path d="M223.806 174.956L223.635 174.974V174.956H223.806Z" fill="#2A2A3B"/>
<path d="M424.187 267.448H276.213C272.921 267.448 270.272 264.78 270.272 261.506V179.402C270.272 176.11 272.94 173.461 276.213 173.461H424.187C427.479 173.461 430.128 176.129 430.128 179.402V261.506C430.147 264.799 427.479 267.448 424.187 267.448Z" fill="#3C3F6B"/>
<path d="M435.634 274.922H264.105C261.323 274.922 259.072 272.67 259.072 269.889V267.448H441.329V269.208C441.329 272.368 438.793 274.922 435.634 274.922Z" fill="#3C3F6B"/>
<path d="M441.329 267.448H259.072V269.965H441.329V267.448Z" fill="#565DB2"/>
<path d="M423.354 181.692H276.667V259.217H423.354V181.692Z" fill="#F3FBFB"/>
<path d="M278.616 181.692H421.387C422.465 181.692 423.335 182.392 423.335 183.244V257.665C423.335 258.517 422.465 259.217 421.387 259.217H278.616C277.537 259.217 276.667 258.517 276.667 257.665V183.244C276.667 182.392 277.537 181.692 278.616 181.692Z" fill="white"/>
<path d="M423.354 181.692H276.667V203.831H423.354V181.692Z" fill="#E23D55"/>
<path d="M316.759 197.378C316.759 196.868 317.195 196.451 317.743 196.451H347.088C347.637 196.451 348.072 196.868 348.072 197.378V203.831H316.778V197.378H316.759Z" fill="black" fill-opacity="0.3"/>
<path d="M350.74 197.378C350.74 196.868 351.175 196.451 351.724 196.451H381.069C381.617 196.451 382.052 196.868 382.052 197.378V203.831H350.759V197.378H350.74Z" fill="black" fill-opacity="0.3"/>
<path d="M282.779 197.378C282.779 196.868 283.214 196.451 283.763 196.451H313.108C313.657 196.451 314.092 196.868 314.092 197.378V203.831H282.798V197.378H282.779Z" fill="white"/>
<path d="M307.715 199.214H289.135V201.977H307.715V199.214Z" fill="#CBD5E0"/>
<path d="M341.695 199.214H323.115V201.977H341.695V199.214Z" fill="#CBD5E0" fill-opacity="0.5"/>
<path d="M375.675 199.214H357.096V201.977H375.675V199.214Z" fill="#CBD5E0" fill-opacity="0.5"/>
<path d="M419.437 187.217C420.514 187.217 421.386 186.396 421.386 185.382C421.386 184.368 420.514 183.546 419.437 183.546C418.361 183.546 417.489 184.368 417.489 185.382C417.489 186.396 418.361 187.217 419.437 187.217Z" fill="white"/>
<path d="M423.354 203.831H276.667V209.356H423.354V203.831Z" fill="white"/>
<path d="M300.129 205.212H285.466V207.975H300.129V205.212Z" fill="#A0AEC0"/>
<path d="M315.055 205.212H317.004C317.552 205.212 317.988 205.629 317.988 206.139V207.067C317.988 207.578 317.552 207.994 317.004 207.994H315.055C314.506 207.994 314.071 207.578 314.071 207.067V206.139C314.071 205.629 314.506 205.212 315.055 205.212Z" fill="#A0AEC0"/>
<path d="M320.43 205.212H322.378C322.927 205.212 323.362 205.629 323.362 206.139V207.067C323.362 207.578 322.927 207.994 322.378 207.994H320.43C319.881 207.994 319.446 207.578 319.446 207.067V206.139C319.446 205.629 319.881 205.212 320.43 205.212Z" fill="#A0AEC0"/>
<path d="M325.803 205.212H327.752C328.3 205.212 328.735 205.629 328.735 206.139V207.067C328.735 207.578 328.3 207.994 327.752 207.994H325.803C325.254 207.994 324.819 207.578 324.819 207.067V206.139C324.819 205.629 325.273 205.212 325.803 205.212Z" fill="#A0AEC0"/>
<path d="M423.354 209.375H276.667V259.217H423.354V209.375Z" fill="#F7FAFC"/>
<path d="M340.466 210.757H365.402C365.951 210.757 366.386 211.173 366.386 211.684V213.519C366.386 214.03 365.951 214.446 365.402 214.446H340.466C339.917 214.446 339.482 214.03 339.482 213.519V211.684C339.501 211.154 339.936 210.757 340.466 210.757Z" fill="#85D2DA"/>
<path d="M371.287 210.757H396.223C396.772 210.757 397.207 211.173 397.207 211.684V213.519C397.207 214.03 396.772 214.446 396.223 214.446H371.287C370.738 214.446 370.303 214.03 370.303 213.519V211.684C370.303 211.154 370.738 210.757 371.287 210.757Z" fill="#5A67D8"/>
<path d="M310.401 210.757H335.337C335.886 210.757 336.321 211.173 336.321 211.684V213.519C336.321 214.03 335.886 214.446 335.337 214.446H310.401C309.852 214.446 309.417 214.03 309.417 213.519V211.684C309.417 211.154 309.852 210.757 310.401 210.757Z" fill="#FBB157"/>
<path d="M279.6 210.757H304.537C305.085 210.757 305.521 211.173 305.521 211.684V213.519C305.521 214.03 305.085 214.446 304.537 214.446H279.6C279.051 214.446 278.616 214.03 278.616 213.519V211.684C278.616 211.154 279.051 210.757 279.6 210.757Z" fill="#E23D55"/>
<path d="M279.6 215.828H304.537C305.085 215.828 305.521 216.244 305.521 216.755V222.28C305.521 222.791 305.085 223.207 304.537 223.207H279.6C279.051 223.207 278.616 222.791 278.616 222.28V216.755C278.616 216.244 279.051 215.828 279.6 215.828Z" fill="#E2E8F0"/>
<path d="M310.401 216.282H335.337C335.886 216.282 336.321 216.698 336.321 217.209V222.734C336.321 223.245 335.886 223.662 335.337 223.662H310.401C309.852 223.662 309.417 223.245 309.417 222.734V217.209C309.417 216.698 309.852 216.282 310.401 216.282Z" fill="#E2E8F0"/>
<path d="M310.401 225.516H335.337C335.886 225.516 336.321 225.932 336.321 226.443V231.968C336.321 232.479 335.886 232.896 335.337 232.896H310.401C309.852 232.896 309.417 232.479 309.417 231.968V226.443C309.417 225.913 309.852 225.516 310.401 225.516Z" fill="#E2E8F0"/>
<path d="M341.203 216.282H366.14C366.688 216.282 367.124 216.698 367.124 217.209V222.734C367.124 223.245 366.688 223.662 366.14 223.662H341.203C340.654 223.662 340.219 223.245 340.219 222.734V217.209C340.219 216.698 340.673 216.282 341.203 216.282Z" fill="#E2E8F0"/>
<path d="M372.005 216.282H396.942C397.491 216.282 397.926 216.698 397.926 217.209V222.734C397.926 223.245 397.491 223.662 396.942 223.662H372.005C371.457 223.662 371.021 223.245 371.021 222.734V217.209C371.04 216.698 371.476 216.282 372.005 216.282Z" fill="#E2E8F0"/>
<path d="M341.203 225.516H366.14C366.688 225.516 367.124 225.932 367.124 226.443V231.968C367.124 232.479 366.688 232.896 366.14 232.896H341.203C340.654 232.896 340.219 232.479 340.219 231.968V226.443C340.219 225.913 340.673 225.516 341.203 225.516Z" fill="#E2E8F0"/>
<path d="M341.203 234.731H366.14C366.688 234.731 367.124 235.147 367.124 235.658V241.184C367.124 241.695 366.688 242.111 366.14 242.111H341.203C340.654 242.111 340.219 241.695 340.219 241.184V235.658C340.219 235.147 340.673 234.731 341.203 234.731Z" fill="#E2E8F0"/>
<path d="M341.203 243.946H366.14C366.688 243.946 367.124 244.363 367.124 244.873V250.399C367.124 250.91 366.688 251.326 366.14 251.326H341.203C340.654 251.326 340.219 250.91 340.219 250.399V244.873C340.219 244.363 340.673 243.946 341.203 243.946Z" fill="#E2E8F0"/>
<path d="M263.613 27.8726H54.2622V167.633H263.613V27.8726Z" fill="white"/>
<path opacity="0.1" d="M270.368 73.9673H120.104C116.945 73.9673 114.391 76.5218 114.391 79.6818V173.726H270.368V73.9673Z" fill="#364766"/>
<path d="M263.613 27.8726H54.2622V167.633H263.613V27.8726Z" fill="white"/>
<path d="M263.613 31.7894H54.2622V27.74C54.2622 25.6397 55.965 23.9556 58.0462 23.9556H263.613V31.7894Z" fill="#3C3F6B"/>
<path d="M196.826 69.3123H157.812V98.5661H196.826V69.3123Z" fill="#E0DFF7"/>
<path d="M197.128 135.881H157.51V106.022H197.128V135.881ZM158.115 135.275H196.523V106.627H158.115V135.275Z" fill="#E6E7E8"/>
<path d="M243.349 135.881H242.441V135.276H242.744V134.973H243.349V135.881Z" fill="#E6E7E8"/>
<path d="M241.23 135.881H240.019V135.276H241.23V135.881ZM238.789 135.881H237.578V135.276H238.789V135.881ZM236.349 135.881H235.138V135.276H236.349V135.881ZM233.908 135.881H232.697V135.276H233.908V135.881ZM231.467 135.881H230.256V135.276H231.467V135.881ZM229.027 135.881H227.816V135.276H229.027V135.881ZM226.586 135.881H225.375V135.276H226.586V135.881ZM224.164 135.881H222.953V135.276H224.164V135.881ZM221.723 135.881H220.513V135.276H221.723V135.881ZM219.283 135.881H218.072V135.276H219.283V135.881ZM216.842 135.881H215.631V135.276H216.842V135.881ZM214.401 135.881H213.19V135.276H214.401V135.881ZM211.961 135.881H210.75V135.276H211.961V135.881ZM209.52 135.881H208.309V135.276H209.52V135.881ZM207.079 135.881H205.868V135.276H207.079V135.881Z" fill="#E6E7E8"/>
<path d="M204.639 135.881H203.731V134.973H204.336V135.276H204.639V135.881Z" fill="#E6E7E8"/>
<path d="M204.336 133.762H203.731V132.551H204.336V133.762ZM204.336 131.321H203.731V130.11H204.336V131.321ZM204.336 128.88H203.731V127.669H204.336V128.88ZM204.336 126.439H203.731V125.228H204.336V126.439ZM204.336 123.998H203.731V122.787H204.336V123.998ZM204.336 121.557H203.731V120.346H204.336V121.557ZM204.336 119.116H203.731V117.905H204.336V119.116ZM204.336 116.675H203.731V115.464H204.336V116.675ZM204.336 114.234H203.731V113.023H204.336V114.234ZM204.336 111.793H203.731V110.582H204.336V111.793ZM204.336 109.371H203.731V108.16H204.336V109.371Z" fill="#E6E7E8"/>
<path d="M204.336 106.93H203.731V106.022H204.639V106.627H204.336V106.93Z" fill="#E6E7E8"/>
<path d="M241.23 106.627H240.019V106.022H241.23V106.627ZM238.789 106.627H237.578V106.022H238.789V106.627ZM236.349 106.627H235.138V106.022H236.349V106.627ZM233.908 106.627H232.697V106.022H233.908V106.627ZM231.467 106.627H230.256V106.022H231.467V106.627ZM229.027 106.627H227.816V106.022H229.027V106.627ZM226.586 106.627H225.375V106.022H226.586V106.627ZM224.164 106.627H222.953V106.022H224.164V106.627ZM221.723 106.627H220.513V106.022H221.723V106.627ZM219.283 106.627H218.072V106.022H219.283V106.627ZM216.842 106.627H215.631V106.022H216.842V106.627ZM214.401 106.627H213.19V106.022H214.401V106.627ZM211.961 106.627H210.75V106.022H211.961V106.627ZM209.52 106.627H208.309V106.022H209.52V106.627ZM207.079 106.627H205.868V106.022H207.079V106.627Z" fill="#E6E7E8"/>
<path d="M243.349 106.93H242.744V106.627H242.441V106.022H243.349V106.93Z" fill="#E6E7E8"/>
<path d="M243.349 133.762H242.744V132.551H243.349V133.762ZM243.349 131.321H242.744V130.11H243.349V131.321ZM243.349 128.88H242.744V127.669H243.349V128.88ZM243.349 126.439H242.744V125.228H243.349V126.439ZM243.349 123.998H242.744V122.787H243.349V123.998ZM243.349 121.557H242.744V120.346H243.349V121.557ZM243.349 119.116H242.744V117.905H243.349V119.116ZM243.349 116.675H242.744V115.464H243.349V116.675ZM243.349 114.234H242.744V113.023H243.349V114.234ZM243.349 111.793H242.744V110.582H243.349V111.793ZM243.349 109.371H242.744V108.16H243.349V109.371Z" fill="#E6E7E8"/>
<path d="M115.695 42.0074H76.6818V60.4945H115.695V42.0074Z" fill="#E0DFF7"/>
<path d="M241.817 60.7973H120.558V41.7047H241.817V60.7973ZM121.164 60.1918H241.211V42.3102H121.164V60.1918Z" fill="#E6E7E8"/>
<path d="M243.047 69.3123H204.034V98.5661H243.047V69.3123Z" fill="#E0DFF7"/>
<path d="M243.35 160.215H76.3806V143.999H243.35V160.215ZM76.9861 159.61H242.745V144.604H76.9861V159.61Z" fill="#E6E7E8"/>
<path d="M478.3 274.922H446.173C444.565 274.922 443.26 273.616 443.26 272.008V215.657C443.26 214.049 444.565 212.743 446.173 212.743H478.3C479.908 212.743 481.213 214.049 481.213 215.657V272.008C481.213 273.616 479.908 274.922 478.3 274.922Z" fill="#3C3F6B"/>
<path d="M478.414 269.7H446.061V217.966H478.414V269.7Z" fill="#F8FCFF"/>
<path d="M472.075 247.787H452.739C451.679 247.787 450.809 246.936 450.809 245.857C450.809 244.798 451.66 243.927 452.739 243.927H472.075C473.135 243.927 474.005 244.779 474.005 245.857C473.986 246.936 473.135 247.787 472.075 247.787Z" fill="#DADFE7"/>
<path d="M472.075 253.105H452.739C451.679 253.105 450.809 252.253 450.809 251.175C450.809 250.115 451.66 249.245 452.739 249.245H472.075C473.135 249.245 474.005 250.096 474.005 251.175C473.986 252.253 473.135 253.105 472.075 253.105Z" fill="#DADFE7"/>
<path d="M453.155 246.425C453.437 246.425 453.666 246.196 453.666 245.914C453.666 245.632 453.437 245.403 453.155 245.403C452.873 245.403 452.644 245.632 452.644 245.914C452.644 246.196 452.873 246.425 453.155 246.425Z" fill="#485E88"/>
<path d="M455.16 245.914C455.16 246.198 454.933 246.425 454.65 246.425C454.366 246.425 454.139 246.198 454.139 245.914C454.139 245.63 454.366 245.403 454.65 245.403C454.933 245.422 455.16 245.649 455.16 245.914Z" fill="#485E88"/>
<path d="M456.637 245.914C456.637 246.198 456.41 246.425 456.126 246.425C455.842 246.425 455.615 246.198 455.615 245.914C455.615 245.63 455.842 245.403 456.126 245.403C456.41 245.422 456.637 245.649 456.637 245.914Z" fill="#485E88"/>
<path d="M458.131 245.914C458.131 246.198 457.904 246.425 457.62 246.425C457.337 246.425 457.11 246.198 457.11 245.914C457.11 245.63 457.337 245.403 457.62 245.403C457.904 245.422 458.131 245.649 458.131 245.914Z" fill="white"/>
<path d="M459.606 245.914C459.606 246.198 459.379 246.425 459.095 246.425C458.811 246.425 458.584 246.198 458.584 245.914C458.584 245.63 458.811 245.403 459.095 245.403C459.379 245.422 459.606 245.649 459.606 245.914Z" fill="white"/>
<path d="M453.666 251.194C453.666 251.477 453.439 251.704 453.155 251.704C452.871 251.704 452.644 251.477 452.644 251.194C452.644 250.91 452.871 250.683 453.155 250.683C453.439 250.683 453.666 250.91 453.666 251.194Z" fill="#485E88"/>
<path d="M455.16 251.194C455.16 251.477 454.933 251.704 454.65 251.704C454.366 251.704 454.139 251.477 454.139 251.194C454.139 250.91 454.366 250.683 454.65 250.683C454.933 250.683 455.16 250.91 455.16 251.194Z" fill="#485E88"/>
<path d="M456.637 251.194C456.637 251.477 456.41 251.704 456.126 251.704C455.842 251.704 455.615 251.477 455.615 251.194C455.615 250.91 455.842 250.683 456.126 250.683C456.41 250.683 456.637 250.91 456.637 251.194Z" fill="#485E88"/>
<path d="M458.131 251.194C458.131 251.477 457.904 251.704 457.62 251.704C457.337 251.704 457.11 251.477 457.11 251.194C457.11 250.91 457.337 250.683 457.62 250.683C457.904 250.683 458.131 250.91 458.131 251.194Z" fill="white"/>
<path d="M459.606 251.194C459.606 251.477 459.379 251.704 459.095 251.704C458.811 251.704 458.584 251.477 458.584 251.194C458.584 250.91 458.811 250.683 459.095 250.683C459.379 250.683 459.606 250.91 459.606 251.194Z" fill="white"/>
<path d="M465.529 235.015L468.424 231.912C468.48 231.855 468.48 231.779 468.462 231.704C468.424 231.628 468.367 231.59 468.291 231.59H466.853C466.797 231.59 466.74 231.609 466.702 231.647L462.899 235.867C462.861 235.904 462.842 235.98 462.899 236.056C462.899 236.056 463.58 236.737 463.637 236.794C463.713 236.869 463.788 236.869 463.864 236.775L464.526 236.094L466.986 239.348C467.024 239.405 467.08 239.424 467.137 239.424H468.594C468.708 239.424 468.783 239.329 468.783 239.235C468.783 239.178 468.745 239.121 468.708 239.083L465.529 235.015Z" fill="#22234C"/>
<path d="M462.709 237.664C462.652 237.607 462.009 236.888 461.971 236.85C461.914 236.794 461.839 236.794 461.782 236.85C461.725 236.907 460.931 237.664 460.931 237.664L457.639 234.542L458.944 232.99H462.917C462.917 232.99 463.201 233.331 463.258 233.388C463.333 233.463 463.409 233.444 463.485 233.369C463.523 233.312 464.166 232.631 464.204 232.593C464.279 232.479 464.279 232.46 464.204 232.347C464.147 232.271 463.712 231.76 463.712 231.76C463.579 231.666 463.523 231.59 463.39 231.571C463.277 231.552 463.258 231.552 463.239 231.552H458.641C458.622 231.552 458.604 231.552 458.49 231.571C458.358 231.59 458.282 231.666 458.168 231.76L456.257 234.012C456.144 234.163 456.049 234.334 456.049 234.523C456.049 234.712 456.144 234.901 456.257 235.053C456.257 235.053 460.212 238.875 460.647 239.291C460.666 239.31 460.704 239.329 460.741 239.367C460.798 239.405 460.855 239.424 460.893 239.424H460.912H460.931H460.95H460.968C461.025 239.424 461.082 239.405 461.139 239.367C461.177 239.348 461.214 239.31 461.233 239.291C461.385 239.14 462.009 238.553 462.728 237.853C462.785 237.778 462.766 237.721 462.709 237.664Z" fill="#E23D55"/>
<path d="M388.674 171.341H353.086C352.934 171.341 352.802 171.209 352.802 171.058V149.713C352.802 149.562 352.934 149.429 353.086 149.429H388.674C388.826 149.429 388.958 149.562 388.958 149.713V171.058C388.958 171.209 388.845 171.341 388.674 171.341Z" fill="#3C3F6B"/>
<path d="M390.226 173.461H351.553C350.815 173.461 350.21 172.855 350.21 172.117V171.36H391.569V172.117C391.569 172.855 390.963 173.461 390.226 173.461Z" fill="#22234C"/>
<path d="M387.426 150.962H354.354V169.79H387.426V150.962Z" fill="#E0DFF7"/>
<path d="M393.216 285.197H393.367L393.405 285.916H396.81L396.716 284.97H396.602V284.951L396.583 281.488H393.045L392.97 281.942L391.343 283.134L386.158 284.61C386.158 284.61 385.742 284.781 385.761 285.008L385.78 285.424V285.67C385.78 285.67 385.837 285.784 386.272 285.897H392.213L392.572 285.424L392.913 285.197H393.216Z" fill="#485E88"/>
<path d="M415.731 285.197H415.882L415.92 285.916H419.326L419.231 284.97H419.118V284.951L418.891 281.488H415.353L415.277 281.942L413.858 283.134L408.674 284.61C408.674 284.61 408.258 284.781 408.277 285.008L408.295 285.424V285.67C408.295 285.67 408.352 285.784 408.787 285.897H414.728L415.088 285.424L415.428 285.197H415.731Z" fill="#485E88"/>
<path d="M400.197 285.746L400.026 285.765V285.746H400.197Z" fill="#2A2A3B"/>
<path d="M414.576 281.886H419.419L419.552 244.722L420.781 195.259H407.84L412.173 244.722L414.576 281.886Z" fill="#364766"/>
<path d="M392.403 281.677L397.246 281.904L401.995 244.192L409.544 196.3L397.076 195.732L396.565 210.53L394.635 243.852L392.403 281.677Z" fill="#364766"/>
<path d="M408.748 142.542L401.01 144.207L398.739 140.971L398.001 140.631L399.099 136.827L398.228 131.056L407.461 129.902L408.748 142.542Z" fill="#F9C0B2"/>
<path d="M408.161 150.186L405.228 150.508C404.396 150.603 403.658 149.997 403.563 149.164L402.674 140.99L408.615 140.347L409.504 148.521C409.599 149.354 408.993 150.111 408.161 150.186Z" fill="#F9C0B2"/>
<path d="M405.608 128.028C405.835 128.028 406.043 128.104 406.213 128.236L409.543 130.299C409.77 130.469 409.922 130.734 409.959 131.018L410.338 135.446C410.357 135.578 410.357 135.711 410.319 135.824L409.751 137.944C409.732 138.038 409.694 138.152 409.638 138.246L408.938 140.101L408.73 140.404C408.73 140.404 405.627 140.952 405.173 140.555C404.719 140.158 403.64 138.19 404.283 137.489C405.097 136.581 404.151 135.219 403.489 135.313C403.148 135.351 402.864 136.127 402.562 136.278C402.316 136.392 401.597 135.011 401.616 134.84C401.672 134.5 401.824 133.819 401.786 133.478C401.748 133.118 400.178 132.702 399.799 132.721C399.251 132.74 398.456 132.57 397.907 132.494C397.567 132.456 397.51 132.021 397.453 131.68C397.434 131.605 397.794 131.037 397.851 130.942C398.456 129.826 401.805 128.52 401.805 128.52L405.608 128.028Z" fill="#1A2C3D"/>
<path d="M386.668 169.374L384.379 168.409L381.636 168.73L378.514 171.058L379.29 171.398L379.744 171.077L382.184 172.307L382.468 171.417L382.771 171.266L384.833 171.985L386.423 172.136L389.242 173.177V170.168L386.668 169.374Z" fill="#F9C0B2"/>
<path d="M403.809 180.538L403.393 180.386C401.993 179.894 401.236 178.381 401.672 176.942L411.075 149.562C411.756 147.291 414.216 146.061 416.429 146.856C418.662 147.651 419.759 150.167 418.851 152.343L407.329 178.967C406.761 180.348 405.21 181.049 403.809 180.538Z" fill="#565DB2"/>
<path d="M387.122 173.461L387.879 169.506C387.879 169.506 401.861 173.291 406.307 175.732C407.651 176.469 408.18 178.135 407.215 179.327L406.894 179.724C405.929 180.935 404.623 180.954 402.958 180.216L387.122 173.461Z" fill="#565DB2"/>
<path d="M420.783 196.3H397.076L396.13 193.991L394.692 162.126L395.014 156.317C395.392 149.903 396.924 146.818 400.5 146.629L412.231 145.967C418.777 145.967 420.593 151.36 420.783 154.936L421.18 163.754L421.766 192.705L420.783 196.3Z" fill="#8CA1F9"/>
<path d="M242.536 288.868L243.86 297.061L242.593 297.742L238.714 299.483V300.392L247.19 300.505L247.834 299.672L246.263 288.527L242.536 288.868Z" fill="#F9C0B2"/>
<path d="M241.838 297.988L242.765 297.459L242.5 299.01L246.7 298.102L247.854 297.478L247.987 299.862L247.551 300.638H245.489H242.083L237.335 300.505L237.07 299.862L241.838 297.988Z" fill="#325B87"/>
<path d="M214.119 289.171L212.814 296.588L211.546 297.269L207.686 299.01V299.919L216.162 300.032L216.806 299.181L218.111 288.811L214.119 289.171Z" fill="#F9C0B2"/>
<path d="M210.808 297.497L211.735 296.986L211.47 298.518L216.03 297.591L217.184 296.986L216.957 299.389L216.503 300.146H214.441H211.054L206.305 300.032L206.04 299.389L210.808 297.497Z" fill="#325B87"/>
<path d="M213.286 292.274H218.244L225.112 248.034L233.682 210.019L221.555 210.359L217.619 248.034L213.286 292.274Z" fill="#454863"/>
<path d="M242.84 294.28H247.457L243.143 248.336L242.821 218.439L244.562 209.451L229.426 210.435L231.091 225.251L235.65 248.336L242.84 294.28Z" fill="#454863"/>
<path d="M233.077 134.102L232.755 130.829L233.985 128.199L233.399 123.695L232.699 124.244V125.644L232.472 126.761L232.207 126.742L231.336 124.13L230.863 120.743L226.682 122.882L226.833 125.966L227.212 128.066L228.574 130.356L229.161 134.632L233.077 134.102Z" fill="#F9C0B2"/>
<path d="M227.666 130.829L204.073 128.842C201.537 128.634 199.664 126.401 199.891 123.884L201.878 100.288C202.086 97.7527 204.318 95.8793 206.835 96.1064L230.428 98.0933C232.963 98.3014 234.836 100.534 234.609 103.051L232.623 126.647C232.415 129.164 230.201 131.056 227.666 130.829Z" fill="#6A7EEF"/>
<path d="M224.052 120.441L208.462 119.021C208.538 118.189 208.935 117.413 209.579 116.883L209.919 116.599C210.468 116.145 210.808 115.483 210.884 114.764L211.225 111.131C211.527 107.876 214.46 105.492 217.733 105.908C218.206 105.965 218.679 106.097 219.114 106.268C218.906 106.703 218.755 107.195 218.717 107.725C218.509 110.052 220.212 112.096 222.539 112.323C222.614 112.323 222.69 112.342 222.766 112.342L222.444 115.823C222.387 116.543 222.596 117.243 223.05 117.791L223.333 118.132C223.598 118.454 223.806 118.813 223.92 119.211C224.033 119.608 224.09 120.024 224.052 120.441Z" fill="white"/>
<path d="M219.247 120.857C219.02 122.522 217.488 123.733 215.785 123.506C214.196 123.298 213.041 121.879 213.098 120.289L219.247 120.857Z" fill="white"/>
<path d="M222.898 111.263C224.643 111.263 226.058 109.848 226.058 108.103C226.058 106.358 224.643 104.943 222.898 104.943C221.153 104.943 219.739 106.358 219.739 108.103C219.739 109.848 221.153 111.263 222.898 111.263Z" fill="#E23D55"/>
<path d="M223.674 106.646L223.391 109.806L222.52 109.73L222.71 107.649C222.558 107.744 222.407 107.819 222.274 107.876C222.142 107.933 221.972 107.971 221.764 108.027L221.82 107.327C222.123 107.252 222.369 107.157 222.539 107.043C222.71 106.93 222.861 106.779 222.974 106.589L223.674 106.646Z" fill="white"/>
<path d="M243.18 174.842C243.842 174.539 244.334 174.256 244.334 174.256C245.715 173.593 246.32 171.417 245.563 170.093C241.628 163.167 236.52 152.836 236.52 152.836L233.322 131.832L228.611 133.61L230.881 153.933L231.411 156.166L238.733 175.769C239.377 177.17 242.196 175.315 243.18 174.842Z" fill="#A31934"/>
<path d="M236.425 163.697L227.154 160.329L227.684 156.033L226.719 155.201L229.406 151.946L231.222 146.534L241.514 150.508L236.425 163.697Z" fill="#F9C0B2"/>
<path d="M235.819 168.673L232.697 168.654C231.884 168.654 231.222 167.992 231.241 167.179L231.278 158.758L237.352 158.796L237.314 167.216C237.276 168.011 236.614 168.673 235.819 168.673Z" fill="#F9C0B2"/>
<path d="M237.692 145.475C241.344 146.705 243.463 147.708 243.217 154.766C243.16 156.279 244.068 157.358 245.392 157.831C245.865 158.777 246.547 161.029 244.352 162.448C241.533 164.284 242.138 167.103 239.149 165.476C236.935 164.265 236.349 164 235.762 163.47C235.516 163.262 233.359 161.237 233.076 160.991C231.448 159.61 232.319 157.982 232.962 156.998C233.454 156.242 234.286 154.69 234.551 154.293C234.684 154.084 234.816 152.949 234.135 152.798C232.981 152.533 233.586 151.341 233.492 150.981C233.416 150.697 233.227 150.451 233.227 150.451C233.227 150.451 231.846 150.035 231.562 149.675C230.767 148.635 229.519 142.731 237.692 145.475Z" fill="#22234C"/>
<path d="M245.413 213.311L243.275 201.352L243.199 193.67L246.359 175.807C246.567 172.193 245.659 167.595 242.026 167.387L240.721 167.311L230.371 166.63L227.477 166.422C222.766 166.422 222.217 176.715 222.217 176.715L223.447 193.083L223.03 197.852L218.641 211.703L245.413 213.311Z" fill="#A31934"/>
<path d="M210.713 135.143L210.032 132.097L210.505 129.504L210.24 127.442L209.01 125.266L208.594 126.344L208.859 127.252L208.972 128.312H208.707L207.705 126.401L206.986 123.468L204.318 125.814L204.167 128.161L204.772 130.091L206.04 132.115L207.08 136.07L210.713 135.143Z" fill="#F9C0B2"/>
<path d="M227.74 173.612C228.327 173.196 228.762 172.836 228.762 172.836C230.011 171.947 230.238 169.714 229.273 168.522C224.221 162.353 215.65 154.387 215.65 154.387L210.731 132.91L206.077 134.424L210.258 156.45L211.166 158.569L223.502 175.315C224.373 176.545 226.832 174.255 227.74 173.612Z" fill="#A31934"/>
<path opacity="0.4" d="M151.096 69.161H76.532V135.578H151.096V69.161Z" fill="#E6E7E8"/>
<path d="M115.829 67.458H112.101V71.1857H115.829V67.458Z" fill="#B6BFCF"/>
<path d="M78.5386 104.316V100.589H74.8113V104.316H78.5386Z" fill="#B6BFCF"/>
<path d="M151.398 135.73H150.642V135.427H151.096V134.973H151.398V135.73Z" fill="#B6BFCF"/>
<path d="M149.45 135.73H148.239V135.427H149.45V135.73ZM147.047 135.73H145.836V135.427H147.047V135.73ZM144.626 135.73H143.415V135.427H144.626V135.73ZM142.223 135.73H141.012V135.427H142.223V135.73ZM139.82 135.73H138.609V135.427H139.82V135.73ZM137.417 135.73H136.225V135.427H137.436V135.73H137.417ZM135.014 135.73H133.803V135.427H135.014V135.73ZM132.611 135.73H131.4V135.427H132.611V135.73ZM130.209 135.73H128.998V135.427H130.209V135.73ZM127.806 135.73H126.595V135.427H127.806V135.73ZM125.384 135.73H124.173V135.427H125.384V135.73ZM122.981 135.73H121.77V135.427H122.981V135.73ZM120.578 135.73H119.386V135.427H120.597V135.73H120.578ZM118.175 135.73H116.964V135.427H118.175V135.73ZM115.773 135.73H114.562V135.427H115.773V135.73ZM113.37 135.73H112.159V135.427H113.37V135.73ZM110.967 135.73H109.756V135.427H110.967V135.73ZM108.545 135.73H107.334V135.427H108.545V135.73ZM106.142 135.73H104.931V135.427H106.142V135.73ZM103.739 135.73H102.547V135.427H103.758V135.73H103.739ZM101.337 135.73H100.126V135.427H101.337V135.73ZM98.9337 135.73H97.7228V135.427H98.9337V135.73ZM96.5308 135.73H95.3199V135.427H96.5308V135.73ZM94.128 135.73H92.9171V135.427H94.128V135.73ZM91.7062 135.73H90.4953V135.427H91.7062V135.73ZM89.3034 135.73H88.0925V135.427H89.3034V135.73ZM86.9005 135.73H85.7085V135.427H86.9194V135.73H86.9005ZM84.4977 135.73H83.2868V135.427H84.4977V135.73ZM82.0948 135.73H80.8839V135.427H82.0948V135.73ZM79.692 135.73H78.4811V135.427H79.692V135.73Z" fill="#B6BFCF"/>
<path d="M77.2887 135.73H76.5319V134.973H76.8346V135.427H77.2887V135.73Z" fill="#B6BFCF"/>
<path d="M76.8346 133.8H76.5319V132.608H76.8346V133.8ZM76.8346 131.434H76.5319V130.242H76.8346V131.434ZM76.8346 129.069H76.5319V127.877H76.8346V129.069ZM76.8346 126.704H76.5319V125.512H76.8346V126.704ZM76.8346 124.338H76.5319V123.146H76.8346V124.338ZM76.8346 121.973H76.5319V120.781H76.8346V121.973ZM76.8346 119.608H76.5319V118.416H76.8346V119.608ZM76.8346 117.243H76.5319V116.05H76.8346V117.243ZM76.8346 114.877H76.5319V113.685H76.8346V114.877ZM76.8346 112.493H76.5319V111.301H76.8346V112.493ZM76.8346 110.128H76.5319V108.955H76.8346V110.128ZM76.8346 107.763H76.5319V106.589H76.8346V107.763ZM76.8346 105.397H76.5319V104.224H76.8346V105.397ZM76.8346 103.032H76.5319V101.859H76.8346V103.032ZM76.8346 100.667H76.5319V99.4935H76.8346V100.667ZM76.8346 98.3014H76.5319V97.1282H76.8346V98.3014ZM76.8346 95.9361H76.5319V94.7629H76.8346V95.9361ZM76.8346 93.5708H76.5319V92.3976H76.8346V93.5708ZM76.8346 91.2055H76.5319V90.0323H76.8346V91.2055ZM76.8346 88.8402H76.5319V87.6481H76.8346V88.8402ZM76.8346 86.4749H76.5319V85.2828H76.8346V86.4749ZM76.8346 84.1096H76.5319V82.9175H76.8346V84.1096ZM76.8346 81.7443H76.5319V80.5522H76.8346V81.7443ZM76.8346 79.379H76.5319V78.1869H76.8346V79.379ZM76.8346 77.0138H76.5319V75.8216H76.8346V77.0138ZM76.8346 74.6485H76.5319V73.4564H76.8346V74.6485ZM76.8346 72.2832H76.5319V71.0911H76.8346V72.2832Z" fill="#B6BFCF"/>
<path d="M76.8346 69.9179H76.5319V69.161H77.2887V69.4638H76.8346V69.9179Z" fill="#B6BFCF"/>
<path d="M149.45 69.4638H148.239V69.161H149.45V69.4638ZM147.047 69.4638H145.836V69.161H147.047V69.4638ZM144.626 69.4638H143.415V69.161H144.626V69.4638ZM142.223 69.4638H141.012V69.161H142.223V69.4638ZM139.82 69.4638H138.609V69.161H139.82V69.4638ZM137.417 69.4638H136.206V69.161H137.417V69.4638ZM135.014 69.4638H133.803V69.161H135.014V69.4638ZM132.611 69.4638H131.4V69.161H132.611V69.4638ZM130.209 69.4638H128.998V69.161H130.209V69.4638ZM127.806 69.4638H126.595V69.161H127.806V69.4638ZM125.384 69.4638H124.173V69.161H125.384V69.4638ZM122.981 69.4638H121.77V69.161H122.981V69.4638ZM120.578 69.4638H119.386V69.161H120.597V69.4638H120.578ZM118.175 69.4638H116.964V69.161H118.175V69.4638ZM115.773 69.4638H114.562V69.161H115.773V69.4638ZM113.37 69.4638H112.159V69.161H113.37V69.4638ZM110.967 69.4638H109.756V69.161H110.967V69.4638ZM108.545 69.4638H107.334V69.161H108.545V69.4638ZM106.142 69.4638H104.931V69.161H106.142V69.4638ZM103.739 69.4638H102.547V69.161H103.758V69.4638H103.739ZM101.337 69.4638H100.126V69.161H101.337V69.4638ZM98.9337 69.4638H97.7228V69.161H98.9337V69.4638ZM96.5308 69.4638H95.3199V69.161H96.5308V69.4638ZM94.128 69.4638H92.9171V69.161H94.128V69.4638ZM91.7062 69.4638H90.4953V69.161H91.7062V69.4638ZM89.3034 69.4638H88.0925V69.161H89.3034V69.4638ZM86.9005 69.4638H85.7085V69.161H86.9194V69.4638H86.9005ZM84.4977 69.4638H83.2868V69.161H84.4977V69.4638ZM82.0948 69.4638H80.8839V69.161H82.0948V69.4638ZM79.692 69.4638H78.4811V69.161H79.692V69.4638Z" fill="#B6BFCF"/>
<path d="M151.398 69.9179H151.096V69.4638H150.642V69.161H151.398V69.9179Z" fill="#B6BFCF"/>
<path d="M151.399 133.8H151.096V132.608H151.399V133.8ZM151.399 131.434H151.096V130.242H151.399V131.434ZM151.399 129.069H151.096V127.877H151.399V129.069ZM151.399 126.704H151.096V125.512H151.399V126.704ZM151.399 124.338H151.096V123.146H151.399V124.338ZM151.399 121.973H151.096V120.781H151.399V121.973ZM151.399 119.608H151.096V118.416H151.399V119.608ZM151.399 117.243H151.096V116.05H151.399V117.243ZM151.399 114.858H151.096V113.685H151.399V114.858ZM151.399 112.493H151.096V111.32H151.399V112.493ZM151.399 110.128H151.096V108.955H151.399V110.128ZM151.399 107.763H151.096V106.589H151.399V107.763ZM151.399 105.397H151.096V104.224H151.399V105.397ZM151.399 103.032H151.096V101.859H151.399V103.032ZM151.399 100.667H151.096V99.4935H151.399V100.667ZM151.399 98.3014H151.096V97.1282H151.399V98.3014ZM151.399 95.9361H151.096V94.7629H151.399V95.9361ZM151.399 93.5708H151.096V92.3787H151.399V93.5708ZM151.399 91.2055H151.096V90.0134H151.399V91.2055ZM151.399 88.8402H151.096V87.6481H151.399V88.8402ZM151.399 86.4749H151.096V85.2828H151.399V86.4749ZM151.399 84.1096H151.096V82.9175H151.399V84.1096ZM151.399 81.7443H151.096V80.5522H151.399V81.7443ZM151.399 79.379H151.096V78.1869H151.399V79.379ZM151.399 77.0138H151.096V75.8216H151.399V77.0138ZM151.399 74.6485H151.096V73.4564H151.399V74.6485ZM151.399 72.2832H151.096V71.0911H151.399V72.2832Z" fill="#B6BFCF"/>
<path d="M78.5578 67.458H74.8306V71.1857H78.5578V67.458Z" fill="#B6BFCF"/>
<path d="M152.4 68.1582H150.073V70.4856H152.4V68.1582Z" fill="#B6BFCF"/>
<path d="M152.4 101.291H150.073V103.619H152.4V101.291Z" fill="#B6BFCF"/>
<path d="M152.4 134.405H150.073V136.733H152.4V134.405Z" fill="#B6BFCF"/>
<path d="M115.129 134.405H112.802V136.733H115.129V134.405Z" fill="#B6BFCF"/>
<path d="M77.8558 134.405H75.5287V136.733H77.8558V134.405Z" fill="#B6BFCF"/>
<path d="M403.925 152.93C403.925 152.93 400.822 175.239 400.008 178.135C399.195 181.03 398.835 182.07 397.681 182.733C396.527 183.395 395.656 183.3 395.656 183.3V178.74L400.122 160.764L401.295 156.204L403.925 152.93Z" fill="#565DB2"/>
<path d="M369.982 167.557L368.052 167.443L362.528 170.093L362.887 170.641L365.328 170.66L368.28 171.758L370.701 171.625L374.202 172.988L375.072 170.206L369.982 167.557Z" fill="#F9C0B2"/>
<path d="M394.843 182.241L394.389 182.165C392.914 181.938 391.892 180.613 392.024 179.119L395.468 151.151C396.035 148.843 398.382 146.402 400.728 146.761L401.22 146.875C403.566 147.234 404.644 149.373 404.171 151.7C404.171 151.7 399.763 173.007 397.984 180.046C397.644 181.484 396.319 182.468 394.843 182.241Z" fill="#8CA1F9"/>
<path d="M373.028 173.461L373.879 169.165C373.879 169.165 392.251 174.104 397.813 176.848C398.608 177.245 398.305 180.273 397.284 181.427L396.962 181.711C396.054 182.279 395.032 182.638 392.97 181.654L373.028 173.461Z" fill="#8CA1F9"/>
<path d="M41.2091 280.883H41.0577L41.0199 281.659H37.3115L37.4061 280.637H37.5196V280.618L37.7467 276.758H41.5875L41.5496 277.06L43.2146 278.631L49.0609 280.239C49.0609 280.239 49.496 280.429 49.496 280.675L49.4771 281.11V281.375C49.4771 281.375 49.4014 281.488 48.9473 281.621H42.2686L41.8713 281.11L41.4929 280.864L41.2091 280.883Z" fill="#1A2C3D"/>
<path d="M17.9747 280.883H17.8233L17.7855 281.659H14.0771L14.1717 280.637H14.2853V280.618L14.7583 276.758H18.599L18.5612 277.06L19.9802 278.631L25.8265 280.239C25.8265 280.239 26.2617 280.429 26.2617 280.675L26.2428 281.11L26.2238 281.375C26.2238 281.375 26.1482 281.488 25.6941 281.621H19.0153L18.618 281.11L18.2396 280.864L17.9747 280.883Z" fill="#1A2C3D"/>
<path d="M19.3174 277.079H14.2657L17.6146 238.27L20.2445 194.578H32.7885L25.3151 238.27L19.3174 277.079Z" fill="#22234C"/>
<path d="M42.3634 277.212H37.2928L33.7358 237.626L27.53 194.578H40.5849L40.6416 199.195L41.4363 237.626L42.3634 277.212Z" fill="#22234C"/>
<path d="M22.7801 143.526L32.9402 140.971L32.2401 137.206L33.1483 135.238L30.613 133.099L28.2858 126.647L18.4285 131.529L22.7801 143.526Z" fill="#F9C0B2"/>
<path d="M25.1266 149.127L27.8511 148.786C28.7403 148.672 29.4782 148.294 29.3647 147.386L28.2484 138.852L22.2697 139.59L23.2724 147.689C23.4049 148.597 24.2184 149.24 25.1266 149.127Z" fill="#F9C0B2"/>
<path d="M22.2888 141.274C22.2888 141.274 22.2509 140.46 22.5347 139.912C22.8185 139.363 23.6132 136.43 22.7428 136.014C21.6455 135.484 22.005 133.856 22.6672 133.686C22.9888 133.592 23.5753 134.216 23.9159 134.235C24.1997 134.254 24.3321 132.683 24.2375 132.532C24.0672 132.248 24.0862 131.775 23.9916 131.453C23.878 131.094 24.2943 129.996 24.6348 129.864C25.1646 129.675 28.9108 130.053 29.3838 129.769C29.6865 129.599 29.573 129.164 29.4973 128.842C29.3838 128.35 28.5513 127.044 28.5513 127.044C28.4567 126.855 28.2864 126.685 28.0972 126.59L26.735 125.89C26.4512 125.739 26.1295 125.72 25.8457 125.833L24.8051 127.404C24.7862 127.404 24.7673 127.423 24.7294 127.442L20.5103 128.558C20.3022 128.653 20.1508 128.804 20.0373 128.993L17.7101 132.191C17.5587 132.437 17.5209 132.74 17.5777 133.024L18.8642 137.527C18.9021 137.66 18.9399 137.773 19.0156 137.887L20.3022 139.533C20.3589 139.628 20.4346 139.703 20.5103 139.76L21.9482 141.406L22.2888 141.274Z" fill="#1B2433"/>
<path d="M57.5364 128.369L57.2715 128.615L57.1012 128.388L58.0472 127.177L57.9148 126.287L55.7579 128.331L55.739 130.791L54.5281 132.626L56.8552 134.67L58.0283 132.721L58.4445 132.324L57.5364 128.369Z" fill="#4550A0"/>
<path d="M28.5318 151.132L28.4561 150.735C28.0966 149.562 29.8183 146.515 31.0292 146.326C37.8972 145.191 45.8626 144.623 45.8626 144.623L55.3226 131.094L57.8011 133.837L50.4791 147.556L48.5492 149.127L33.205 153.914C32.0509 154.444 29.2697 153.479 28.5318 151.132Z" fill="#4550A0"/>
<path d="M20.3207 194.975H40.6787L41.3976 191.645L38.6164 158.115L37.8785 152.003C37.4433 148.427 34.208 145.891 30.6321 146.307L17.4448 147.651C13.8689 148.086 13.2257 154.822 13.6608 158.399L16.3853 172.799L18.9774 191.683L20.3207 194.975Z" fill="#565DB2"/>
<path d="M20.4147 154.974L39.032 147.783L41.397 145.021L37.5752 145.342L32.7506 148.294L24.9555 152.041L21.7202 154.065L20.4147 154.974Z" fill="#4550A0"/>
<path opacity="0.1" d="M134.621 62.3694L48.9888 81.9525L62.231 139.871L147.863 120.288L134.621 62.3694Z" fill="#364766"/>
<path d="M145.383 118.946L59.7504 138.53L46.4685 79.8711L132.101 60.2865L145.383 118.946Z" fill="#E0DFF7"/>
<path d="M51.7476 81.9715L128.487 64.2413C129.074 64.1088 129.641 64.4684 129.774 65.055L141.429 115.521C141.561 116.107 141.202 116.675 140.615 116.807L63.8942 134.538C63.3077 134.67 62.7401 134.311 62.6077 133.724L50.9529 83.2582C50.8016 82.6716 51.18 82.104 51.7476 81.9715Z" fill="white"/>
<path d="M129.547 63.9754L50.7052 82.201L53.6196 94.8113L132.461 76.5857L129.547 63.9754Z" fill="#E23D55"/>
<path d="M74.3185 86.1722C74.2428 85.8884 74.432 85.5856 74.7158 85.5289L90.4952 81.8769C90.779 81.8012 91.0817 81.9904 91.1385 82.2742L91.9899 85.9452L75.1699 89.8243L74.3185 86.1722Z" fill="black" fill-opacity="0.3"/>
<path d="M92.576 81.9337C92.5192 81.6499 92.7084 81.366 92.9922 81.2904L108.772 77.6383C109.055 77.5626 109.358 77.7519 109.415 78.0357L110.266 81.7066L93.4463 85.5857L92.576 81.9337Z" fill="black" fill-opacity="0.3"/>
<path d="M56.0616 90.392C55.9859 90.1081 56.1751 89.8054 56.4589 89.7486L72.2382 86.0966C72.522 86.0209 72.8247 86.2101 72.8815 86.494L73.7329 90.1649L56.913 94.044L56.0616 90.392Z" fill="white"/>
<path d="M69.7094 88.3248L59.7183 90.6344L60.0847 92.2199L70.0758 89.9103L69.7094 88.3248Z" fill="#CBD5E0"/>
<path d="M87.9679 84.1065L77.9768 86.4161L78.3432 88.0016L88.3343 85.692L87.9679 84.1065Z" fill="#CBD5E0" fill-opacity="0.5"/>
<path d="M106.245 79.884L96.2538 82.1936L96.6202 83.7791L106.611 81.4695L106.245 79.884Z" fill="#CBD5E0" fill-opacity="0.5"/>
<path d="M127.939 67.6474C128.534 67.6474 129.017 67.1645 129.017 66.5688C129.017 65.9731 128.534 65.4902 127.939 65.4902C127.343 65.4902 126.86 65.9731 126.86 66.5688C126.86 67.1645 127.343 67.6474 127.939 67.6474Z" fill="white"/>
<path d="M132.455 76.5867L53.6135 94.8123L54.3421 97.9648L133.184 79.7392L132.455 76.5867Z" fill="white"/>
<path d="M132.864 83.1494L56.1244 100.889L56.853 104.042L133.593 86.3019L132.864 83.1494Z" fill="#F7FAFC"/>
<path d="M134.261 89.185L57.5214 106.925L58.25 110.077L134.99 92.3376L134.261 89.185Z" fill="#F7FAFC"/>
<path d="M66.429 92.6924L58.5393 94.5162L58.9057 96.1017L66.7954 94.2779L66.429 92.6924Z" fill="#A0AEC0"/>
<path d="M74.433 90.846L75.4925 90.6C75.7763 90.5243 76.079 90.7135 76.1358 90.9974L76.2493 91.5272C76.325 91.811 76.1358 92.1138 75.852 92.1705L74.7925 92.4165C74.5087 92.4922 74.2059 92.303 74.1492 92.0192L74.0357 91.4893C73.96 91.2055 74.1492 90.9028 74.433 90.846Z" fill="#A0AEC0"/>
<path d="M77.3266 90.1838L78.3861 89.9378C78.6699 89.8621 78.9726 90.0513 79.0294 90.3351L79.1429 90.865C79.2186 91.1488 79.0294 91.4516 78.7456 91.5083L77.6861 91.7543C77.4023 91.83 77.0996 91.6408 77.0428 91.3569L76.9104 90.8271C76.8536 90.5244 77.0239 90.2405 77.3266 90.1838Z" fill="#A0AEC0"/>
<path d="M80.2213 89.5026L81.2808 89.2566C81.5646 89.1809 81.8673 89.3702 81.9241 89.654L82.0376 90.1838C82.1133 90.4677 81.9241 90.7704 81.6403 90.8272L80.5807 91.0732C80.2969 91.1489 79.9942 90.9596 79.9375 90.6758L79.8239 90.146C79.7483 89.8621 79.9185 89.5783 80.2213 89.5026Z" fill="#A0AEC0"/>
<path d="M132.144 79.9872L55.4038 97.7271L56.1324 100.88L132.872 83.1398L132.144 79.9872Z" fill="#A0AEC0"/>
<path d="M133.594 86.3054L56.8544 104.045L57.5233 106.94L134.263 89.1998L133.594 86.3054Z" fill="#E2E8F0"/>
<path d="M135.721 95.5047L58.981 113.245L59.7096 116.397L136.45 98.6573L135.721 95.5047Z" fill="#F7FAFC"/>
<path d="M137.119 101.54L60.3795 119.28L61.1081 122.433L137.848 104.693L137.119 101.54Z" fill="#F7FAFC"/>
<path d="M135 92.3426L58.2604 110.082L58.989 113.235L135.729 95.4952L135 92.3426Z" fill="#E2E8F0"/>
<path d="M136.452 98.6607L59.7125 116.401L60.3815 119.295L137.121 101.555L136.452 98.6607Z" fill="#E2E8F0"/>
<path d="M138.579 107.86L61.8392 125.6L62.5678 128.753L139.308 111.013L138.579 107.86Z" fill="#F7FAFC"/>
<path d="M139.978 113.896L63.2378 131.635L63.9664 134.788L140.706 117.048L139.978 113.896Z" fill="#F7FAFC"/>
<path d="M137.859 104.698L61.1187 122.438L61.8472 125.59L138.587 107.851L137.859 104.698Z" fill="#E2E8F0"/>
<path d="M139.311 111.016L62.5709 128.756L63.2399 131.65L139.98 113.91L139.311 111.016Z" fill="#E2E8F0"/>
<path d="M72.1428 97.7149L83.3813 95.1226C83.7029 95.0469 84.0435 95.2929 84.1192 95.6713L84.2706 96.3525C84.3652 96.731 84.1759 97.1094 83.8543 97.1662L72.6158 99.7585C72.2942 99.8342 71.9536 99.5882 71.8779 99.2098L71.7266 98.5286C71.632 98.1501 71.8212 97.7906 72.1428 97.7149Z" stroke="#E23D55" stroke-width="0.25" stroke-miterlimit="10"/>
<path opacity="0.46" d="M70.8751 97.47L56.1281 100.879L63.2351 131.63L77.9821 128.221L70.8751 97.47Z" fill="#CBD5E0"/>
<path opacity="0.46" d="M85.0429 94.1952L84.5452 94.3103L91.6522 125.062L92.1499 124.947L85.0429 94.1952Z" fill="#CBD5E0"/>
<path opacity="0.7" d="M95.7443 92.2488L85.6057 94.5925L86.0829 96.6574L96.2215 94.3136L95.7443 92.2488Z" fill="#D2EEFD"/>
<path opacity="0.46" d="M96.6037 91.5274L96.106 91.6425L103.213 122.394L103.711 122.279L96.6037 91.5274Z" fill="#CBD5E0"/>
<path opacity="0.46" d="M113.687 87.5727L113.189 87.6877L120.296 118.439L120.794 118.324L113.687 87.5727Z" fill="#CBD5E0"/>
<path opacity="0.46" d="M125.248 84.9047L124.75 85.0198L131.857 115.771L132.355 115.656L125.248 84.9047Z" fill="#CBD5E0"/>
<path opacity="0.7" d="M112.832 88.3015L97.1814 91.9193L97.6586 93.9841L113.309 90.3663L112.832 88.3015Z" fill="#D2EEFD"/>
<path opacity="0.7" d="M124.461 85.5999L114.248 87.9607L114.726 90.0255L124.938 87.6648L124.461 85.5999Z" fill="#D2EEFD"/>
<path opacity="0.7" d="M132.436 83.7571L125.763 85.2997L126.24 87.3645L132.913 85.8219L132.436 83.7571Z" fill="#D2EEFD"/>
<path d="M60.1284 120.951L59.8446 117.659L57.2147 118.567L55.3038 118.832L54.9443 118.491L55.0389 118.094L54.793 116.978L53.6388 118.605L53.4118 120.97L51.8414 122.825L54.0362 125.152L56.0984 122.844L57.7823 122.333L60.1284 120.951Z" fill="#F9C0B2"/>
<path d="M15.5143 152.854L15.2683 152.324C14.7386 151.208 14.7953 148.654 17.1414 147.745C23.0823 145.418 36.5345 139.987 36.5345 139.987L52.6355 121.651L55.2843 124.319L41.4726 143.582L39.3914 145.399L21.6255 154.444C19.5821 155.825 16.5738 155.068 15.5143 152.854Z" fill="#565DB2"/>
<path d="M160.423 71.7156H193.401C193.704 71.7156 193.95 72.0562 193.95 72.4535V95.4631C193.95 95.8794 193.704 96.2011 193.401 96.2011H160.423C160.12 96.2011 159.875 95.8605 159.875 95.4631V72.4725C159.875 72.0562 160.12 71.7156 160.423 71.7156Z" fill="#F7FAFC"/>
<path d="M168.104 74.8944C169.183 74.8944 170.242 75.235 171.113 75.8784C171.983 76.5217 172.645 77.4111 172.986 78.4518C173.326 79.4736 173.326 80.59 172.986 81.6308C172.645 82.6526 172.002 83.5608 171.113 84.2042L169.296 81.7065C169.656 81.4605 169.902 81.1009 170.034 80.6846C170.167 80.2684 170.167 79.8331 170.034 79.4168C169.902 79.0006 169.637 78.641 169.296 78.395C168.956 78.1491 168.521 77.9977 168.086 77.9977V74.8944H168.104Z" fill="#A31934"/>
<path d="M171.113 84.1853C170.451 84.6583 169.694 84.98 168.899 85.0935C168.104 85.226 167.272 85.1503 166.515 84.9043C165.739 84.6583 165.039 84.2231 164.472 83.6554C163.904 83.0878 163.469 82.3876 163.223 81.6118C162.977 80.836 162.901 80.0224 163.034 79.2276C163.166 78.4329 163.469 77.676 163.942 77.0137C164.415 76.3514 165.039 75.8216 165.758 75.4621C166.477 75.1026 167.272 74.8944 168.086 74.8944V77.9787C167.764 77.9787 167.442 78.0544 167.158 78.2058C166.875 78.3572 166.629 78.5653 166.421 78.8302C166.231 79.0952 166.099 79.3979 166.061 79.7196C166.004 80.0413 166.042 80.363 166.137 80.6657C166.231 80.9685 166.402 81.2523 166.629 81.4794C166.856 81.7064 167.14 81.8767 167.442 81.9714C167.745 82.066 168.086 82.1038 168.388 82.047C168.71 81.9903 169.013 81.8767 169.278 81.6875L171.113 84.1853Z" fill="#E23D55"/>
<path d="M176.712 79.9845C177.235 79.9845 177.658 79.5609 177.658 79.0384C177.658 78.5159 177.235 78.0923 176.712 78.0923C176.19 78.0923 175.766 78.5159 175.766 79.0384C175.766 79.5609 176.19 79.9845 176.712 79.9845Z" fill="#A31934"/>
<path d="M176.712 82.9175C177.235 82.9175 177.658 82.4939 177.658 81.9714C177.658 81.4489 177.235 81.0253 176.712 81.0253C176.19 81.0253 175.766 81.4489 175.766 81.9714C175.766 82.4939 176.19 82.9175 176.712 82.9175Z" fill="#E23D55"/>
<path d="M184.054 78.4707H178.397V79.606H184.054V78.4707Z" fill="#A0AEC0"/>
<path d="M184.054 74.3457H175.672V75.481H184.054V74.3457Z" fill="#4A5568"/>
<path d="M184.054 81.4038H178.397V82.5391H184.054V81.4038Z" fill="#A0AEC0"/>
<path d="M172.306 86.948C172.306 86.7399 172.476 86.5696 172.684 86.5696H174.349C174.557 86.5696 174.727 86.7399 174.727 86.948V93.2302H172.324V86.948H172.306Z" fill="#E23D55"/>
<path d="M177.3 90.0891C177.3 89.881 177.47 89.7107 177.678 89.7107H179.343C179.551 89.7107 179.722 89.881 179.722 90.0891V93.2302H177.319V90.0891H177.3Z" fill="#E23D55"/>
<path d="M182.294 88.424C182.294 88.2158 182.464 88.0455 182.672 88.0455H184.337C184.546 88.0455 184.716 88.2158 184.716 88.424V93.2303H182.313V88.424H182.294Z" fill="#E23D55"/>
<path d="M187.29 85.0937C187.29 84.8855 187.46 84.7152 187.668 84.7152H189.333C189.542 84.7152 189.712 84.8855 189.712 85.0937V93.2302H187.309V85.0937H187.29Z" fill="#E23D55"/>
<path d="M191.169 93.2302H171.189V93.6087H191.169V93.2302Z" fill="#A0AEC0"/>
<path d="M236.048 98.4906C236.086 98.3203 236.199 98.1689 236.351 98.0743L242.727 94.252C243.048 94.0628 243.464 94.1574 243.654 94.479C243.843 94.8007 243.748 95.217 243.427 95.4062L237.051 99.2285C236.729 99.4178 236.313 99.3231 236.123 99.0015C236.029 98.8501 236.01 98.6609 236.048 98.4906Z" fill="#407BFF"/>
<path d="M236.633 102.124C236.709 101.821 236.993 101.594 237.333 101.613L242.442 101.897C242.82 101.915 243.104 102.237 243.085 102.616C243.066 102.994 242.744 103.278 242.366 103.259L237.258 102.975C236.879 102.956 236.595 102.634 236.614 102.256C236.614 102.199 236.633 102.161 236.633 102.124Z" fill="#407BFF"/>
<path d="M233.133 96.2766C233.152 96.2388 233.152 96.201 233.171 96.1631L235.328 91.5271C235.479 91.1865 235.896 91.0351 236.236 91.2054C236.577 91.3568 236.728 91.7731 236.558 92.1137L234.401 96.7497C234.25 97.0903 233.833 97.2417 233.493 97.0714C233.209 96.92 233.058 96.5794 233.133 96.2766Z" fill="#407BFF"/>
<path d="M207.307 71.7156H240.285C240.588 71.7156 240.834 72.0562 240.834 72.4535V95.4631C240.834 95.8794 240.588 96.2011 240.285 96.2011H207.307C207.005 96.2011 206.759 95.8605 206.759 95.4631V72.4725C206.759 72.0562 207.005 71.7156 207.307 71.7156Z" fill="#F7FAFC"/>
<path d="M235.213 87.0047C235.213 83.277 232.281 81.4605 228.686 80.9874C228.118 78.6222 225.772 77.4301 223.653 77.4301C220.626 77.4301 218.148 79.89 218.148 82.9364V82.9554C217.977 82.9364 217.788 82.9364 217.599 82.9364C214.553 82.9364 212.093 85.3963 212.093 88.4428V88.4618C212.093 89.4079 212.699 90.5621 214.61 90.5621H231.354C234.532 90.5621 235.195 88.4428 235.195 87.0426C235.213 87.0237 235.213 87.0237 235.213 87.0047Z" fill="#C1C1E8"/>
<path opacity="0.4" d="M191.603 112.474V130.413C191.603 131.188 190.865 131.813 189.938 131.813H164.075C163.147 131.813 162.41 131.188 162.41 130.413V112.474C162.41 111.698 163.147 111.074 164.075 111.074H189.957C190.865 111.055 191.603 111.698 191.603 112.474Z" fill="#E6E7E8"/>
<path d="M191.603 112.474V114.991H162.41V112.474C162.41 111.698 163.147 111.074 164.075 111.074H189.957C190.865 111.055 191.603 111.698 191.603 112.474Z" fill="#E23D55"/>
<path d="M164.793 118.908C164.017 118.908 163.393 118.283 163.393 117.508C163.393 116.732 164.017 116.107 164.793 116.107C165.568 116.107 166.193 116.732 166.193 117.508C166.193 118.283 165.568 118.908 164.793 118.908Z" fill="#E0DFF7"/>
<path d="M168.804 118.908C168.028 118.908 167.404 118.283 167.404 117.508C167.404 116.732 168.028 116.107 168.804 116.107C169.58 116.107 170.204 116.732 170.204 117.508C170.223 118.283 169.58 118.908 168.804 118.908Z" fill="#E0DFF7"/>
<path d="M172.815 118.908C172.039 118.908 171.415 118.283 171.415 117.508C171.415 116.732 172.039 116.107 172.815 116.107C173.591 116.107 174.215 116.732 174.215 117.508C174.234 118.283 173.591 118.908 172.815 118.908Z" fill="#E0DFF7"/>
<path d="M176.845 118.908C176.069 118.908 175.445 118.283 175.445 117.508C175.445 116.732 176.069 116.107 176.845 116.107C177.621 116.107 178.245 116.732 178.245 117.508C178.245 118.283 177.621 118.908 176.845 118.908Z" fill="#E0DFF7"/>
<path d="M184.867 118.908C184.092 118.908 183.467 118.283 183.467 117.508C183.467 116.732 184.092 116.107 184.867 116.107C185.643 116.107 186.267 116.732 186.267 117.508C186.267 118.283 185.643 118.908 184.867 118.908Z" fill="#E0DFF7"/>
<path d="M180.838 118.908C180.062 118.908 179.438 118.283 179.438 117.508C179.438 116.732 180.062 116.107 180.838 116.107C181.613 116.107 182.238 116.732 182.238 117.508C182.238 118.283 181.613 118.908 180.838 118.908Z" fill="#E0DFF7"/>
<path d="M188.897 118.908C188.121 118.908 187.497 118.283 187.497 117.508C187.497 116.732 188.121 116.107 188.897 116.107C189.673 116.107 190.297 116.732 190.297 117.508C190.297 118.283 189.673 118.908 188.897 118.908Z" fill="#E0DFF7"/>
<path d="M164.793 122.692C164.017 122.692 163.393 122.068 163.393 121.292C163.393 120.516 164.017 119.892 164.793 119.892C165.568 119.892 166.193 120.516 166.193 121.292C166.193 122.049 165.568 122.692 164.793 122.692Z" fill="#E0DFF7"/>
<path d="M168.804 122.692C168.028 122.692 167.404 122.068 167.404 121.292C167.404 120.516 168.028 119.892 168.804 119.892C169.58 119.892 170.204 120.516 170.204 121.292C170.223 122.049 169.58 122.692 168.804 122.692Z" fill="#E0DFF7"/>
<path d="M176.845 122.692C176.069 122.692 175.445 122.068 175.445 121.292C175.445 120.516 176.069 119.892 176.845 119.892C177.621 119.892 178.245 120.516 178.245 121.292C178.245 122.049 177.621 122.692 176.845 122.692Z" fill="#E0DFF7"/>
<path d="M180.856 122.692C180.08 122.692 179.456 122.068 179.456 121.292C179.456 120.516 180.08 119.892 180.856 119.892C181.632 119.892 182.256 120.516 182.256 121.292C182.256 122.049 181.632 122.692 180.856 122.692Z" fill="#E0DFF7"/>
<path d="M184.867 122.692C184.092 122.692 183.467 122.068 183.467 121.292C183.467 120.516 184.092 119.892 184.867 119.892C185.643 119.892 186.267 120.516 186.267 121.292C186.267 122.049 185.643 122.692 184.867 122.692Z" fill="#E0DFF7"/>
<path d="M172.815 122.692C172.039 122.692 171.415 122.068 171.415 121.292C171.415 120.516 172.039 119.892 172.815 119.892C173.591 119.892 174.215 120.516 174.215 121.292C174.234 122.049 173.591 122.692 172.815 122.692Z" fill="#E0DFF7"/>
<path d="M188.879 122.692C188.103 122.692 187.479 122.068 187.479 121.292C187.479 120.516 188.103 119.892 188.879 119.892C189.654 119.892 190.279 120.516 190.279 121.292C190.298 122.049 189.654 122.692 188.879 122.692Z" fill="#E0DFF7"/>
<path d="M188.879 126.477C188.103 126.477 187.479 125.852 187.479 125.076C187.479 124.301 188.103 123.676 188.879 123.676C189.654 123.676 190.279 124.301 190.279 125.076C190.298 125.833 189.654 126.477 188.879 126.477Z" fill="#E0DFF7"/>
<path d="M188.879 130.28C188.103 130.28 187.479 129.656 187.479 128.88C187.479 128.104 188.103 127.479 188.879 127.479C189.654 127.479 190.279 128.104 190.279 128.88C190.298 129.656 189.654 130.28 188.879 130.28Z" fill="#E0DFF7"/>
<path d="M164.793 126.477C164.017 126.477 163.393 125.852 163.393 125.076C163.393 124.301 164.017 123.676 164.793 123.676C165.568 123.676 166.193 124.301 166.193 125.076C166.193 125.833 165.568 126.477 164.793 126.477Z" fill="#E0DFF7"/>
<path d="M168.804 126.477C168.028 126.477 167.404 125.852 167.404 125.076C167.404 124.301 168.028 123.676 168.804 123.676C169.58 123.676 170.204 124.301 170.204 125.076C170.223 125.833 169.58 126.477 168.804 126.477Z" fill="#E0DFF7"/>
<path d="M172.815 126.477C172.039 126.477 171.415 125.852 171.415 125.076C171.415 124.301 172.039 123.676 172.815 123.676C173.591 123.676 174.215 124.301 174.215 125.076C174.234 125.833 173.591 126.477 172.815 126.477Z" fill="#E0DFF7"/>
<path d="M176.845 126.477C176.069 126.477 175.445 125.852 175.445 125.076C175.445 124.301 176.069 123.676 176.845 123.676C177.621 123.676 178.245 124.301 178.245 125.076C178.245 125.833 177.621 126.477 176.845 126.477Z" fill="#E0DFF7"/>
<path d="M180.856 126.477C180.08 126.477 179.456 125.852 179.456 125.076C179.456 124.301 180.08 123.676 180.856 123.676C181.632 123.676 182.256 124.301 182.256 125.076C182.256 125.833 181.632 126.477 180.856 126.477Z" fill="#E0DFF7"/>
<path d="M184.867 126.477C184.092 126.477 183.467 125.852 183.467 125.076C183.467 124.301 184.092 123.676 184.867 123.676C185.643 123.676 186.267 124.301 186.267 125.076C186.267 125.833 185.643 126.477 184.867 126.477Z" fill="#E0DFF7"/>
<path d="M164.793 130.242C164.017 130.242 163.393 129.618 163.393 128.842C163.393 128.066 164.017 127.442 164.793 127.442C165.568 127.442 166.193 128.066 166.193 128.842C166.193 129.618 165.568 130.242 164.793 130.242Z" fill="#E0DFF7"/>
<path d="M168.804 130.242C168.028 130.242 167.404 129.618 167.404 128.842C167.404 128.066 168.028 127.442 168.804 127.442C169.58 127.442 170.204 128.066 170.204 128.842C170.223 129.618 169.58 130.242 168.804 130.242Z" fill="#E0DFF7"/>
<path d="M172.815 130.242C172.039 130.242 171.415 129.618 171.415 128.842C171.415 128.066 172.039 127.442 172.815 127.442C173.591 127.442 174.215 128.066 174.215 128.842C174.234 129.618 173.591 130.242 172.815 130.242Z" fill="#E0DFF7"/>
<path d="M176.845 130.242C176.069 130.242 175.445 129.618 175.445 128.842C175.445 128.066 176.069 127.442 176.845 127.442C177.621 127.442 178.245 128.066 178.245 128.842C178.245 129.618 177.621 130.242 176.845 130.242Z" fill="#E0DFF7"/>
<path d="M180.856 130.242C180.081 130.242 179.456 129.618 179.456 128.842C179.456 128.066 180.081 127.442 180.856 127.442C181.632 127.442 182.256 128.066 182.256 128.842C182.256 129.618 181.632 130.242 180.856 130.242Z" fill="#E0DFF7"/>
<path d="M184.868 130.242C184.092 130.242 183.468 129.618 183.468 128.842C183.468 128.066 184.092 127.442 184.868 127.442C185.643 127.442 186.268 128.066 186.268 128.842C186.268 129.618 185.643 130.242 184.868 130.242Z" fill="#E0DFF7"/>
<path d="M168.255 113.761C168.537 113.761 168.766 113.532 168.766 113.25C168.766 112.968 168.537 112.739 168.255 112.739C167.973 112.739 167.744 112.968 167.744 113.25C167.744 113.532 167.973 113.761 168.255 113.761Z" fill="#BDE7FF"/>
<path d="M172.626 113.761C172.908 113.761 173.137 113.532 173.137 113.25C173.137 112.968 172.908 112.739 172.626 112.739C172.344 112.739 172.115 112.968 172.115 113.25C172.115 113.532 172.344 113.761 172.626 113.761Z" fill="#BDE7FF"/>
<path d="M177.488 113.25C177.488 113.534 177.261 113.761 176.977 113.761C176.694 113.761 176.467 113.534 176.467 113.25C176.467 112.966 176.694 112.739 176.977 112.739C177.261 112.739 177.488 112.966 177.488 113.25Z" fill="#BDE7FF"/>
<path d="M181.858 113.25C181.858 113.534 181.631 113.761 181.347 113.761C181.063 113.761 180.836 113.534 180.836 113.25C180.836 112.966 181.063 112.739 181.347 112.739C181.631 112.739 181.858 112.966 181.858 113.25Z" fill="#BDE7FF"/>
<path d="M186.23 113.25C186.23 113.534 186.003 113.761 185.719 113.761C185.435 113.761 185.208 113.534 185.208 113.25C185.208 112.966 185.435 112.739 185.719 112.739C185.984 112.739 186.23 112.966 186.23 113.25Z" fill="#BDE7FF"/>
<path d="M163.903 113.761C164.186 113.761 164.414 113.532 164.414 113.25C164.414 112.968 164.186 112.739 163.903 112.739C163.621 112.739 163.393 112.968 163.393 113.25C163.393 113.532 163.621 113.761 163.903 113.761Z" fill="#BDE7FF"/>
<path d="M168.255 113.761C168.537 113.761 168.766 113.532 168.766 113.25C168.766 112.968 168.537 112.739 168.255 112.739C167.973 112.739 167.744 112.968 167.744 113.25C167.744 113.532 167.973 113.761 168.255 113.761Z" fill="#BDE7FF"/>
<path d="M186.23 113.25C186.23 113.534 186.003 113.761 185.719 113.761C185.435 113.761 185.208 113.534 185.208 113.25C185.208 112.966 185.435 112.739 185.719 112.739C185.984 112.739 186.23 112.966 186.23 113.25Z" fill="#BDE7FF"/>
<path d="M190.581 113.25C190.581 113.534 190.354 113.761 190.07 113.761C189.786 113.761 189.559 113.534 189.559 113.25C189.559 112.966 189.786 112.739 190.07 112.739C190.354 112.739 190.581 112.966 190.581 113.25Z" fill="#BDE7FF"/>
<path d="M163.886 113.496C163.754 113.496 163.64 113.382 163.64 113.25V110.847C163.64 110.714 163.754 110.601 163.886 110.601C164.018 110.601 164.132 110.714 164.132 110.847V113.25C164.151 113.382 164.037 113.496 163.886 113.496Z" fill="#22234C"/>
<path d="M168.256 113.496C168.123 113.496 168.01 113.382 168.01 113.25V110.847C168.01 110.714 168.123 110.601 168.256 110.601C168.388 110.601 168.502 110.714 168.502 110.847V113.25C168.502 113.382 168.388 113.496 168.256 113.496Z" fill="#22234C"/>
<path d="M172.626 113.496C172.493 113.496 172.38 113.382 172.38 113.25V110.847C172.38 110.714 172.493 110.601 172.626 110.601C172.758 110.601 172.872 110.714 172.872 110.847V113.25C172.872 113.382 172.758 113.496 172.626 113.496Z" fill="#22234C"/>
<path d="M181.348 113.496C181.216 113.496 181.102 113.382 181.102 113.25V110.847C181.102 110.714 181.216 110.601 181.348 110.601C181.481 110.601 181.594 110.714 181.594 110.847V113.25C181.594 113.382 181.481 113.496 181.348 113.496Z" fill="#22234C"/>
<path d="M185.72 113.496C185.587 113.496 185.474 113.382 185.474 113.25V110.847C185.474 110.714 185.587 110.601 185.72 110.601C185.852 110.601 185.966 110.714 185.966 110.847V113.25C185.966 113.382 185.852 113.496 185.72 113.496Z" fill="#22234C"/>
<path d="M164.642 118.435C164.604 118.435 164.566 118.416 164.529 118.397L163.847 117.829C163.772 117.772 163.753 117.659 163.829 117.564C163.904 117.47 163.999 117.47 164.093 117.545L164.604 117.999L165.475 116.788C165.531 116.713 165.645 116.694 165.721 116.751C165.796 116.807 165.815 116.921 165.758 116.997L164.775 118.359C164.737 118.397 164.699 118.435 164.642 118.435C164.661 118.435 164.661 118.435 164.642 118.435Z" fill="#E23D55"/>
<path d="M180.782 118.435C180.744 118.435 180.706 118.416 180.668 118.397L179.987 117.829C179.911 117.772 179.892 117.659 179.968 117.564C180.025 117.489 180.138 117.47 180.233 117.545L180.763 117.981L181.633 116.77C181.69 116.694 181.803 116.675 181.879 116.732C181.955 116.789 181.973 116.902 181.917 116.978L180.933 118.34C180.895 118.378 180.857 118.416 180.8 118.416C180.8 118.435 180.782 118.435 180.782 118.435Z" fill="#E23D55"/>
<path d="M168.653 129.618C168.616 129.618 168.578 129.599 168.54 129.58L167.859 129.012C167.783 128.956 167.764 128.842 167.84 128.747C167.897 128.672 168.01 128.672 168.086 128.728L168.616 129.164L169.486 127.953C169.543 127.877 169.656 127.858 169.732 127.915C169.808 127.972 169.827 128.085 169.77 128.161L168.786 129.523C168.748 129.561 168.71 129.599 168.653 129.599C168.672 129.618 168.672 129.618 168.653 129.618Z" fill="#E23D55"/>
<path d="M176.978 113.496C176.846 113.496 176.732 113.382 176.732 113.25V110.847C176.732 110.714 176.846 110.601 176.978 110.601C177.111 110.601 177.224 110.714 177.224 110.847V113.25C177.243 113.382 177.13 113.496 176.978 113.496Z" fill="#22234C"/>
<path d="M190.071 113.496C189.939 113.496 189.825 113.382 189.825 113.25V110.847C189.825 110.714 189.939 110.601 190.071 110.601C190.203 110.601 190.317 110.714 190.317 110.847V113.25C190.317 113.382 190.203 113.496 190.071 113.496Z" fill="#22234C"/>
<path d="M153.744 24.2016H128.656C128.656 24.2016 128.675 23.861 128.902 23.3312C130.34 21.2308 131.097 20.1901 132.44 18.8277C135.051 18.0329 136.376 17.8626 140.292 17.2193L144.719 16.9354C144.719 16.9354 150.339 18.2411 152.212 19.5845C153.177 20.682 153.801 22.1769 153.744 24.2016Z" fill="#E23D55"/>
<path d="M145.438 24.2016H128.656C128.656 24.2016 128.675 23.861 128.902 23.3312C129.508 23.1419 130.302 23.1609 130.889 23.3122C131.494 23.4825 131.911 23.5771 131.911 23.5771C131.911 23.5771 140.708 23.5771 142.827 23.5771C144.947 23.5771 145.438 24.2016 145.438 24.2016Z" fill="black" fill-opacity="0.3"/>
<path d="M143.565 12.8294C143.565 12.8294 143.773 11.6183 143.641 10.8993C143.509 10.1613 142.827 9.19628 142.771 9.17736C142.695 9.15844 141.825 9.36658 141.844 9.40443C141.862 9.44227 141.844 10.7101 141.844 10.7101C141.844 10.7101 142.165 12.5455 142.26 12.7158C142.354 12.9051 142.733 13.643 142.771 13.6619C142.808 13.6809 143.206 13.5295 143.206 13.5295L143.565 12.8294Z" fill="#FDAEB3"/>
<path d="M141.295 19.4332C140.614 19.4711 140.009 19.0169 139.857 18.3547C139.801 18.1276 139.668 17.8248 139.517 17.4653C139.328 17.049 139.1 16.5949 138.968 16.2164L140.425 15.1379L143.566 12.8293C143.566 12.8293 143.963 15.7812 144.701 16.9355C144.701 16.9355 144.947 19.2251 141.295 19.4332Z" fill="#F9C0B2"/>
<path d="M142.015 14.608C141.92 14.7405 140.634 16.7084 139.498 17.4653C139.309 17.049 139.082 16.5949 138.95 16.2164L140.425 15.1379L142.015 14.608Z" fill="#E58099"/>
<path d="M142.997 11.4669C143.073 12.1481 143.092 12.7725 143.035 13.2077C143.035 13.2645 143.016 13.3402 142.997 13.3969C142.978 13.4537 142.978 13.5294 142.959 13.5862C142.467 15.5541 136.375 17.8248 136.186 17.6923C132.78 15.4973 131.607 7.39856 131.967 6.86874C132.364 6.28215 137.189 5.71448 137.283 5.71448C137.378 5.71448 142.013 6.03616 142.013 6.03616C142.013 6.03616 142.751 9.15834 142.997 11.4669Z" fill="#F9C0B2"/>
<path d="M129.735 4.97652C129.735 4.97652 129.886 8.51499 135.694 7.09582C137.284 6.69845 138.703 6.33892 139.478 6.77414C140.67 10.5018 140.708 12.2994 141.124 12.1481C141.654 11.9588 140.216 8.85559 142.051 9.19619C143.433 9.4611 143.565 12.8293 143.565 12.8293C143.565 12.8293 143.679 13.1131 143.735 12.3184C143.773 11.8453 144.095 4.27639 142.941 2.68692C141.787 1.09745 140.141 2.06248 140.141 2.06248C140.141 2.06248 140.235 -1.77874 134.748 1.0596C131.57 2.68692 130.037 1.58943 130.056 1.68404C130.056 1.75973 129.489 2.74369 129.735 4.97652Z" fill="#22234C"/>
<path d="M137.587 49.6143C137.587 49.6143 137.209 50.0684 136.887 50.3144C136.546 50.5793 136.414 50.5793 135.941 50.6928C135.468 50.8064 135.071 51.2983 134.938 51.4686C134.806 51.6389 134.938 51.7146 135.222 51.6579C135.506 51.6011 135.884 51.374 135.998 51.374C136.111 51.374 136.111 51.5254 135.998 51.7903C135.884 52.0552 135.544 52.4905 135.354 52.6418C135.165 52.7932 134.617 53.096 134.56 53.2852C134.503 53.4744 134.541 53.5501 134.825 53.4744C135.109 53.3798 135.449 53.1338 135.79 52.9635C135.979 52.8689 136.054 52.7554 136.149 52.6797C136.263 52.7175 136.66 52.8121 136.944 52.7554C137.095 52.7364 137.228 52.6608 137.322 52.5851C137.36 52.5851 137.398 52.5661 137.436 52.5661C137.701 52.4526 137.833 51.5633 137.965 51.3362C138.098 51.0902 139.252 50.2198 139.252 50.2198L137.587 49.6143Z" fill="#F9C0B2"/>
<path d="M130.719 25.9425C130.567 25.9236 130.359 25.7722 130.113 25.5073C130.038 25.4316 129.924 25.2802 129.792 25.1478C129.678 25.0721 129.565 24.9964 129.489 24.9396C129.3 24.8072 129.092 24.7882 129.016 24.7882C128.997 24.7882 128.997 24.7882 128.997 24.7882C127.805 24.7693 127.275 24.2395 125.818 24.2395C125.818 24.2395 129.224 22.5932 131.286 23.7664C131.494 23.8043 131.892 23.861 132.157 23.861C132.762 23.861 132.592 24.1638 132.403 24.2773C132.346 24.2963 132.176 24.3341 132.005 24.353C132.005 24.353 132.024 24.3719 132.043 24.3909C132.138 24.4855 132.213 24.5801 132.289 24.6747C132.554 24.9964 132.894 25.4127 132.97 25.4694C133.065 25.583 133.008 25.6397 133.008 25.6397C133.103 25.7911 131.778 26.4534 130.719 25.9425Z" fill="#F9C0B2"/>
<path opacity="0.47" d="M132.383 24.2205C132.326 24.2394 132.156 24.2773 131.986 24.2962C131.986 24.2962 131.494 23.8231 131.286 23.7285C131.494 23.7664 131.891 23.8231 132.156 23.8231C132.743 23.8231 132.572 24.1259 132.383 24.2205Z" fill="url(#paint0_linear)"/>
<path d="M149.695 41.0425C149.695 41.0425 145.968 40.4937 145.703 39.7747C145.533 39.3584 145.59 35.9524 145.665 33.2843C145.684 32.7166 145.703 32.1679 145.722 31.6948C145.741 30.673 145.779 29.9729 145.779 29.9729L152.723 30.6163C152.061 33.6249 149.695 41.0425 149.695 41.0425Z" fill="#F9C0B2"/>
<path d="M145.703 39.7747C145.703 39.7747 143.868 41.175 142.884 42.3671C142.278 43.1051 140.367 46.0191 138.892 48.0249C138.002 49.2359 137.189 50.0496 137.189 50.0496L138.116 50.9578C138.116 50.9578 141.919 48.4412 145.06 46.0759C148.2 43.7106 149.165 42.8402 149.714 41.0425C150.263 39.2449 146.819 38.8665 145.703 39.7747Z" fill="#F9C0B2"/>
<path d="M145.439 24.2016L145.666 30.5785C145.666 30.5785 149.412 31.8841 152.799 31.0894C152.799 31.0894 154.936 26.056 153.234 21.2308" fill="#E23D55"/>
<path d="M88.3559 230.133L87.8829 228.809C87.2207 226.935 85.3287 225.762 83.361 225.989L64.5545 228.184C62.2084 228.449 60.5245 230.587 60.8083 232.934L66.1627 278.707C66.3519 280.315 67.8087 281.469 69.4169 281.28L136.697 273.408C138.305 273.219 139.459 271.762 139.27 270.154L134.634 230.587C134.445 228.979 132.988 227.825 131.38 228.014L92.3102 232.593C90.5885 232.782 88.9424 231.76 88.3559 230.133Z" fill="#8CA1F9"/>
<path d="M90.2521 210.224L68.9882 214.463L74.825 243.746L96.0889 239.507L90.2521 210.224Z" fill="#007CFF"/>
<path opacity="0.7" d="M90.2521 210.224L68.9882 214.463L74.825 243.746L96.0889 239.507L90.2521 210.224Z" fill="white"/>
<g opacity="0.4">
<path opacity="0.4" d="M87.3906 217.266L74.2979 219.877C73.6547 220.01 73.0492 219.593 72.9168 218.95C72.7843 218.307 73.2006 217.701 73.8439 217.569L86.9365 214.957C87.5798 214.825 88.1853 215.241 88.3177 215.885C88.4501 216.528 88.0339 217.152 87.3906 217.266Z" fill="#007CFF"/>
<path opacity="0.4" d="M88.3551 222.11L75.2624 224.721C74.6191 224.854 74.0137 224.437 73.8813 223.794C73.7488 223.151 74.1651 222.545 74.8084 222.413L87.901 219.801C88.5443 219.669 89.1498 220.085 89.2822 220.729C89.4147 221.372 88.9984 221.996 88.3551 222.11Z" fill="#007CFF"/>
<path opacity="0.4" d="M89.3197 226.954L76.227 229.565C75.5837 229.698 74.9783 229.281 74.8459 228.638C74.7134 227.995 75.1297 227.389 75.7729 227.257L88.8656 224.646C89.5089 224.513 90.1143 224.929 90.2468 225.573C90.3792 226.216 89.963 226.841 89.3197 226.954Z" fill="#007CFF"/>
<path opacity="0.4" d="M90.2858 231.798L77.1931 234.409C76.5498 234.542 75.9444 234.126 75.8119 233.482C75.6795 232.839 76.0957 232.233 76.739 232.101L89.8317 229.49C90.475 229.357 91.0804 229.773 91.2129 230.417C91.3453 231.06 90.9291 231.685 90.2858 231.798Z" fill="#007CFF"/>
<path opacity="0.4" d="M87.6745 237.361L78.1577 239.254C77.5144 239.386 76.909 238.97 76.7765 238.326C76.6441 237.683 77.0603 237.078 77.7036 236.945L87.2204 235.053C87.8637 234.92 88.4691 235.337 88.6016 235.98C88.734 236.623 88.3178 237.229 87.6745 237.361Z" fill="#007CFF"/>
</g>
<path d="M120.538 204.587L99.0553 207.528L103.104 237.112L124.587 234.172L120.538 204.587Z" fill="#007CFF"/>
<path opacity="0.7" d="M120.538 204.587L99.0553 207.528L103.104 237.112L124.587 234.172L120.538 204.587Z" fill="white"/>
<g opacity="0.4">
<path opacity="0.4" d="M117.265 211.438L104.04 213.254C103.396 213.349 102.81 212.895 102.715 212.251C102.621 211.608 103.075 211.022 103.718 210.927L116.943 209.11C117.586 209.016 118.173 209.47 118.267 210.113C118.362 210.757 117.908 211.343 117.265 211.438Z" fill="#007CFF"/>
<path opacity="0.4" d="M117.946 216.339L104.721 218.155C104.078 218.25 103.491 217.796 103.397 217.152C103.302 216.509 103.756 215.922 104.4 215.828L117.625 214.011C118.268 213.917 118.855 214.371 118.949 215.014C119.025 215.657 118.571 216.244 117.946 216.339Z" fill="#007CFF"/>
<path opacity="0.4" d="M109.016 222.545L105.364 223.037C104.721 223.132 104.135 222.678 104.04 222.034C103.945 221.391 104.399 220.804 105.043 220.71L108.694 220.218C109.338 220.123 109.924 220.577 110.019 221.221C110.113 221.864 109.659 222.451 109.016 222.545Z" fill="#007CFF"/>
<path opacity="0.4" d="M116.092 221.561L112.441 222.053C111.797 222.148 111.211 221.694 111.116 221.05C111.022 220.407 111.476 219.82 112.119 219.726L115.771 219.234C116.414 219.139 117 219.593 117.095 220.237C117.19 220.899 116.736 221.486 116.092 221.561Z" fill="#007CFF"/>
<path opacity="0.4" d="M119.269 226.121L106.044 227.938C105.401 228.033 104.815 227.578 104.72 226.935C104.625 226.292 105.079 225.705 105.723 225.611L118.948 223.794C119.591 223.699 120.178 224.154 120.272 224.797C120.367 225.44 119.913 226.027 119.269 226.121Z" fill="#007CFF"/>
<path opacity="0.4" d="M116.337 231.514L106.726 232.839C106.083 232.934 105.496 232.479 105.402 231.836C105.307 231.193 105.761 230.606 106.404 230.512L116.016 229.187C116.659 229.092 117.246 229.547 117.34 230.19C117.416 230.833 116.981 231.42 116.337 231.514Z" fill="#007CFF"/>
</g>
<path d="M100.255 208.904L78.6552 210.786L81.2466 240.532L102.847 238.65L100.255 208.904Z" fill="#007CFF"/>
<path opacity="0.8" d="M100.255 208.904L78.6552 210.786L81.2466 240.532L102.847 238.65L100.255 208.904Z" fill="white"/>
<g opacity="0.4">
<path opacity="0.4" d="M96.6612 215.601L83.3604 216.755C82.7171 216.812 82.1495 216.339 82.0928 215.695C82.036 215.052 82.509 214.484 83.1523 214.428L96.4531 213.273C97.0964 213.217 97.664 213.69 97.7207 214.333C97.7964 214.976 97.3234 215.544 96.6612 215.601Z" fill="#007CFF"/>
<path opacity="0.4" d="M97.0973 220.521L83.7964 221.675C83.1532 221.732 82.5855 221.259 82.5288 220.615C82.472 219.972 82.945 219.404 83.5883 219.347L96.8891 218.193C97.5324 218.136 98.1 218.609 98.1568 219.253C98.2135 219.896 97.7405 220.464 97.0973 220.521Z" fill="#007CFF"/>
<path opacity="0.4" d="M97.5314 225.44L84.2306 226.595C83.5874 226.651 83.0198 226.178 82.963 225.535C82.9062 224.892 83.3792 224.324 84.0225 224.267L97.3233 223.113C97.9666 223.056 98.5342 223.529 98.591 224.173C98.6477 224.816 98.1747 225.384 97.5314 225.44Z" fill="#007CFF"/>
<path opacity="0.4" d="M97.9472 230.36L84.6464 231.514C84.0031 231.571 83.4355 231.098 83.3788 230.455C83.322 229.811 83.795 229.244 84.4383 229.187L97.7391 228.033C98.3824 227.976 98.95 228.449 99.0068 229.092C99.0825 229.736 98.6094 230.303 97.9472 230.36Z" fill="#007CFF"/>
<path opacity="0.4" d="M94.7506 235.583L85.0824 236.434C84.4392 236.491 83.8716 236.018 83.8148 235.375C83.758 234.731 84.231 234.164 84.8743 234.107L94.5425 233.255C95.1858 233.198 95.7534 233.672 95.8101 234.315C95.8669 234.958 95.3939 235.526 94.7506 235.583Z" fill="#007CFF"/>
</g>
<path d="M126.571 207.446L104.914 208.491L106.353 238.315L128.01 237.269L126.571 207.446Z" fill="#007CFF"/>
<path opacity="0.8" d="M126.571 207.446L104.914 208.491L106.353 238.315L128.01 237.269L126.571 207.446Z" fill="white"/>
<g opacity="0.4">
<path opacity="0.4" d="M122.733 213.992L109.394 214.636C108.751 214.674 108.202 214.163 108.164 213.519C108.126 212.876 108.637 212.327 109.281 212.289L122.619 211.646C123.263 211.608 123.811 212.119 123.849 212.762C123.887 213.425 123.376 213.973 122.733 213.992Z" fill="#007CFF"/>
<path opacity="0.4" d="M122.979 218.931L109.64 219.574C108.997 219.612 108.448 219.101 108.41 218.458C108.372 217.815 108.883 217.266 109.526 217.228L122.865 216.585C123.508 216.547 124.057 217.058 124.095 217.701C124.114 218.344 123.622 218.893 122.979 218.931Z" fill="#007CFF"/>
<path opacity="0.4" d="M113.538 224.324L109.867 224.494C109.224 224.532 108.675 224.021 108.637 223.378C108.6 222.734 109.11 222.186 109.754 222.148L113.424 221.978C114.067 221.94 114.616 222.451 114.654 223.094C114.692 223.756 114.2 224.305 113.538 224.324Z" fill="#007CFF"/>
<path opacity="0.4" d="M120.67 223.983L116.999 224.154C116.356 224.192 115.807 223.681 115.769 223.037C115.732 222.394 116.242 221.845 116.886 221.807L120.556 221.637C121.199 221.599 121.748 222.11 121.786 222.753C121.824 223.397 121.313 223.964 120.67 223.983Z" fill="#007CFF"/>
<path opacity="0.4" d="M123.452 228.79L110.113 229.433C109.47 229.471 108.921 228.96 108.883 228.317C108.845 227.673 109.356 227.124 109.999 227.087L123.338 226.443C123.981 226.405 124.53 226.916 124.568 227.56C124.587 228.222 124.095 228.771 123.452 228.79Z" fill="#007CFF"/>
<path opacity="0.4" d="M120.046 233.899L110.359 234.372C109.715 234.409 109.167 233.899 109.129 233.255C109.091 232.612 109.602 232.063 110.245 232.025L119.932 231.552C120.576 231.514 121.124 232.025 121.162 232.669C121.181 233.331 120.689 233.88 120.046 233.899Z" fill="#007CFF"/>
</g>
<path d="M94.3725 230.966L94.0319 229.679C93.54 227.844 91.7994 226.708 89.8128 226.935L71.0062 229.13C68.6601 229.414 66.806 231.496 66.8627 233.785L67.9222 278.593C67.9601 280.164 69.3034 281.299 70.9116 281.11L138.191 273.238C139.8 273.049 141.067 271.63 141.029 270.04L140.102 231.306C140.064 229.736 138.721 228.6 137.113 228.79L98.043 233.369C96.3213 233.577 94.7888 232.574 94.3725 230.966Z" fill="#6A7EEF"/>
<path opacity="0.3" d="M94.3725 230.966L94.0319 229.679C93.54 227.844 91.7994 226.708 89.8128 226.935L71.0062 229.13C68.6601 229.414 66.806 231.496 66.8627 233.785L67.9222 278.593C67.9601 280.164 69.3034 281.299 70.9116 281.11L138.191 273.238C139.8 273.049 141.067 271.63 141.029 270.04L140.102 231.306C140.064 229.736 138.721 228.6 137.113 228.79L98.043 233.369C96.3213 233.577 94.7888 232.574 94.3725 230.966Z" fill="#6A7EEF"/>
<path d="M389.526 88.0455L390.415 88.405C391.096 87.5725 391.853 86.8156 392.666 86.1533L392.307 85.2639C391.342 82.8986 392.458 80.2117 394.823 79.2466C397.188 78.2816 399.875 79.398 400.84 81.7633L401.199 82.6527C402.259 82.5391 403.318 82.558 404.397 82.6716L404.756 81.7822C405.74 79.4359 408.446 78.3194 410.792 79.3034C413.138 80.2874 414.254 82.9933 413.27 85.3396L412.911 86.229C413.743 86.9102 414.5 87.6671 415.162 88.4807L416.051 88.1212C418.416 87.1562 421.103 88.2726 422.068 90.6379C423.033 93.0032 421.917 95.6901 419.552 96.6552L418.662 97.0147C418.757 98.0743 418.757 99.134 418.644 100.194L419.533 100.553C421.879 101.537 422.995 104.243 422.011 106.589C421.027 108.936 418.322 110.052 415.976 109.068L415.087 108.709C414.405 109.541 413.649 110.298 412.835 110.96L413.195 111.85C414.159 114.215 413.043 116.902 410.678 117.867C408.313 118.832 405.627 117.716 404.662 115.35L404.302 114.461C403.243 114.556 402.183 114.556 401.124 114.442L400.764 115.331C399.78 117.678 397.075 118.794 394.729 117.81C392.382 116.826 391.266 114.12 392.25 111.774L392.609 110.885C391.777 110.204 391.02 109.447 390.358 108.633L389.469 108.992C387.104 109.958 384.417 108.841 383.452 106.476C382.487 104.111 383.604 101.424 385.969 100.459L386.858 100.099C386.744 99.0394 386.763 97.9797 386.877 96.9201L385.987 96.5605C383.641 95.5766 382.525 92.8707 383.509 90.5243C384.474 88.178 387.179 87.0615 389.526 88.0455ZM399.194 107.1C403.905 109.068 409.316 106.835 411.284 102.124C413.251 97.4121 411.019 92.0003 406.308 90.0324C401.597 88.0644 396.185 90.2973 394.218 95.0089C392.269 99.7206 394.483 105.132 399.194 107.1Z" fill="#8CA1F9"/>
</g>
<defs>
<linearGradient id="paint0_linear" x1="131.271" y1="24.0167" x2="132.553" y2="24.0167" gradientUnits="userSpaceOnUse">
<stop stop-color="#F7941E"/>
<stop offset="1" stop-color="#F7941E" stop-opacity="0"/>
</linearGradient>
<clipPath id="clip0">
<rect width="493" height="302" fill="white"/>
</clipPath>
</defs>
</svg>
